<?xml version="1.0" encoding="utf-8"?>
<svg xmlns="http://www.w3.org/2000/svg" xmlns:xlink="http://www.w3.org/1999/xlink" width="800" height="400" viewBox="0 0 3200 1600">
<defs>
  <clipPath id="clip510">
    <rect x="0" y="0" width="3200" height="1600"/>
  </clipPath>
</defs>
<path clip-path="url(#clip510)" d="M0 1600 L3200 1600 L3200 0 L0 0  Z" fill="#ffffff" fill-rule="evenodd" fill-opacity="1"/>
<defs>
  <clipPath id="clip511">
    <rect x="640" y="0" width="2241" height="1600"/>
  </clipPath>
</defs>
<path clip-path="url(#clip510)" d="M291.501 1380.71 L3089.76 1380.71 L3089.76 110.236 L291.501 110.236  Z" fill="#ffffff" fill-rule="evenodd" fill-opacity="1"/>
<defs>
  <clipPath id="clip512">
    <rect x="291" y="110" width="2799" height="1271"/>
  </clipPath>
</defs>
<polyline clip-path="url(#clip512)" style="stroke:#000000; stroke-linecap:round; stroke-linejoin:round; stroke-width:2; stroke-opacity:0.1; fill:none" points="370.698,1380.71 370.698,110.236 "/>
<polyline clip-path="url(#clip512)" style="stroke:#000000; stroke-linecap:round; stroke-linejoin:round; stroke-width:2; stroke-opacity:0.1; fill:none" points="842.103,1380.71 842.103,110.236 "/>
<polyline clip-path="url(#clip512)" style="stroke:#000000; stroke-linecap:round; stroke-linejoin:round; stroke-width:2; stroke-opacity:0.1; fill:none" points="1313.51,1380.71 1313.51,110.236 "/>
<polyline clip-path="url(#clip512)" style="stroke:#000000; stroke-linecap:round; stroke-linejoin:round; stroke-width:2; stroke-opacity:0.1; fill:none" points="1784.91,1380.71 1784.91,110.236 "/>
<polyline clip-path="url(#clip512)" style="stroke:#000000; stroke-linecap:round; stroke-linejoin:round; stroke-width:2; stroke-opacity:0.1; fill:none" points="2256.32,1380.71 2256.32,110.236 "/>
<polyline clip-path="url(#clip512)" style="stroke:#000000; stroke-linecap:round; stroke-linejoin:round; stroke-width:2; stroke-opacity:0.1; fill:none" points="2727.72,1380.71 2727.72,110.236 "/>
<polyline clip-path="url(#clip510)" style="stroke:#000000; stroke-linecap:round; stroke-linejoin:round; stroke-width:4; stroke-opacity:1; fill:none" points="291.501,1380.71 3089.76,1380.71 "/>
<polyline clip-path="url(#clip510)" style="stroke:#000000; stroke-linecap:round; stroke-linejoin:round; stroke-width:4; stroke-opacity:1; fill:none" points="370.698,1380.71 370.698,1361.81 "/>
<polyline clip-path="url(#clip510)" style="stroke:#000000; stroke-linecap:round; stroke-linejoin:round; stroke-width:4; stroke-opacity:1; fill:none" points="842.103,1380.71 842.103,1361.81 "/>
<polyline clip-path="url(#clip510)" style="stroke:#000000; stroke-linecap:round; stroke-linejoin:round; stroke-width:4; stroke-opacity:1; fill:none" points="1313.51,1380.71 1313.51,1361.81 "/>
<polyline clip-path="url(#clip510)" style="stroke:#000000; stroke-linecap:round; stroke-linejoin:round; stroke-width:4; stroke-opacity:1; fill:none" points="1784.91,1380.71 1784.91,1361.81 "/>
<polyline clip-path="url(#clip510)" style="stroke:#000000; stroke-linecap:round; stroke-linejoin:round; stroke-width:4; stroke-opacity:1; fill:none" points="2256.32,1380.71 2256.32,1361.81 "/>
<polyline clip-path="url(#clip510)" style="stroke:#000000; stroke-linecap:round; stroke-linejoin:round; stroke-width:4; stroke-opacity:1; fill:none" points="2727.72,1380.71 2727.72,1361.81 "/>
<path clip-path="url(#clip510)" d="M348.082 1418.03 Q344.471 1418.03 342.642 1421.59 Q340.837 1425.13 340.837 1432.26 Q340.837 1439.37 342.642 1442.93 Q344.471 1446.48 348.082 1446.48 Q351.716 1446.48 353.522 1442.93 Q355.35 1439.37 355.35 1432.26 Q355.35 1425.13 353.522 1421.59 Q351.716 1418.03 348.082 1418.03 M348.082 1414.32 Q353.892 1414.32 356.948 1418.93 Q360.026 1423.51 360.026 1432.26 Q360.026 1440.99 356.948 1445.6 Q353.892 1450.18 348.082 1450.18 Q342.272 1450.18 339.193 1445.6 Q336.138 1440.99 336.138 1432.26 Q336.138 1423.51 339.193 1418.93 Q342.272 1414.32 348.082 1414.32 Z" fill="#000000" fill-rule="nonzero" fill-opacity="1" /><path clip-path="url(#clip510)" d="M368.244 1443.63 L373.128 1443.63 L373.128 1449.51 L368.244 1449.51 L368.244 1443.63 Z" fill="#000000" fill-rule="nonzero" fill-opacity="1" /><path clip-path="url(#clip510)" d="M393.313 1418.03 Q389.702 1418.03 387.873 1421.59 Q386.068 1425.13 386.068 1432.26 Q386.068 1439.37 387.873 1442.93 Q389.702 1446.48 393.313 1446.48 Q396.947 1446.48 398.753 1442.93 Q400.582 1439.37 400.582 1432.26 Q400.582 1425.13 398.753 1421.59 Q396.947 1418.03 393.313 1418.03 M393.313 1414.32 Q399.123 1414.32 402.179 1418.93 Q405.258 1423.51 405.258 1432.26 Q405.258 1440.99 402.179 1445.6 Q399.123 1450.18 393.313 1450.18 Q387.503 1450.18 384.424 1445.6 Q381.369 1440.99 381.369 1432.26 Q381.369 1423.51 384.424 1418.93 Q387.503 1414.32 393.313 1414.32 Z" fill="#000000" fill-rule="nonzero" fill-opacity="1" /><path clip-path="url(#clip510)" d="M813.839 1445.57 L830.159 1445.57 L830.159 1449.51 L808.214 1449.51 L808.214 1445.57 Q810.876 1442.82 815.46 1438.19 Q820.066 1433.54 821.247 1432.19 Q823.492 1429.67 824.372 1427.93 Q825.274 1426.17 825.274 1424.48 Q825.274 1421.73 823.33 1419.99 Q821.409 1418.26 818.307 1418.26 Q816.108 1418.26 813.654 1419.02 Q811.223 1419.79 808.446 1421.34 L808.446 1416.61 Q811.27 1415.48 813.723 1414.9 Q816.177 1414.32 818.214 1414.32 Q823.585 1414.32 826.779 1417.01 Q829.973 1419.69 829.973 1424.18 Q829.973 1426.31 829.163 1428.23 Q828.376 1430.13 826.27 1432.73 Q825.691 1433.4 822.589 1436.61 Q819.487 1439.81 813.839 1445.57 Z" fill="#000000" fill-rule="nonzero" fill-opacity="1" /><path clip-path="url(#clip510)" d="M839.973 1443.63 L844.858 1443.63 L844.858 1449.51 L839.973 1449.51 L839.973 1443.63 Z" fill="#000000" fill-rule="nonzero" fill-opacity="1" /><path clip-path="url(#clip510)" d="M855.089 1414.95 L873.445 1414.95 L873.445 1418.88 L859.371 1418.88 L859.371 1427.36 Q860.39 1427.01 861.408 1426.85 Q862.427 1426.66 863.445 1426.66 Q869.232 1426.66 872.612 1429.83 Q875.992 1433 875.992 1438.42 Q875.992 1444 872.519 1447.1 Q869.047 1450.18 862.728 1450.18 Q860.552 1450.18 858.283 1449.81 Q856.038 1449.44 853.631 1448.7 L853.631 1444 Q855.714 1445.13 857.936 1445.69 Q860.158 1446.24 862.635 1446.24 Q866.64 1446.24 868.978 1444.14 Q871.316 1442.03 871.316 1438.42 Q871.316 1434.81 868.978 1432.7 Q866.64 1430.6 862.635 1430.6 Q860.76 1430.6 858.885 1431.01 Q857.033 1431.43 855.089 1432.31 L855.089 1414.95 Z" fill="#000000" fill-rule="nonzero" fill-opacity="1" /><path clip-path="url(#clip510)" d="M1280.67 1414.95 L1299.03 1414.95 L1299.03 1418.88 L1284.96 1418.88 L1284.96 1427.36 Q1285.97 1427.01 1286.99 1426.85 Q1288.01 1426.66 1289.03 1426.66 Q1294.82 1426.66 1298.2 1429.83 Q1301.58 1433 1301.58 1438.42 Q1301.58 1444 1298.1 1447.1 Q1294.63 1450.18 1288.31 1450.18 Q1286.14 1450.18 1283.87 1449.81 Q1281.62 1449.44 1279.21 1448.7 L1279.21 1444 Q1281.3 1445.13 1283.52 1445.69 Q1285.74 1446.24 1288.22 1446.24 Q1292.22 1446.24 1294.56 1444.14 Q1296.9 1442.03 1296.9 1438.42 Q1296.9 1434.81 1294.56 1432.7 Q1292.22 1430.6 1288.22 1430.6 Q1286.34 1430.6 1284.47 1431.01 Q1282.62 1431.43 1280.67 1432.31 L1280.67 1414.95 Z" fill="#000000" fill-rule="nonzero" fill-opacity="1" /><path clip-path="url(#clip510)" d="M1310.79 1443.63 L1315.67 1443.63 L1315.67 1449.51 L1310.79 1449.51 L1310.79 1443.63 Z" fill="#000000" fill-rule="nonzero" fill-opacity="1" /><path clip-path="url(#clip510)" d="M1335.86 1418.03 Q1332.25 1418.03 1330.42 1421.59 Q1328.61 1425.13 1328.61 1432.26 Q1328.61 1439.37 1330.42 1442.93 Q1332.25 1446.48 1335.86 1446.48 Q1339.49 1446.48 1341.3 1442.93 Q1343.13 1439.37 1343.13 1432.26 Q1343.13 1425.13 1341.3 1421.59 Q1339.49 1418.03 1335.86 1418.03 M1335.86 1414.32 Q1341.67 1414.32 1344.72 1418.93 Q1347.8 1423.51 1347.8 1432.26 Q1347.8 1440.99 1344.72 1445.6 Q1341.67 1450.18 1335.86 1450.18 Q1330.05 1450.18 1326.97 1445.6 Q1323.91 1440.99 1323.91 1432.26 Q1323.91 1423.51 1326.97 1418.93 Q1330.05 1414.32 1335.86 1414.32 Z" fill="#000000" fill-rule="nonzero" fill-opacity="1" /><path clip-path="url(#clip510)" d="M1751.23 1414.95 L1773.46 1414.95 L1773.46 1416.94 L1760.91 1449.51 L1756.02 1449.51 L1767.83 1418.88 L1751.23 1418.88 L1751.23 1414.95 Z" fill="#000000" fill-rule="nonzero" fill-opacity="1" /><path clip-path="url(#clip510)" d="M1782.58 1443.63 L1787.46 1443.63 L1787.46 1449.51 L1782.58 1449.51 L1782.58 1443.63 Z" fill="#000000" fill-rule="nonzero" fill-opacity="1" /><path clip-path="url(#clip510)" d="M1797.69 1414.95 L1816.05 1414.95 L1816.05 1418.88 L1801.97 1418.88 L1801.97 1427.36 Q1802.99 1427.01 1804.01 1426.85 Q1805.03 1426.66 1806.05 1426.66 Q1811.83 1426.66 1815.21 1429.83 Q1818.59 1433 1818.59 1438.42 Q1818.59 1444 1815.12 1447.1 Q1811.65 1450.18 1805.33 1450.18 Q1803.15 1450.18 1800.89 1449.81 Q1798.64 1449.44 1796.23 1448.7 L1796.23 1444 Q1798.32 1445.13 1800.54 1445.69 Q1802.76 1446.24 1805.24 1446.24 Q1809.24 1446.24 1811.58 1444.14 Q1813.92 1442.03 1813.92 1438.42 Q1813.92 1434.81 1811.58 1432.7 Q1809.24 1430.6 1805.24 1430.6 Q1803.36 1430.6 1801.49 1431.01 Q1799.64 1431.43 1797.69 1432.31 L1797.69 1414.95 Z" fill="#000000" fill-rule="nonzero" fill-opacity="1" /><path clip-path="url(#clip510)" d="M2208.39 1445.57 L2216.03 1445.57 L2216.03 1419.21 L2207.72 1420.87 L2207.72 1416.61 L2215.98 1414.95 L2220.66 1414.95 L2220.66 1445.57 L2228.3 1445.57 L2228.3 1449.51 L2208.39 1449.51 L2208.39 1445.57 Z" fill="#000000" fill-rule="nonzero" fill-opacity="1" /><path clip-path="url(#clip510)" d="M2247.74 1418.03 Q2244.13 1418.03 2242.3 1421.59 Q2240.5 1425.13 2240.5 1432.26 Q2240.5 1439.37 2242.3 1442.93 Q2244.13 1446.48 2247.74 1446.48 Q2251.38 1446.48 2253.18 1442.93 Q2255.01 1439.37 2255.01 1432.26 Q2255.01 1425.13 2253.18 1421.59 Q2251.38 1418.03 2247.74 1418.03 M2247.74 1414.32 Q2253.55 1414.32 2256.61 1418.93 Q2259.69 1423.51 2259.69 1432.26 Q2259.69 1440.99 2256.61 1445.6 Q2253.55 1450.18 2247.74 1450.18 Q2241.93 1450.18 2238.85 1445.6 Q2235.8 1440.99 2235.8 1432.26 Q2235.8 1423.51 2238.85 1418.93 Q2241.93 1414.32 2247.74 1414.32 Z" fill="#000000" fill-rule="nonzero" fill-opacity="1" /><path clip-path="url(#clip510)" d="M2267.9 1443.63 L2272.79 1443.63 L2272.79 1449.51 L2267.9 1449.51 L2267.9 1443.63 Z" fill="#000000" fill-rule="nonzero" fill-opacity="1" /><path clip-path="url(#clip510)" d="M2292.97 1418.03 Q2289.36 1418.03 2287.53 1421.59 Q2285.73 1425.13 2285.73 1432.26 Q2285.73 1439.37 2287.53 1442.93 Q2289.36 1446.48 2292.97 1446.48 Q2296.61 1446.48 2298.41 1442.93 Q2300.24 1439.37 2300.24 1432.26 Q2300.24 1425.13 2298.41 1421.59 Q2296.61 1418.03 2292.97 1418.03 M2292.97 1414.32 Q2298.78 1414.32 2301.84 1418.93 Q2304.92 1423.51 2304.92 1432.26 Q2304.92 1440.99 2301.84 1445.6 Q2298.78 1450.18 2292.97 1450.18 Q2287.16 1450.18 2284.09 1445.6 Q2281.03 1440.99 2281.03 1432.26 Q2281.03 1423.51 2284.09 1418.93 Q2287.16 1414.32 2292.97 1414.32 Z" fill="#000000" fill-rule="nonzero" fill-opacity="1" /><path clip-path="url(#clip510)" d="M2680.29 1445.57 L2687.93 1445.57 L2687.93 1419.21 L2679.62 1420.87 L2679.62 1416.61 L2687.89 1414.95 L2692.56 1414.95 L2692.56 1445.57 L2700.2 1445.57 L2700.2 1449.51 L2680.29 1449.51 L2680.29 1445.57 Z" fill="#000000" fill-rule="nonzero" fill-opacity="1" /><path clip-path="url(#clip510)" d="M2713.67 1445.57 L2729.99 1445.57 L2729.99 1449.51 L2708.05 1449.51 L2708.05 1445.57 Q2710.71 1442.82 2715.29 1438.19 Q2719.9 1433.54 2721.08 1432.19 Q2723.33 1429.67 2724.21 1427.93 Q2725.11 1426.17 2725.11 1424.48 Q2725.11 1421.73 2723.16 1419.99 Q2721.24 1418.26 2718.14 1418.26 Q2715.94 1418.26 2713.49 1419.02 Q2711.06 1419.79 2708.28 1421.34 L2708.28 1416.61 Q2711.1 1415.48 2713.56 1414.9 Q2716.01 1414.32 2718.05 1414.32 Q2723.42 1414.32 2726.61 1417.01 Q2729.81 1419.69 2729.81 1424.18 Q2729.81 1426.31 2729 1428.23 Q2728.21 1430.13 2726.1 1432.73 Q2725.53 1433.4 2722.42 1436.61 Q2719.32 1439.81 2713.67 1445.57 Z" fill="#000000" fill-rule="nonzero" fill-opacity="1" /><path clip-path="url(#clip510)" d="M2739.81 1443.63 L2744.69 1443.63 L2744.69 1449.51 L2739.81 1449.51 L2739.81 1443.63 Z" fill="#000000" fill-rule="nonzero" fill-opacity="1" /><path clip-path="url(#clip510)" d="M2754.92 1414.95 L2773.28 1414.95 L2773.28 1418.88 L2759.21 1418.88 L2759.21 1427.36 Q2760.22 1427.01 2761.24 1426.85 Q2762.26 1426.66 2763.28 1426.66 Q2769.07 1426.66 2772.45 1429.83 Q2775.83 1433 2775.83 1438.42 Q2775.83 1444 2772.35 1447.1 Q2768.88 1450.18 2762.56 1450.18 Q2760.39 1450.18 2758.12 1449.81 Q2755.87 1449.44 2753.47 1448.7 L2753.47 1444 Q2755.55 1445.13 2757.77 1445.69 Q2759.99 1446.24 2762.47 1446.24 Q2766.47 1446.24 2768.81 1444.14 Q2771.15 1442.03 2771.15 1438.42 Q2771.15 1434.81 2768.81 1432.7 Q2766.47 1430.6 2762.47 1430.6 Q2760.59 1430.6 2758.72 1431.01 Q2756.87 1431.43 2754.92 1432.31 L2754.92 1414.95 Z" fill="#000000" fill-rule="nonzero" fill-opacity="1" /><path clip-path="url(#clip510)" d="M1485.77 1490.05 L1515.81 1490.05 L1515.81 1495.46 L1492.2 1495.46 L1492.2 1509.53 L1514.83 1509.53 L1514.83 1514.94 L1492.2 1514.94 L1492.2 1532.16 L1516.39 1532.16 L1516.39 1537.57 L1485.77 1537.57 L1485.77 1490.05 Z" fill="#000000" fill-rule="nonzero" fill-opacity="1" /><path clip-path="url(#clip510)" d="M1526.7 1488.05 L1532.56 1488.05 L1532.56 1537.57 L1526.7 1537.57 L1526.7 1488.05 Z" fill="#000000" fill-rule="nonzero" fill-opacity="1" /><path clip-path="url(#clip510)" d="M1575.3 1518.28 L1575.3 1521.15 L1548.37 1521.15 Q1548.76 1527.2 1552 1530.38 Q1555.28 1533.53 1561.11 1533.53 Q1564.48 1533.53 1567.63 1532.7 Q1570.81 1531.87 1573.93 1530.22 L1573.93 1535.76 Q1570.78 1537.09 1567.47 1537.79 Q1564.16 1538.49 1560.76 1538.49 Q1552.23 1538.49 1547.23 1533.53 Q1542.26 1528.56 1542.26 1520.1 Q1542.26 1511.35 1546.97 1506.22 Q1551.72 1501.06 1559.74 1501.06 Q1566.93 1501.06 1571.1 1505.71 Q1575.3 1510.33 1575.3 1518.28 M1569.45 1516.56 Q1569.38 1511.76 1566.74 1508.89 Q1564.13 1506.03 1559.8 1506.03 Q1554.9 1506.03 1551.94 1508.8 Q1549.01 1511.57 1548.57 1516.6 L1569.45 1516.56 Z" fill="#000000" fill-rule="nonzero" fill-opacity="1" /><path clip-path="url(#clip510)" d="M1580.71 1501.92 L1586.92 1501.92 L1598.06 1531.84 L1609.2 1501.92 L1615.41 1501.92 L1602.04 1537.57 L1594.08 1537.57 L1580.71 1501.92 Z" fill="#000000" fill-rule="nonzero" fill-opacity="1" /><path clip-path="url(#clip510)" d="M1639.69 1519.65 Q1632.59 1519.65 1629.86 1521.28 Q1627.12 1522.9 1627.12 1526.81 Q1627.12 1529.93 1629.16 1531.78 Q1631.22 1533.59 1634.76 1533.59 Q1639.63 1533.59 1642.56 1530.16 Q1645.52 1526.69 1645.52 1520.96 L1645.52 1519.65 L1639.69 1519.65 M1651.37 1517.23 L1651.37 1537.57 L1645.52 1537.57 L1645.52 1532.16 Q1643.51 1535.41 1640.52 1536.97 Q1637.53 1538.49 1633.2 1538.49 Q1627.72 1538.49 1624.48 1535.44 Q1621.26 1532.35 1621.26 1527.2 Q1621.26 1521.18 1625.27 1518.12 Q1629.31 1515.07 1637.3 1515.07 L1645.52 1515.07 L1645.52 1514.5 Q1645.52 1510.45 1642.84 1508.26 Q1640.2 1506.03 1635.39 1506.03 Q1632.34 1506.03 1629.44 1506.76 Q1626.55 1507.49 1623.87 1508.96 L1623.87 1503.55 Q1627.09 1502.31 1630.11 1501.7 Q1633.13 1501.06 1636 1501.06 Q1643.73 1501.06 1647.55 1505.07 Q1651.37 1509.09 1651.37 1517.23 Z" fill="#000000" fill-rule="nonzero" fill-opacity="1" /><path clip-path="url(#clip510)" d="M1669.23 1491.8 L1669.23 1501.92 L1681.29 1501.92 L1681.29 1506.48 L1669.23 1506.48 L1669.23 1525.83 Q1669.23 1530.19 1670.41 1531.43 Q1671.62 1532.67 1675.28 1532.67 L1681.29 1532.67 L1681.29 1537.57 L1675.28 1537.57 Q1668.5 1537.57 1665.92 1535.06 Q1663.34 1532.51 1663.34 1525.83 L1663.34 1506.48 L1659.04 1506.48 L1659.04 1501.92 L1663.34 1501.92 L1663.34 1491.8 L1669.23 1491.8 Z" fill="#000000" fill-rule="nonzero" fill-opacity="1" /><path clip-path="url(#clip510)" d="M1688.99 1501.92 L1694.85 1501.92 L1694.85 1537.57 L1688.99 1537.57 L1688.99 1501.92 M1688.99 1488.05 L1694.85 1488.05 L1694.85 1495.46 L1688.99 1495.46 L1688.99 1488.05 Z" fill="#000000" fill-rule="nonzero" fill-opacity="1" /><path clip-path="url(#clip510)" d="M1720.92 1506.03 Q1716.21 1506.03 1713.47 1509.72 Q1710.73 1513.38 1710.73 1519.78 Q1710.73 1526.18 1713.44 1529.87 Q1716.18 1533.53 1720.92 1533.53 Q1725.6 1533.53 1728.33 1529.84 Q1731.07 1526.15 1731.07 1519.78 Q1731.07 1513.45 1728.33 1509.75 Q1725.6 1506.03 1720.92 1506.03 M1720.92 1501.06 Q1728.56 1501.06 1732.92 1506.03 Q1737.28 1510.99 1737.28 1519.78 Q1737.28 1528.53 1732.92 1533.53 Q1728.56 1538.49 1720.92 1538.49 Q1713.25 1538.49 1708.89 1533.53 Q1704.56 1528.53 1704.56 1519.78 Q1704.56 1510.99 1708.89 1506.03 Q1713.25 1501.06 1720.92 1501.06 Z" fill="#000000" fill-rule="nonzero" fill-opacity="1" /><path clip-path="url(#clip510)" d="M1776.62 1516.06 L1776.62 1537.57 L1770.76 1537.57 L1770.76 1516.25 Q1770.76 1511.19 1768.79 1508.67 Q1766.81 1506.16 1762.87 1506.16 Q1758.13 1506.16 1755.39 1509.18 Q1752.65 1512.2 1752.65 1517.42 L1752.65 1537.57 L1746.76 1537.57 L1746.76 1501.92 L1752.65 1501.92 L1752.65 1507.46 Q1754.75 1504.25 1757.58 1502.66 Q1760.45 1501.06 1764.17 1501.06 Q1770.32 1501.06 1773.47 1504.88 Q1776.62 1508.67 1776.62 1516.06 Z" fill="#000000" fill-rule="nonzero" fill-opacity="1" /><path clip-path="url(#clip510)" d="M1823.09 1488.11 Q1818.82 1495.43 1816.75 1502.59 Q1814.68 1509.75 1814.68 1517.11 Q1814.68 1524.46 1816.75 1531.68 Q1818.85 1538.88 1823.09 1546.17 L1817.99 1546.17 Q1813.22 1538.69 1810.83 1531.46 Q1808.48 1524.24 1808.48 1517.11 Q1808.48 1510.01 1810.83 1502.81 Q1813.19 1495.62 1817.99 1488.11 L1823.09 1488.11 Z" fill="#000000" fill-rule="nonzero" fill-opacity="1" /><path clip-path="url(#clip510)" d="M1852.5 1488.05 L1852.5 1492.92 L1846.89 1492.92 Q1843.74 1492.92 1842.5 1494.19 Q1841.29 1495.46 1841.29 1498.77 L1841.29 1501.92 L1850.94 1501.92 L1850.94 1506.48 L1841.29 1506.48 L1841.29 1537.57 L1835.4 1537.57 L1835.4 1506.48 L1829.8 1506.48 L1829.8 1501.92 L1835.4 1501.92 L1835.4 1499.44 Q1835.4 1493.49 1838.17 1490.78 Q1840.94 1488.05 1846.96 1488.05 L1852.5 1488.05 Z" fill="#000000" fill-rule="nonzero" fill-opacity="1" /><path clip-path="url(#clip510)" d="M1862.05 1491.8 L1862.05 1501.92 L1874.11 1501.92 L1874.11 1506.48 L1862.05 1506.48 L1862.05 1525.83 Q1862.05 1530.19 1863.22 1531.43 Q1864.43 1532.67 1868.09 1532.67 L1874.11 1532.67 L1874.11 1537.57 L1868.09 1537.57 Q1861.31 1537.57 1858.74 1535.06 Q1856.16 1532.51 1856.16 1525.83 L1856.16 1506.48 L1851.86 1506.48 L1851.86 1501.92 L1856.16 1501.92 L1856.16 1491.8 L1862.05 1491.8 Z" fill="#000000" fill-rule="nonzero" fill-opacity="1" /><path clip-path="url(#clip510)" d="M1880.89 1488.11 L1885.98 1488.11 Q1890.75 1495.62 1893.11 1502.81 Q1895.5 1510.01 1895.5 1517.11 Q1895.5 1524.24 1893.11 1531.46 Q1890.75 1538.69 1885.98 1546.17 L1880.89 1546.17 Q1885.12 1538.88 1887.19 1531.68 Q1889.29 1524.46 1889.29 1517.11 Q1889.29 1509.75 1887.19 1502.59 Q1885.12 1495.43 1880.89 1488.11 Z" fill="#000000" fill-rule="nonzero" fill-opacity="1" /><polyline clip-path="url(#clip512)" style="stroke:#000000; stroke-linecap:round; stroke-linejoin:round; stroke-width:2; stroke-opacity:0.1; fill:none" points="291.501,1344.75 3089.76,1344.75 "/>
<polyline clip-path="url(#clip512)" style="stroke:#000000; stroke-linecap:round; stroke-linejoin:round; stroke-width:2; stroke-opacity:0.1; fill:none" points="291.501,1128.01 3089.76,1128.01 "/>
<polyline clip-path="url(#clip512)" style="stroke:#000000; stroke-linecap:round; stroke-linejoin:round; stroke-width:2; stroke-opacity:0.1; fill:none" points="291.501,911.272 3089.76,911.272 "/>
<polyline clip-path="url(#clip512)" style="stroke:#000000; stroke-linecap:round; stroke-linejoin:round; stroke-width:2; stroke-opacity:0.1; fill:none" points="291.501,694.533 3089.76,694.533 "/>
<polyline clip-path="url(#clip512)" style="stroke:#000000; stroke-linecap:round; stroke-linejoin:round; stroke-width:2; stroke-opacity:0.1; fill:none" points="291.501,477.793 3089.76,477.793 "/>
<polyline clip-path="url(#clip512)" style="stroke:#000000; stroke-linecap:round; stroke-linejoin:round; stroke-width:2; stroke-opacity:0.1; fill:none" points="291.501,261.054 3089.76,261.054 "/>
<polyline clip-path="url(#clip510)" style="stroke:#000000; stroke-linecap:round; stroke-linejoin:round; stroke-width:4; stroke-opacity:1; fill:none" points="291.501,1380.71 291.501,110.236 "/>
<polyline clip-path="url(#clip510)" style="stroke:#000000; stroke-linecap:round; stroke-linejoin:round; stroke-width:4; stroke-opacity:1; fill:none" points="291.501,1344.75 310.399,1344.75 "/>
<polyline clip-path="url(#clip510)" style="stroke:#000000; stroke-linecap:round; stroke-linejoin:round; stroke-width:4; stroke-opacity:1; fill:none" points="291.501,1128.01 310.399,1128.01 "/>
<polyline clip-path="url(#clip510)" style="stroke:#000000; stroke-linecap:round; stroke-linejoin:round; stroke-width:4; stroke-opacity:1; fill:none" points="291.501,911.272 310.399,911.272 "/>
<polyline clip-path="url(#clip510)" style="stroke:#000000; stroke-linecap:round; stroke-linejoin:round; stroke-width:4; stroke-opacity:1; fill:none" points="291.501,694.533 310.399,694.533 "/>
<polyline clip-path="url(#clip510)" style="stroke:#000000; stroke-linecap:round; stroke-linejoin:round; stroke-width:4; stroke-opacity:1; fill:none" points="291.501,477.793 310.399,477.793 "/>
<polyline clip-path="url(#clip510)" style="stroke:#000000; stroke-linecap:round; stroke-linejoin:round; stroke-width:4; stroke-opacity:1; fill:none" points="291.501,261.054 310.399,261.054 "/>
<path clip-path="url(#clip510)" d="M231.557 1330.55 Q227.946 1330.55 226.117 1334.11 Q224.312 1337.66 224.312 1344.79 Q224.312 1351.89 226.117 1355.46 Q227.946 1359 231.557 1359 Q235.191 1359 236.997 1355.46 Q238.826 1351.89 238.826 1344.79 Q238.826 1337.66 236.997 1334.11 Q235.191 1330.55 231.557 1330.55 M231.557 1326.85 Q237.367 1326.85 240.423 1331.45 Q243.501 1336.04 243.501 1344.79 Q243.501 1353.51 240.423 1358.12 Q237.367 1362.7 231.557 1362.7 Q225.747 1362.7 222.668 1358.12 Q219.613 1353.51 219.613 1344.79 Q219.613 1336.04 222.668 1331.45 Q225.747 1326.85 231.557 1326.85 Z" fill="#000000" fill-rule="nonzero" fill-opacity="1" /><path clip-path="url(#clip510)" d="M196.418 1141.36 L212.738 1141.36 L212.738 1145.29 L190.793 1145.29 L190.793 1141.36 Q193.455 1138.6 198.039 1133.97 Q202.645 1129.32 203.826 1127.98 Q206.071 1125.45 206.951 1123.72 Q207.854 1121.96 207.854 1120.27 Q207.854 1117.51 205.909 1115.78 Q203.988 1114.04 200.886 1114.04 Q198.687 1114.04 196.233 1114.81 Q193.803 1115.57 191.025 1117.12 L191.025 1112.4 Q193.849 1111.26 196.303 1110.69 Q198.756 1110.11 200.793 1110.11 Q206.164 1110.11 209.358 1112.79 Q212.553 1115.48 212.553 1119.97 Q212.553 1122.1 211.742 1124.02 Q210.955 1125.92 208.849 1128.51 Q208.27 1129.18 205.168 1132.4 Q202.067 1135.59 196.418 1141.36 Z" fill="#000000" fill-rule="nonzero" fill-opacity="1" /><path clip-path="url(#clip510)" d="M222.599 1110.73 L240.955 1110.73 L240.955 1114.67 L226.881 1114.67 L226.881 1123.14 Q227.9 1122.79 228.918 1122.63 Q229.937 1122.44 230.955 1122.44 Q236.742 1122.44 240.122 1125.62 Q243.501 1128.79 243.501 1134.2 Q243.501 1139.78 240.029 1142.88 Q236.557 1145.96 230.238 1145.96 Q228.062 1145.96 225.793 1145.59 Q223.548 1145.22 221.14 1144.48 L221.14 1139.78 Q223.224 1140.92 225.446 1141.47 Q227.668 1142.03 230.145 1142.03 Q234.15 1142.03 236.488 1139.92 Q238.826 1137.81 238.826 1134.2 Q238.826 1130.59 236.488 1128.49 Q234.15 1126.38 230.145 1126.38 Q228.27 1126.38 226.395 1126.8 Q224.543 1127.21 222.599 1128.09 L222.599 1110.73 Z" fill="#000000" fill-rule="nonzero" fill-opacity="1" /><path clip-path="url(#clip510)" d="M191.442 893.992 L209.798 893.992 L209.798 897.927 L195.724 897.927 L195.724 906.4 Q196.742 906.052 197.761 905.89 Q198.779 905.705 199.798 905.705 Q205.585 905.705 208.965 908.876 Q212.344 912.048 212.344 917.464 Q212.344 923.043 208.872 926.145 Q205.4 929.223 199.08 929.223 Q196.905 929.223 194.636 928.853 Q192.391 928.483 189.983 927.742 L189.983 923.043 Q192.067 924.177 194.289 924.733 Q196.511 925.288 198.988 925.288 Q202.992 925.288 205.33 923.182 Q207.668 921.075 207.668 917.464 Q207.668 913.853 205.33 911.747 Q202.992 909.64 198.988 909.64 Q197.113 909.64 195.238 910.057 Q193.386 910.474 191.442 911.353 L191.442 893.992 Z" fill="#000000" fill-rule="nonzero" fill-opacity="1" /><path clip-path="url(#clip510)" d="M231.557 897.071 Q227.946 897.071 226.117 900.636 Q224.312 904.177 224.312 911.307 Q224.312 918.413 226.117 921.978 Q227.946 925.52 231.557 925.52 Q235.191 925.52 236.997 921.978 Q238.826 918.413 238.826 911.307 Q238.826 904.177 236.997 900.636 Q235.191 897.071 231.557 897.071 M231.557 893.367 Q237.367 893.367 240.423 897.974 Q243.501 902.557 243.501 911.307 Q243.501 920.034 240.423 924.64 Q237.367 929.223 231.557 929.223 Q225.747 929.223 222.668 924.64 Q219.613 920.034 219.613 911.307 Q219.613 902.557 222.668 897.974 Q225.747 893.367 231.557 893.367 Z" fill="#000000" fill-rule="nonzero" fill-opacity="1" /><path clip-path="url(#clip510)" d="M191.21 677.253 L213.432 677.253 L213.432 679.244 L200.886 711.813 L196.002 711.813 L207.807 681.188 L191.21 681.188 L191.21 677.253 Z" fill="#000000" fill-rule="nonzero" fill-opacity="1" /><path clip-path="url(#clip510)" d="M222.599 677.253 L240.955 677.253 L240.955 681.188 L226.881 681.188 L226.881 689.66 Q227.9 689.313 228.918 689.151 Q229.937 688.966 230.955 688.966 Q236.742 688.966 240.122 692.137 Q243.501 695.308 243.501 700.725 Q243.501 706.304 240.029 709.405 Q236.557 712.484 230.238 712.484 Q228.062 712.484 225.793 712.114 Q223.548 711.743 221.14 711.003 L221.14 706.304 Q223.224 707.438 225.446 707.993 Q227.668 708.549 230.145 708.549 Q234.15 708.549 236.488 706.442 Q238.826 704.336 238.826 700.725 Q238.826 697.114 236.488 695.007 Q234.15 692.901 230.145 692.901 Q228.27 692.901 226.395 693.318 Q224.543 693.734 222.599 694.614 L222.599 677.253 Z" fill="#000000" fill-rule="nonzero" fill-opacity="1" /><path clip-path="url(#clip510)" d="M162.044 491.138 L169.682 491.138 L169.682 464.773 L161.372 466.439 L161.372 462.18 L169.636 460.513 L174.312 460.513 L174.312 491.138 L181.951 491.138 L181.951 495.073 L162.044 495.073 L162.044 491.138 Z" fill="#000000" fill-rule="nonzero" fill-opacity="1" /><path clip-path="url(#clip510)" d="M201.395 463.592 Q197.784 463.592 195.955 467.157 Q194.15 470.699 194.15 477.828 Q194.15 484.935 195.955 488.499 Q197.784 492.041 201.395 492.041 Q205.029 492.041 206.835 488.499 Q208.664 484.935 208.664 477.828 Q208.664 470.699 206.835 467.157 Q205.029 463.592 201.395 463.592 M201.395 459.888 Q207.205 459.888 210.261 464.495 Q213.34 469.078 213.34 477.828 Q213.34 486.555 210.261 491.161 Q207.205 495.745 201.395 495.745 Q195.585 495.745 192.506 491.161 Q189.451 486.555 189.451 477.828 Q189.451 469.078 192.506 464.495 Q195.585 459.888 201.395 459.888 Z" fill="#000000" fill-rule="nonzero" fill-opacity="1" /><path clip-path="url(#clip510)" d="M231.557 463.592 Q227.946 463.592 226.117 467.157 Q224.312 470.699 224.312 477.828 Q224.312 484.935 226.117 488.499 Q227.946 492.041 231.557 492.041 Q235.191 492.041 236.997 488.499 Q238.826 484.935 238.826 477.828 Q238.826 470.699 236.997 467.157 Q235.191 463.592 231.557 463.592 M231.557 459.888 Q237.367 459.888 240.423 464.495 Q243.501 469.078 243.501 477.828 Q243.501 486.555 240.423 491.161 Q237.367 495.745 231.557 495.745 Q225.747 495.745 222.668 491.161 Q219.613 486.555 219.613 477.828 Q219.613 469.078 222.668 464.495 Q225.747 459.888 231.557 459.888 Z" fill="#000000" fill-rule="nonzero" fill-opacity="1" /><path clip-path="url(#clip510)" d="M163.039 274.399 L170.678 274.399 L170.678 248.033 L162.368 249.7 L162.368 245.441 L170.631 243.774 L175.307 243.774 L175.307 274.399 L182.946 274.399 L182.946 278.334 L163.039 278.334 L163.039 274.399 Z" fill="#000000" fill-rule="nonzero" fill-opacity="1" /><path clip-path="url(#clip510)" d="M196.418 274.399 L212.738 274.399 L212.738 278.334 L190.793 278.334 L190.793 274.399 Q193.455 271.644 198.039 267.015 Q202.645 262.362 203.826 261.019 Q206.071 258.496 206.951 256.76 Q207.854 255.001 207.854 253.311 Q207.854 250.556 205.909 248.82 Q203.988 247.084 200.886 247.084 Q198.687 247.084 196.233 247.848 Q193.803 248.612 191.025 250.163 L191.025 245.441 Q193.849 244.306 196.303 243.728 Q198.756 243.149 200.793 243.149 Q206.164 243.149 209.358 245.834 Q212.553 248.519 212.553 253.01 Q212.553 255.14 211.742 257.061 Q210.955 258.959 208.849 261.552 Q208.27 262.223 205.168 265.441 Q202.067 268.635 196.418 274.399 Z" fill="#000000" fill-rule="nonzero" fill-opacity="1" /><path clip-path="url(#clip510)" d="M222.599 243.774 L240.955 243.774 L240.955 247.709 L226.881 247.709 L226.881 256.181 Q227.9 255.834 228.918 255.672 Q229.937 255.487 230.955 255.487 Q236.742 255.487 240.122 258.658 Q243.501 261.829 243.501 267.246 Q243.501 272.825 240.029 275.927 Q236.557 279.005 230.238 279.005 Q228.062 279.005 225.793 278.635 Q223.548 278.265 221.14 277.524 L221.14 272.825 Q223.224 273.959 225.446 274.515 Q227.668 275.07 230.145 275.07 Q234.15 275.07 236.488 272.964 Q238.826 270.857 238.826 267.246 Q238.826 263.635 236.488 261.529 Q234.15 259.422 230.145 259.422 Q228.27 259.422 226.395 259.839 Q224.543 260.255 222.599 261.135 L222.599 243.774 Z" fill="#000000" fill-rule="nonzero" fill-opacity="1" /><path clip-path="url(#clip510)" d="M55.2566 1050.23 L62.036 1050.23 Q59.0123 1053.48 57.5164 1057.17 Q56.0204 1060.83 56.0204 1064.97 Q56.0204 1073.11 61.0175 1077.44 Q65.9828 1081.77 75.404 1081.77 Q84.7934 1081.77 89.7905 1077.44 Q94.7558 1073.11 94.7558 1064.97 Q94.7558 1060.83 93.2598 1057.17 Q91.7639 1053.48 88.7402 1050.23 L95.456 1050.23 Q97.7477 1053.6 98.8935 1057.39 Q100.039 1061.15 100.039 1065.35 Q100.039 1076.14 93.4508 1082.35 Q86.8305 1088.55 75.404 1088.55 Q63.9458 1088.55 57.3572 1082.35 Q50.7369 1076.14 50.7369 1065.35 Q50.7369 1061.08 51.8827 1057.33 Q52.9967 1053.54 55.2566 1050.23 Z" fill="#000000" fill-rule="nonzero" fill-opacity="1" /><path clip-path="url(#clip510)" d="M67.5742 1026.74 Q67.5742 1031.45 71.2663 1034.19 Q74.9266 1036.93 81.3241 1036.93 Q87.7217 1036.93 91.4138 1034.22 Q95.0741 1031.48 95.0741 1026.74 Q95.0741 1022.06 91.3819 1019.32 Q87.6898 1016.59 81.3241 1016.59 Q74.9903 1016.59 71.2981 1019.32 Q67.5742 1022.06 67.5742 1026.74 M62.609 1026.74 Q62.609 1019.1 67.5742 1014.74 Q72.5395 1010.38 81.3241 1010.38 Q90.077 1010.38 95.0741 1014.74 Q100.039 1019.1 100.039 1026.74 Q100.039 1034.41 95.0741 1038.77 Q90.077 1043.1 81.3241 1043.1 Q72.5395 1043.1 67.5742 1038.77 Q62.609 1034.41 62.609 1026.74 Z" fill="#000000" fill-rule="nonzero" fill-opacity="1" /><path clip-path="url(#clip510)" d="M64.5187 977.948 L70.0568 977.948 Q68.7837 980.43 68.1471 983.104 Q67.5106 985.777 67.5106 988.642 Q67.5106 993.002 68.8473 995.199 Q70.1841 997.363 72.8577 997.363 Q74.8948 997.363 76.0724 995.803 Q77.2183 994.244 78.2686 989.533 L78.7142 987.528 Q80.051 981.29 82.5018 978.68 Q84.9208 976.038 89.2813 976.038 Q94.2465 976.038 97.1429 979.985 Q100.039 983.9 100.039 990.774 Q100.039 993.639 99.4664 996.758 Q98.9253 999.846 97.8113 1003.28 L91.7639 1003.28 Q93.4508 1000.04 94.3102 996.886 Q95.1377 993.735 95.1377 990.647 Q95.1377 986.509 93.7373 984.281 Q92.305 982.053 89.7269 982.053 Q87.3397 982.053 86.0666 983.677 Q84.7934 985.268 83.6158 990.711 L83.1384 992.748 Q81.9925 998.191 79.6372 1000.61 Q77.2501 1003.03 73.1124 1003.03 Q68.0835 1003.03 65.3462 999.464 Q62.609 995.899 62.609 989.342 Q62.609 986.096 63.0864 983.231 Q63.5638 980.367 64.5187 977.948 Z" fill="#000000" fill-rule="nonzero" fill-opacity="1" /><path clip-path="url(#clip510)" d="M53.3469 960.919 L63.4683 960.919 L63.4683 948.856 L68.0198 948.856 L68.0198 960.919 L87.3716 960.919 Q91.7321 960.919 92.9734 959.742 Q94.2147 958.532 94.2147 954.872 L94.2147 948.856 L99.1163 948.856 L99.1163 954.872 Q99.1163 961.651 96.6018 964.229 Q94.0555 966.808 87.3716 966.808 L68.0198 966.808 L68.0198 971.104 L63.4683 971.104 L63.4683 966.808 L53.3469 966.808 L53.3469 960.919 Z" fill="#000000" fill-rule="nonzero" fill-opacity="1" /><path clip-path="url(#clip510)" d="M49.6547 906.365 Q56.9753 910.63 64.1367 912.699 Q71.2981 914.768 78.6505 914.768 Q86.0029 914.768 93.228 912.699 Q100.421 910.598 107.71 906.365 L107.71 911.458 Q100.23 916.232 93.0052 918.619 Q85.7801 920.975 78.6505 920.975 Q71.5528 920.975 64.3595 918.619 Q57.1663 916.264 49.6547 911.458 L49.6547 906.365 Z" fill="#000000" fill-rule="nonzero" fill-opacity="1" /><path clip-path="url(#clip510)" d="M51.5963 901.336 L51.5963 861.137 L57.0071 861.137 L57.0071 878.006 L99.1163 878.006 L99.1163 884.467 L57.0071 884.467 L57.0071 901.336 L51.5963 901.336 Z" fill="#000000" fill-rule="nonzero" fill-opacity="1" /><path clip-path="url(#clip510)" d="M77.6002 825.553 L99.1163 825.553 L99.1163 831.409 L77.7912 831.409 Q72.7304 831.409 70.216 833.382 Q67.7015 835.356 67.7015 839.302 Q67.7015 844.045 70.7252 846.782 Q73.7489 849.519 78.9688 849.519 L99.1163 849.519 L99.1163 855.408 L49.5911 855.408 L49.5911 849.519 L69.0065 849.519 Q65.7918 847.419 64.2004 844.586 Q62.609 841.721 62.609 837.998 Q62.609 831.855 66.4284 828.704 Q70.216 825.553 77.6002 825.553 Z" fill="#000000" fill-rule="nonzero" fill-opacity="1" /><path clip-path="url(#clip510)" d="M67.5742 800.058 Q67.5742 804.769 71.2663 807.506 Q74.9266 810.243 81.3241 810.243 Q87.7217 810.243 91.4138 807.538 Q95.0741 804.8 95.0741 800.058 Q95.0741 795.379 91.3819 792.642 Q87.6898 789.905 81.3241 789.905 Q74.9903 789.905 71.2981 792.642 Q67.5742 795.379 67.5742 800.058 M62.609 800.058 Q62.609 792.419 67.5742 788.059 Q72.5395 783.698 81.3241 783.698 Q90.077 783.698 95.0741 788.059 Q100.039 792.419 100.039 800.058 Q100.039 807.729 95.0741 812.089 Q90.077 816.418 81.3241 816.418 Q72.5395 816.418 67.5742 812.089 Q62.609 807.729 62.609 800.058 Z" fill="#000000" fill-rule="nonzero" fill-opacity="1" /><path clip-path="url(#clip510)" d="M85.0481 774.595 L63.4683 774.595 L63.4683 768.739 L84.8253 768.739 Q89.886 768.739 92.4323 766.765 Q94.9467 764.792 94.9467 760.845 Q94.9467 756.103 91.923 753.365 Q88.8993 750.596 83.6794 750.596 L63.4683 750.596 L63.4683 744.74 L99.1163 744.74 L99.1163 750.596 L93.6418 750.596 Q96.8883 752.729 98.4797 755.562 Q100.039 758.363 100.039 762.086 Q100.039 768.229 96.2199 771.412 Q92.4005 774.595 85.0481 774.595 M62.609 759.858 L62.609 759.858 Z" fill="#000000" fill-rule="nonzero" fill-opacity="1" /><path clip-path="url(#clip510)" d="M64.5187 709.951 L70.0568 709.951 Q68.7837 712.434 68.1471 715.108 Q67.5106 717.781 67.5106 720.646 Q67.5106 725.006 68.8473 727.202 Q70.1841 729.367 72.8577 729.367 Q74.8948 729.367 76.0724 727.807 Q77.2183 726.248 78.2686 721.537 L78.7142 719.532 Q80.051 713.293 82.5018 710.683 Q84.9208 708.042 89.2813 708.042 Q94.2465 708.042 97.1429 711.988 Q100.039 715.903 100.039 722.778 Q100.039 725.643 99.4664 728.762 Q98.9253 731.849 97.8113 735.287 L91.7639 735.287 Q93.4508 732.04 94.3102 728.889 Q95.1377 725.738 95.1377 722.651 Q95.1377 718.513 93.7373 716.285 Q92.305 714.057 89.7269 714.057 Q87.3397 714.057 86.0666 715.68 Q84.7934 717.272 83.6158 722.715 L83.1384 724.752 Q81.9925 730.194 79.6372 732.613 Q77.2501 735.032 73.1124 735.032 Q68.0835 735.032 65.3462 731.467 Q62.609 727.903 62.609 721.346 Q62.609 718.099 63.0864 715.235 Q63.5638 712.37 64.5187 709.951 Z" fill="#000000" fill-rule="nonzero" fill-opacity="1" /><path clip-path="url(#clip510)" d="M81.1968 682.515 Q81.1968 689.613 82.8201 692.35 Q84.4433 695.087 88.3582 695.087 Q91.4774 695.087 93.3235 693.05 Q95.1377 690.982 95.1377 687.449 Q95.1377 682.579 91.7002 679.651 Q88.2309 676.691 82.5018 676.691 L81.1968 676.691 L81.1968 682.515 M78.7779 670.834 L99.1163 670.834 L99.1163 676.691 L93.7054 676.691 Q96.9519 678.696 98.5115 681.688 Q100.039 684.679 100.039 689.008 Q100.039 694.483 96.9838 697.729 Q93.8964 700.944 88.7402 700.944 Q82.7246 700.944 79.669 696.933 Q76.6135 692.891 76.6135 684.902 L76.6135 676.691 L76.0406 676.691 Q71.9984 676.691 69.8022 679.364 Q67.5742 682.006 67.5742 686.812 Q67.5742 689.868 68.3063 692.764 Q69.0383 695.66 70.5024 698.334 L65.0916 698.334 Q63.8503 695.119 63.2455 692.096 Q62.609 689.072 62.609 686.207 Q62.609 678.473 66.6194 674.653 Q70.6297 670.834 78.7779 670.834 Z" fill="#000000" fill-rule="nonzero" fill-opacity="1" /><path clip-path="url(#clip510)" d="M77.6002 629.139 L99.1163 629.139 L99.1163 634.995 L77.7912 634.995 Q72.7304 634.995 70.216 636.968 Q67.7015 638.942 67.7015 642.889 Q67.7015 647.631 70.7252 650.368 Q73.7489 653.106 78.9688 653.106 L99.1163 653.106 L99.1163 658.994 L63.4683 658.994 L63.4683 653.106 L69.0065 653.106 Q65.7918 651.005 64.2004 648.172 Q62.609 645.308 62.609 641.584 Q62.609 635.441 66.4284 632.29 Q70.216 629.139 77.6002 629.139 Z" fill="#000000" fill-rule="nonzero" fill-opacity="1" /><path clip-path="url(#clip510)" d="M68.8792 594 L49.5911 594 L49.5911 588.144 L99.1163 588.144 L99.1163 594 L93.7691 594 Q96.9519 595.846 98.5115 598.679 Q100.039 601.48 100.039 605.426 Q100.039 611.888 94.8831 615.962 Q89.7269 620.004 81.3241 620.004 Q72.9214 620.004 67.7652 615.962 Q62.609 611.888 62.609 605.426 Q62.609 601.48 64.1686 598.679 Q65.6963 595.846 68.8792 594 M81.3241 613.956 Q87.7853 613.956 91.4774 611.315 Q95.1377 608.641 95.1377 603.994 Q95.1377 599.347 91.4774 596.674 Q87.7853 594 81.3241 594 Q74.8629 594 71.2027 596.674 Q67.5106 599.347 67.5106 603.994 Q67.5106 608.641 71.2027 611.315 Q74.8629 613.956 81.3241 613.956 Z" fill="#000000" fill-rule="nonzero" fill-opacity="1" /><path clip-path="url(#clip510)" d="M51.5963 555.838 L51.5963 549.376 L80.4648 549.376 Q88.1036 549.376 91.4774 546.607 Q94.8194 543.838 94.8194 537.632 Q94.8194 531.457 91.4774 528.688 Q88.1036 525.919 80.4648 525.919 L51.5963 525.919 L51.5963 519.458 L81.2605 519.458 Q90.5544 519.458 95.2969 524.073 Q100.039 528.656 100.039 537.632 Q100.039 546.639 95.2969 551.254 Q90.5544 555.838 81.2605 555.838 L51.5963 555.838 Z" fill="#000000" fill-rule="nonzero" fill-opacity="1" /><path clip-path="url(#clip510)" d="M53.1559 478.908 L59.4261 478.908 Q57.6755 482.568 56.8162 485.815 Q55.9568 489.061 55.9568 492.085 Q55.9568 497.337 57.9938 500.201 Q60.0308 503.034 63.7866 503.034 Q66.9376 503.034 68.5609 501.156 Q70.1523 499.246 71.139 493.963 L71.9347 490.08 Q73.3033 482.887 76.7727 479.481 Q80.2101 476.043 86.0029 476.043 Q92.9097 476.043 96.4745 480.69 Q100.039 485.306 100.039 494.249 Q100.039 497.623 99.2754 501.443 Q98.5115 505.23 97.0156 509.304 L90.3953 509.304 Q92.5914 505.389 93.7054 501.634 Q94.8194 497.878 94.8194 494.249 Q94.8194 488.743 92.6551 485.751 Q90.4908 482.759 86.4804 482.759 Q82.9792 482.759 81.0058 484.924 Q79.0325 487.056 78.0458 491.958 L77.2819 495.873 Q75.8496 503.066 72.7941 506.281 Q69.7385 509.495 64.2959 509.495 Q57.9938 509.495 54.3654 505.071 Q50.7369 500.615 50.7369 492.817 Q50.7369 489.475 51.3417 486.006 Q51.9464 482.536 53.1559 478.908 Z" fill="#000000" fill-rule="nonzero" fill-opacity="1" /><path clip-path="url(#clip510)" d="M56.8798 459.588 L93.8327 459.588 L93.8327 451.822 Q93.8327 441.987 89.3768 437.435 Q84.9208 432.852 75.3085 432.852 Q65.76 432.852 61.3358 437.435 Q56.8798 441.987 56.8798 451.822 L56.8798 459.588 M51.5963 466.017 L51.5963 452.809 Q51.5963 438.995 57.3572 432.534 Q63.0864 426.073 75.3085 426.073 Q87.5944 426.073 93.3553 432.566 Q99.1163 439.059 99.1163 452.809 L99.1163 466.017 L51.5963 466.017 Z" fill="#000000" fill-rule="nonzero" fill-opacity="1" /><path clip-path="url(#clip510)" d="M49.6547 417.002 L49.6547 411.909 Q57.1663 407.135 64.3595 404.779 Q71.5528 402.392 78.6505 402.392 Q85.7801 402.392 93.0052 404.779 Q100.23 407.135 107.71 411.909 L107.71 417.002 Q100.421 412.768 93.228 410.699 Q86.0029 408.599 78.6505 408.599 Q71.2981 408.599 64.1367 410.699 Q56.9753 412.768 49.6547 417.002 Z" fill="#000000" fill-rule="nonzero" fill-opacity="1" /><circle clip-path="url(#clip512)" cx="370.698" cy="1344.75" r="14.4" fill="#009af9" fill-rule="evenodd" fill-opacity="1" stroke="#000000" stroke-opacity="1" stroke-width="3.2"/>
<circle clip-path="url(#clip512)" cx="417.838" cy="444.265" r="14.4" fill="#009af9" fill-rule="evenodd" fill-opacity="1" stroke="#000000" stroke-opacity="1" stroke-width="3.2"/>
<circle clip-path="url(#clip512)" cx="464.979" cy="443.306" r="14.4" fill="#009af9" fill-rule="evenodd" fill-opacity="1" stroke="#000000" stroke-opacity="1" stroke-width="3.2"/>
<circle clip-path="url(#clip512)" cx="512.119" cy="442.348" r="14.4" fill="#009af9" fill-rule="evenodd" fill-opacity="1" stroke="#000000" stroke-opacity="1" stroke-width="3.2"/>
<circle clip-path="url(#clip512)" cx="559.26" cy="441.39" r="14.4" fill="#009af9" fill-rule="evenodd" fill-opacity="1" stroke="#000000" stroke-opacity="1" stroke-width="3.2"/>
<circle clip-path="url(#clip512)" cx="606.4" cy="440.432" r="14.4" fill="#009af9" fill-rule="evenodd" fill-opacity="1" stroke="#000000" stroke-opacity="1" stroke-width="3.2"/>
<circle clip-path="url(#clip512)" cx="653.541" cy="439.473" r="14.4" fill="#009af9" fill-rule="evenodd" fill-opacity="1" stroke="#000000" stroke-opacity="1" stroke-width="3.2"/>
<circle clip-path="url(#clip512)" cx="700.681" cy="438.515" r="14.4" fill="#009af9" fill-rule="evenodd" fill-opacity="1" stroke="#000000" stroke-opacity="1" stroke-width="3.2"/>
<circle clip-path="url(#clip512)" cx="747.822" cy="437.557" r="14.4" fill="#009af9" fill-rule="evenodd" fill-opacity="1" stroke="#000000" stroke-opacity="1" stroke-width="3.2"/>
<circle clip-path="url(#clip512)" cx="794.962" cy="436.599" r="14.4" fill="#009af9" fill-rule="evenodd" fill-opacity="1" stroke="#000000" stroke-opacity="1" stroke-width="3.2"/>
<circle clip-path="url(#clip512)" cx="842.103" cy="435.64" r="14.4" fill="#009af9" fill-rule="evenodd" fill-opacity="1" stroke="#000000" stroke-opacity="1" stroke-width="3.2"/>
<circle clip-path="url(#clip512)" cx="889.243" cy="434.682" r="14.4" fill="#009af9" fill-rule="evenodd" fill-opacity="1" stroke="#000000" stroke-opacity="1" stroke-width="3.2"/>
<circle clip-path="url(#clip512)" cx="936.384" cy="433.724" r="14.4" fill="#009af9" fill-rule="evenodd" fill-opacity="1" stroke="#000000" stroke-opacity="1" stroke-width="3.2"/>
<circle clip-path="url(#clip512)" cx="983.525" cy="432.766" r="14.4" fill="#009af9" fill-rule="evenodd" fill-opacity="1" stroke="#000000" stroke-opacity="1" stroke-width="3.2"/>
<circle clip-path="url(#clip512)" cx="1030.67" cy="431.807" r="14.4" fill="#009af9" fill-rule="evenodd" fill-opacity="1" stroke="#000000" stroke-opacity="1" stroke-width="3.2"/>
<circle clip-path="url(#clip512)" cx="1077.81" cy="430.849" r="14.4" fill="#009af9" fill-rule="evenodd" fill-opacity="1" stroke="#000000" stroke-opacity="1" stroke-width="3.2"/>
<circle clip-path="url(#clip512)" cx="1124.95" cy="429.891" r="14.4" fill="#009af9" fill-rule="evenodd" fill-opacity="1" stroke="#000000" stroke-opacity="1" stroke-width="3.2"/>
<circle clip-path="url(#clip512)" cx="1172.09" cy="428.932" r="14.4" fill="#009af9" fill-rule="evenodd" fill-opacity="1" stroke="#000000" stroke-opacity="1" stroke-width="3.2"/>
<circle clip-path="url(#clip512)" cx="1219.23" cy="427.974" r="14.4" fill="#009af9" fill-rule="evenodd" fill-opacity="1" stroke="#000000" stroke-opacity="1" stroke-width="3.2"/>
<circle clip-path="url(#clip512)" cx="1266.37" cy="427.016" r="14.4" fill="#009af9" fill-rule="evenodd" fill-opacity="1" stroke="#000000" stroke-opacity="1" stroke-width="3.2"/>
<circle clip-path="url(#clip512)" cx="1313.51" cy="426.058" r="14.4" fill="#009af9" fill-rule="evenodd" fill-opacity="1" stroke="#000000" stroke-opacity="1" stroke-width="3.2"/>
<circle clip-path="url(#clip512)" cx="1360.65" cy="423.659" r="14.4" fill="#009af9" fill-rule="evenodd" fill-opacity="1" stroke="#000000" stroke-opacity="1" stroke-width="3.2"/>
<circle clip-path="url(#clip512)" cx="1407.79" cy="421.26" r="14.4" fill="#009af9" fill-rule="evenodd" fill-opacity="1" stroke="#000000" stroke-opacity="1" stroke-width="3.2"/>
<circle clip-path="url(#clip512)" cx="1454.93" cy="418.861" r="14.4" fill="#009af9" fill-rule="evenodd" fill-opacity="1" stroke="#000000" stroke-opacity="1" stroke-width="3.2"/>
<circle clip-path="url(#clip512)" cx="1502.07" cy="416.462" r="14.4" fill="#009af9" fill-rule="evenodd" fill-opacity="1" stroke="#000000" stroke-opacity="1" stroke-width="3.2"/>
<circle clip-path="url(#clip512)" cx="1549.21" cy="414.064" r="14.4" fill="#009af9" fill-rule="evenodd" fill-opacity="1" stroke="#000000" stroke-opacity="1" stroke-width="3.2"/>
<circle clip-path="url(#clip512)" cx="1596.35" cy="411.665" r="14.4" fill="#009af9" fill-rule="evenodd" fill-opacity="1" stroke="#000000" stroke-opacity="1" stroke-width="3.2"/>
<circle clip-path="url(#clip512)" cx="1643.49" cy="409.266" r="14.4" fill="#009af9" fill-rule="evenodd" fill-opacity="1" stroke="#000000" stroke-opacity="1" stroke-width="3.2"/>
<circle clip-path="url(#clip512)" cx="1690.63" cy="406.867" r="14.4" fill="#009af9" fill-rule="evenodd" fill-opacity="1" stroke="#000000" stroke-opacity="1" stroke-width="3.2"/>
<circle clip-path="url(#clip512)" cx="1737.77" cy="404.468" r="14.4" fill="#009af9" fill-rule="evenodd" fill-opacity="1" stroke="#000000" stroke-opacity="1" stroke-width="3.2"/>
<circle clip-path="url(#clip512)" cx="1784.91" cy="402.069" r="14.4" fill="#009af9" fill-rule="evenodd" fill-opacity="1" stroke="#000000" stroke-opacity="1" stroke-width="3.2"/>
<circle clip-path="url(#clip512)" cx="1832.05" cy="399.67" r="14.4" fill="#009af9" fill-rule="evenodd" fill-opacity="1" stroke="#000000" stroke-opacity="1" stroke-width="3.2"/>
<circle clip-path="url(#clip512)" cx="1879.19" cy="397.272" r="14.4" fill="#009af9" fill-rule="evenodd" fill-opacity="1" stroke="#000000" stroke-opacity="1" stroke-width="3.2"/>
<circle clip-path="url(#clip512)" cx="1926.34" cy="394.873" r="14.4" fill="#009af9" fill-rule="evenodd" fill-opacity="1" stroke="#000000" stroke-opacity="1" stroke-width="3.2"/>
<circle clip-path="url(#clip512)" cx="1973.48" cy="392.474" r="14.4" fill="#009af9" fill-rule="evenodd" fill-opacity="1" stroke="#000000" stroke-opacity="1" stroke-width="3.2"/>
<circle clip-path="url(#clip512)" cx="2020.62" cy="381.279" r="14.4" fill="#009af9" fill-rule="evenodd" fill-opacity="1" stroke="#000000" stroke-opacity="1" stroke-width="3.2"/>
<circle clip-path="url(#clip512)" cx="2067.76" cy="370.085" r="14.4" fill="#009af9" fill-rule="evenodd" fill-opacity="1" stroke="#000000" stroke-opacity="1" stroke-width="3.2"/>
<circle clip-path="url(#clip512)" cx="2114.9" cy="358.89" r="14.4" fill="#009af9" fill-rule="evenodd" fill-opacity="1" stroke="#000000" stroke-opacity="1" stroke-width="3.2"/>
<circle clip-path="url(#clip512)" cx="2162.04" cy="347.696" r="14.4" fill="#009af9" fill-rule="evenodd" fill-opacity="1" stroke="#000000" stroke-opacity="1" stroke-width="3.2"/>
<circle clip-path="url(#clip512)" cx="2209.18" cy="336.501" r="14.4" fill="#009af9" fill-rule="evenodd" fill-opacity="1" stroke="#000000" stroke-opacity="1" stroke-width="3.2"/>
<circle clip-path="url(#clip512)" cx="2256.32" cy="325.306" r="14.4" fill="#009af9" fill-rule="evenodd" fill-opacity="1" stroke="#000000" stroke-opacity="1" stroke-width="3.2"/>
<circle clip-path="url(#clip512)" cx="2303.46" cy="314.112" r="14.4" fill="#009af9" fill-rule="evenodd" fill-opacity="1" stroke="#000000" stroke-opacity="1" stroke-width="3.2"/>
<circle clip-path="url(#clip512)" cx="2350.6" cy="302.917" r="14.4" fill="#009af9" fill-rule="evenodd" fill-opacity="1" stroke="#000000" stroke-opacity="1" stroke-width="3.2"/>
<circle clip-path="url(#clip512)" cx="2397.74" cy="291.723" r="14.4" fill="#009af9" fill-rule="evenodd" fill-opacity="1" stroke="#000000" stroke-opacity="1" stroke-width="3.2"/>
<circle clip-path="url(#clip512)" cx="2444.88" cy="280.528" r="14.4" fill="#009af9" fill-rule="evenodd" fill-opacity="1" stroke="#000000" stroke-opacity="1" stroke-width="3.2"/>
<circle clip-path="url(#clip512)" cx="2492.02" cy="269.333" r="14.4" fill="#009af9" fill-rule="evenodd" fill-opacity="1" stroke="#000000" stroke-opacity="1" stroke-width="3.2"/>
<circle clip-path="url(#clip512)" cx="2539.16" cy="258.139" r="14.4" fill="#009af9" fill-rule="evenodd" fill-opacity="1" stroke="#000000" stroke-opacity="1" stroke-width="3.2"/>
<circle clip-path="url(#clip512)" cx="2586.3" cy="246.944" r="14.4" fill="#009af9" fill-rule="evenodd" fill-opacity="1" stroke="#000000" stroke-opacity="1" stroke-width="3.2"/>
<circle clip-path="url(#clip512)" cx="2633.44" cy="235.75" r="14.4" fill="#009af9" fill-rule="evenodd" fill-opacity="1" stroke="#000000" stroke-opacity="1" stroke-width="3.2"/>
<circle clip-path="url(#clip512)" cx="2680.58" cy="224.555" r="14.4" fill="#009af9" fill-rule="evenodd" fill-opacity="1" stroke="#000000" stroke-opacity="1" stroke-width="3.2"/>
<circle clip-path="url(#clip512)" cx="2727.72" cy="213.36" r="14.4" fill="#009af9" fill-rule="evenodd" fill-opacity="1" stroke="#000000" stroke-opacity="1" stroke-width="3.2"/>
<circle clip-path="url(#clip512)" cx="2774.86" cy="202.166" r="14.4" fill="#009af9" fill-rule="evenodd" fill-opacity="1" stroke="#000000" stroke-opacity="1" stroke-width="3.2"/>
<circle clip-path="url(#clip512)" cx="2822.01" cy="190.971" r="14.4" fill="#009af9" fill-rule="evenodd" fill-opacity="1" stroke="#000000" stroke-opacity="1" stroke-width="3.2"/>
<circle clip-path="url(#clip512)" cx="2869.15" cy="179.777" r="14.4" fill="#009af9" fill-rule="evenodd" fill-opacity="1" stroke="#000000" stroke-opacity="1" stroke-width="3.2"/>
<circle clip-path="url(#clip512)" cx="2916.29" cy="168.582" r="14.4" fill="#009af9" fill-rule="evenodd" fill-opacity="1" stroke="#000000" stroke-opacity="1" stroke-width="3.2"/>
<circle clip-path="url(#clip512)" cx="2963.43" cy="157.388" r="14.4" fill="#009af9" fill-rule="evenodd" fill-opacity="1" stroke="#000000" stroke-opacity="1" stroke-width="3.2"/>
<circle clip-path="url(#clip512)" cx="3010.57" cy="146.193" r="14.4" fill="#009af9" fill-rule="evenodd" fill-opacity="1" stroke="#000000" stroke-opacity="1" stroke-width="3.2"/>
<path clip-path="url(#clip510)" d="M1636.78 1338.36 L2996.49 1338.36 L2996.49 1131 L1636.78 1131  Z" fill="#ffffff" fill-rule="evenodd" fill-opacity="1"/>
<polyline clip-path="url(#clip510)" style="stroke:#000000; stroke-linecap:round; stroke-linejoin:round; stroke-width:4; stroke-opacity:1; fill:none" points="1636.78,1338.36 2996.49,1338.36 2996.49,1131 1636.78,1131 1636.78,1338.36 "/>
<circle clip-path="url(#clip510)" cx="1761.15" cy="1234.68" r="20.48" fill="#009af9" fill-rule="evenodd" fill-opacity="1" stroke="#000000" stroke-opacity="1" stroke-width="4.55111"/>
<path clip-path="url(#clip510)" d="M1901.35 1196.09 L1895.01 1213.28 L1907.72 1213.28 L1901.35 1196.09 M1898.71 1191.48 L1904.01 1191.48 L1917.18 1226.04 L1912.32 1226.04 L1909.18 1217.17 L1893.6 1217.17 L1890.45 1226.04 L1885.52 1226.04 L1898.71 1191.48 Z" fill="#000000" fill-rule="nonzero" fill-opacity="1" /><path clip-path="url(#clip510)" d="M1926.17 1222.15 L1926.17 1235.9 L1921.88 1235.9 L1921.88 1200.11 L1926.17 1200.11 L1926.17 1204.05 Q1927.51 1201.73 1929.55 1200.62 Q1931.61 1199.49 1934.45 1199.49 Q1939.18 1199.49 1942.12 1203.24 Q1945.08 1206.99 1945.08 1213.1 Q1945.08 1219.21 1942.12 1222.96 Q1939.18 1226.71 1934.45 1226.71 Q1931.61 1226.71 1929.55 1225.6 Q1927.51 1224.46 1926.17 1222.15 M1940.66 1213.1 Q1940.66 1208.4 1938.71 1205.74 Q1936.79 1203.05 1933.41 1203.05 Q1930.03 1203.05 1928.09 1205.74 Q1926.17 1208.4 1926.17 1213.1 Q1926.17 1217.8 1928.09 1220.48 Q1930.03 1223.15 1933.41 1223.15 Q1936.79 1223.15 1938.71 1220.48 Q1940.66 1217.8 1940.66 1213.1 Z" fill="#000000" fill-rule="nonzero" fill-opacity="1" /><path clip-path="url(#clip510)" d="M1963.92 1213.01 Q1958.76 1213.01 1956.77 1214.19 Q1954.78 1215.37 1954.78 1218.21 Q1954.78 1220.48 1956.26 1221.83 Q1957.76 1223.15 1960.33 1223.15 Q1963.87 1223.15 1966 1220.65 Q1968.16 1218.12 1968.16 1213.96 L1968.16 1213.01 L1963.92 1213.01 M1972.42 1211.25 L1972.42 1226.04 L1968.16 1226.04 L1968.16 1222.1 Q1966.7 1224.46 1964.52 1225.6 Q1962.35 1226.71 1959.2 1226.71 Q1955.22 1226.71 1952.86 1224.49 Q1950.52 1222.24 1950.52 1218.49 Q1950.52 1214.12 1953.43 1211.9 Q1956.37 1209.67 1962.18 1209.67 L1968.16 1209.67 L1968.16 1209.26 Q1968.16 1206.32 1966.21 1204.72 Q1964.29 1203.1 1960.8 1203.1 Q1958.57 1203.1 1956.47 1203.63 Q1954.36 1204.16 1952.42 1205.23 L1952.42 1201.29 Q1954.75 1200.39 1956.95 1199.95 Q1959.15 1199.49 1961.24 1199.49 Q1966.86 1199.49 1969.64 1202.4 Q1972.42 1205.32 1972.42 1211.25 Z" fill="#000000" fill-rule="nonzero" fill-opacity="1" /><path clip-path="url(#clip510)" d="M1996.21 1204.09 Q1995.49 1203.68 1994.64 1203.49 Q1993.8 1203.28 1992.79 1203.28 Q1989.17 1203.28 1987.23 1205.65 Q1985.31 1207.98 1985.31 1212.38 L1985.31 1226.04 L1981.03 1226.04 L1981.03 1200.11 L1985.31 1200.11 L1985.31 1204.14 Q1986.65 1201.78 1988.8 1200.65 Q1990.96 1199.49 1994.04 1199.49 Q1994.48 1199.49 1995.01 1199.56 Q1995.54 1199.6 1996.19 1199.72 L1996.21 1204.09 Z" fill="#000000" fill-rule="nonzero" fill-opacity="1" /><path clip-path="url(#clip510)" d="M2004.89 1192.75 L2004.89 1200.11 L2013.67 1200.11 L2013.67 1203.42 L2004.89 1203.42 L2004.89 1217.5 Q2004.89 1220.67 2005.75 1221.57 Q2006.63 1222.47 2009.29 1222.47 L2013.67 1222.47 L2013.67 1226.04 L2009.29 1226.04 Q2004.36 1226.04 2002.49 1224.21 Q2000.61 1222.36 2000.61 1217.5 L2000.61 1203.42 L1997.49 1203.42 L1997.49 1200.11 L2000.61 1200.11 L2000.61 1192.75 L2004.89 1192.75 Z" fill="#000000" fill-rule="nonzero" fill-opacity="1" /><path clip-path="url(#clip510)" d="M2039.45 1205.09 Q2041.05 1202.22 2043.27 1200.85 Q2045.49 1199.49 2048.5 1199.49 Q2052.55 1199.49 2054.75 1202.34 Q2056.95 1205.16 2056.95 1210.39 L2056.95 1226.04 L2052.67 1226.04 L2052.67 1210.53 Q2052.67 1206.8 2051.35 1205 Q2050.03 1203.19 2047.32 1203.19 Q2044.01 1203.19 2042.09 1205.39 Q2040.17 1207.59 2040.17 1211.39 L2040.17 1226.04 L2035.89 1226.04 L2035.89 1210.53 Q2035.89 1206.78 2034.57 1205 Q2033.25 1203.19 2030.49 1203.19 Q2027.23 1203.19 2025.31 1205.41 Q2023.39 1207.61 2023.39 1211.39 L2023.39 1226.04 L2019.11 1226.04 L2019.11 1200.11 L2023.39 1200.11 L2023.39 1204.14 Q2024.85 1201.76 2026.88 1200.62 Q2028.92 1199.49 2031.72 1199.49 Q2034.55 1199.49 2036.51 1200.92 Q2038.5 1202.36 2039.45 1205.09 Z" fill="#000000" fill-rule="nonzero" fill-opacity="1" /><path clip-path="url(#clip510)" d="M2087.62 1212.01 L2087.62 1214.09 L2068.04 1214.09 Q2068.32 1218.49 2070.68 1220.81 Q2073.06 1223.1 2077.3 1223.1 Q2079.75 1223.1 2082.04 1222.5 Q2084.36 1221.9 2086.63 1220.69 L2086.63 1224.72 Q2084.34 1225.69 2081.93 1226.2 Q2079.52 1226.71 2077.04 1226.71 Q2070.84 1226.71 2067.21 1223.1 Q2063.6 1219.49 2063.6 1213.33 Q2063.6 1206.96 2067.02 1203.24 Q2070.47 1199.49 2076.3 1199.49 Q2081.54 1199.49 2084.57 1202.87 Q2087.62 1206.22 2087.62 1212.01 M2083.36 1210.76 Q2083.32 1207.27 2081.4 1205.18 Q2079.5 1203.1 2076.35 1203.1 Q2072.79 1203.1 2070.63 1205.11 Q2068.5 1207.13 2068.18 1210.78 L2083.36 1210.76 Z" fill="#000000" fill-rule="nonzero" fill-opacity="1" /><path clip-path="url(#clip510)" d="M2116.17 1210.39 L2116.17 1226.04 L2111.91 1226.04 L2111.91 1210.53 Q2111.91 1206.85 2110.47 1205.02 Q2109.04 1203.19 2106.17 1203.19 Q2102.72 1203.19 2100.73 1205.39 Q2098.73 1207.59 2098.73 1211.39 L2098.73 1226.04 L2094.45 1226.04 L2094.45 1200.11 L2098.73 1200.11 L2098.73 1204.14 Q2100.26 1201.8 2102.32 1200.65 Q2104.41 1199.49 2107.11 1199.49 Q2111.58 1199.49 2113.87 1202.27 Q2116.17 1205.02 2116.17 1210.39 Z" fill="#000000" fill-rule="nonzero" fill-opacity="1" /><path clip-path="url(#clip510)" d="M2128.87 1192.75 L2128.87 1200.11 L2137.65 1200.11 L2137.65 1203.42 L2128.87 1203.42 L2128.87 1217.5 Q2128.87 1220.67 2129.73 1221.57 Q2130.61 1222.47 2133.27 1222.47 L2137.65 1222.47 L2137.65 1226.04 L2133.27 1226.04 Q2128.34 1226.04 2126.47 1224.21 Q2124.59 1222.36 2124.59 1217.5 L2124.59 1203.42 L2121.47 1203.42 L2121.47 1200.11 L2124.59 1200.11 L2124.59 1192.75 L2128.87 1192.75 Z" fill="#000000" fill-rule="nonzero" fill-opacity="1" /><path clip-path="url(#clip510)" d="M2144.34 1220.16 L2149.22 1220.16 L2149.22 1224.14 L2145.42 1231.55 L2142.44 1231.55 L2144.34 1224.14 L2144.34 1220.16 Z" fill="#000000" fill-rule="nonzero" fill-opacity="1" /><path clip-path="url(#clip510)" d="M2173.39 1190.02 L2177.65 1190.02 L2177.65 1226.04 L2173.39 1226.04 L2173.39 1190.02 Z" fill="#000000" fill-rule="nonzero" fill-opacity="1" /><path clip-path="url(#clip510)" d="M2186.56 1200.11 L2190.82 1200.11 L2190.82 1226.04 L2186.56 1226.04 L2186.56 1200.11 M2186.56 1190.02 L2190.82 1190.02 L2190.82 1195.41 L2186.56 1195.41 L2186.56 1190.02 Z" fill="#000000" fill-rule="nonzero" fill-opacity="1" /><path clip-path="url(#clip510)" d="M2196.67 1200.11 L2201.19 1200.11 L2209.29 1221.87 L2217.39 1200.11 L2221.91 1200.11 L2212.18 1226.04 L2206.4 1226.04 L2196.67 1200.11 Z" fill="#000000" fill-rule="nonzero" fill-opacity="1" /><path clip-path="url(#clip510)" d="M2227.78 1200.11 L2232.04 1200.11 L2232.04 1226.04 L2227.78 1226.04 L2227.78 1200.11 M2227.78 1190.02 L2232.04 1190.02 L2232.04 1195.41 L2227.78 1195.41 L2227.78 1190.02 Z" fill="#000000" fill-rule="nonzero" fill-opacity="1" /><path clip-path="url(#clip510)" d="M2262.51 1210.39 L2262.51 1226.04 L2258.25 1226.04 L2258.25 1210.53 Q2258.25 1206.85 2256.81 1205.02 Q2255.38 1203.19 2252.51 1203.19 Q2249.06 1203.19 2247.07 1205.39 Q2245.08 1207.59 2245.08 1211.39 L2245.08 1226.04 L2240.79 1226.04 L2240.79 1200.11 L2245.08 1200.11 L2245.08 1204.14 Q2246.6 1201.8 2248.66 1200.65 Q2250.75 1199.49 2253.46 1199.49 Q2257.92 1199.49 2260.22 1202.27 Q2262.51 1205.02 2262.51 1210.39 Z" fill="#000000" fill-rule="nonzero" fill-opacity="1" /><path clip-path="url(#clip510)" d="M2288.06 1212.77 Q2288.06 1208.15 2286.14 1205.6 Q2284.24 1203.05 2280.79 1203.05 Q2277.37 1203.05 2275.45 1205.6 Q2273.55 1208.15 2273.55 1212.77 Q2273.55 1217.38 2275.45 1219.93 Q2277.37 1222.47 2280.79 1222.47 Q2284.24 1222.47 2286.14 1219.93 Q2288.06 1217.38 2288.06 1212.77 M2292.32 1222.82 Q2292.32 1229.44 2289.38 1232.66 Q2286.44 1235.9 2280.38 1235.9 Q2278.13 1235.9 2276.14 1235.55 Q2274.15 1235.23 2272.28 1234.53 L2272.28 1230.39 Q2274.15 1231.41 2275.98 1231.9 Q2277.81 1232.38 2279.71 1232.38 Q2283.9 1232.38 2285.98 1230.18 Q2288.06 1228.01 2288.06 1223.58 L2288.06 1221.48 Q2286.74 1223.77 2284.68 1224.9 Q2282.62 1226.04 2279.75 1226.04 Q2274.98 1226.04 2272.07 1222.4 Q2269.15 1218.77 2269.15 1212.77 Q2269.15 1206.76 2272.07 1203.12 Q2274.98 1199.49 2279.75 1199.49 Q2282.62 1199.49 2284.68 1200.62 Q2286.74 1201.76 2288.06 1204.05 L2288.06 1200.11 L2292.32 1200.11 L2292.32 1222.82 Z" fill="#000000" fill-rule="nonzero" fill-opacity="1" /><path clip-path="url(#clip510)" d="M2327.95 1213.01 Q2322.78 1213.01 2320.79 1214.19 Q2318.8 1215.37 2318.8 1218.21 Q2318.8 1220.48 2320.28 1221.83 Q2321.79 1223.15 2324.36 1223.15 Q2327.9 1223.15 2330.03 1220.65 Q2332.18 1218.12 2332.18 1213.96 L2332.18 1213.01 L2327.95 1213.01 M2336.44 1211.25 L2336.44 1226.04 L2332.18 1226.04 L2332.18 1222.1 Q2330.72 1224.46 2328.55 1225.6 Q2326.37 1226.71 2323.22 1226.71 Q2319.24 1226.71 2316.88 1224.49 Q2314.54 1222.24 2314.54 1218.49 Q2314.54 1214.12 2317.46 1211.9 Q2320.4 1209.67 2326.21 1209.67 L2332.18 1209.67 L2332.18 1209.26 Q2332.18 1206.32 2330.24 1204.72 Q2328.32 1203.1 2324.82 1203.1 Q2322.6 1203.1 2320.49 1203.63 Q2318.39 1204.16 2316.44 1205.23 L2316.44 1201.29 Q2318.78 1200.39 2320.98 1199.95 Q2323.18 1199.49 2325.26 1199.49 Q2330.89 1199.49 2333.66 1202.4 Q2336.44 1205.32 2336.44 1211.25 Z" fill="#000000" fill-rule="nonzero" fill-opacity="1" /><path clip-path="url(#clip510)" d="M2360.24 1204.09 Q2359.52 1203.68 2358.66 1203.49 Q2357.83 1203.28 2356.81 1203.28 Q2353.2 1203.28 2351.26 1205.65 Q2349.34 1207.98 2349.34 1212.38 L2349.34 1226.04 L2345.05 1226.04 L2345.05 1200.11 L2349.34 1200.11 L2349.34 1204.14 Q2350.68 1201.78 2352.83 1200.65 Q2354.98 1199.49 2358.06 1199.49 Q2358.5 1199.49 2359.03 1199.56 Q2359.57 1199.6 2360.21 1199.72 L2360.24 1204.09 Z" fill="#000000" fill-rule="nonzero" fill-opacity="1" /><path clip-path="url(#clip510)" d="M2385.84 1212.01 L2385.84 1214.09 L2366.26 1214.09 Q2366.53 1218.49 2368.9 1220.81 Q2371.28 1223.1 2375.52 1223.1 Q2377.97 1223.1 2380.26 1222.5 Q2382.58 1221.9 2384.84 1220.69 L2384.84 1224.72 Q2382.55 1225.69 2380.15 1226.2 Q2377.74 1226.71 2375.26 1226.71 Q2369.06 1226.71 2365.42 1223.1 Q2361.81 1219.49 2361.81 1213.33 Q2361.81 1206.96 2365.24 1203.24 Q2368.69 1199.49 2374.52 1199.49 Q2379.75 1199.49 2382.78 1202.87 Q2385.84 1206.22 2385.84 1212.01 M2381.58 1210.76 Q2381.53 1207.27 2379.61 1205.18 Q2377.71 1203.1 2374.57 1203.1 Q2371 1203.1 2368.85 1205.11 Q2366.72 1207.13 2366.4 1210.78 L2381.58 1210.76 Z" fill="#000000" fill-rule="nonzero" fill-opacity="1" /><path clip-path="url(#clip510)" d="M2404.61 1213.01 Q2399.45 1213.01 2397.46 1214.19 Q2395.47 1215.37 2395.47 1218.21 Q2395.47 1220.48 2396.95 1221.83 Q2398.46 1223.15 2401.02 1223.15 Q2404.57 1223.15 2406.7 1220.65 Q2408.85 1218.12 2408.85 1213.96 L2408.85 1213.01 L2404.61 1213.01 M2413.11 1211.25 L2413.11 1226.04 L2408.85 1226.04 L2408.85 1222.1 Q2407.39 1224.46 2405.21 1225.6 Q2403.04 1226.71 2399.89 1226.71 Q2395.91 1226.71 2393.55 1224.49 Q2391.21 1222.24 2391.21 1218.49 Q2391.21 1214.12 2394.13 1211.9 Q2397.07 1209.67 2402.88 1209.67 L2408.85 1209.67 L2408.85 1209.26 Q2408.85 1206.32 2406.9 1204.72 Q2404.98 1203.1 2401.49 1203.1 Q2399.27 1203.1 2397.16 1203.63 Q2395.05 1204.16 2393.11 1205.23 L2393.11 1201.29 Q2395.45 1200.39 2397.64 1199.95 Q2399.84 1199.49 2401.93 1199.49 Q2407.55 1199.49 2410.33 1202.4 Q2413.11 1205.32 2413.11 1211.25 Z" fill="#000000" fill-rule="nonzero" fill-opacity="1" /><path clip-path="url(#clip510)" d="M2447 1203.1 Q2443.57 1203.1 2441.58 1205.78 Q2439.59 1208.45 2439.59 1213.1 Q2439.59 1217.75 2441.56 1220.44 Q2443.55 1223.1 2447 1223.1 Q2450.4 1223.1 2452.39 1220.41 Q2454.38 1217.73 2454.38 1213.1 Q2454.38 1208.49 2452.39 1205.81 Q2450.4 1203.1 2447 1203.1 M2447 1199.49 Q2452.55 1199.49 2455.72 1203.1 Q2458.89 1206.71 2458.89 1213.1 Q2458.89 1219.46 2455.72 1223.1 Q2452.55 1226.71 2447 1226.71 Q2441.42 1226.71 2438.25 1223.1 Q2435.1 1219.46 2435.1 1213.1 Q2435.1 1206.71 2438.25 1203.1 Q2441.42 1199.49 2447 1199.49 Z" fill="#000000" fill-rule="nonzero" fill-opacity="1" /><path clip-path="url(#clip510)" d="M2487.51 1210.39 L2487.51 1226.04 L2483.25 1226.04 L2483.25 1210.53 Q2483.25 1206.85 2481.81 1205.02 Q2480.38 1203.19 2477.51 1203.19 Q2474.06 1203.19 2472.07 1205.39 Q2470.08 1207.59 2470.08 1211.39 L2470.08 1226.04 L2465.79 1226.04 L2465.79 1200.11 L2470.08 1200.11 L2470.08 1204.14 Q2471.6 1201.8 2473.66 1200.65 Q2475.75 1199.49 2478.45 1199.49 Q2482.92 1199.49 2485.21 1202.27 Q2487.51 1205.02 2487.51 1210.39 Z" fill="#000000" fill-rule="nonzero" fill-opacity="1" /><path clip-path="url(#clip510)" d="M2521.12 1203.1 Q2517.69 1203.1 2515.7 1205.78 Q2513.71 1208.45 2513.71 1213.1 Q2513.71 1217.75 2515.68 1220.44 Q2517.67 1223.1 2521.12 1223.1 Q2524.52 1223.1 2526.51 1220.41 Q2528.5 1217.73 2528.5 1213.1 Q2528.5 1208.49 2526.51 1205.81 Q2524.52 1203.1 2521.12 1203.1 M2521.12 1199.49 Q2526.67 1199.49 2529.84 1203.1 Q2533.01 1206.71 2533.01 1213.1 Q2533.01 1219.46 2529.84 1223.1 Q2526.67 1226.71 2521.12 1226.71 Q2515.54 1226.71 2512.37 1223.1 Q2509.22 1219.46 2509.22 1213.1 Q2509.22 1206.71 2512.37 1203.1 Q2515.54 1199.49 2521.12 1199.49 Z" fill="#000000" fill-rule="nonzero" fill-opacity="1" /><path clip-path="url(#clip510)" d="M2561.63 1210.39 L2561.63 1226.04 L2557.37 1226.04 L2557.37 1210.53 Q2557.37 1206.85 2555.93 1205.02 Q2554.5 1203.19 2551.63 1203.19 Q2548.18 1203.19 2546.19 1205.39 Q2544.2 1207.59 2544.2 1211.39 L2544.2 1226.04 L2539.91 1226.04 L2539.91 1200.11 L2544.2 1200.11 L2544.2 1204.14 Q2545.72 1201.8 2547.78 1200.65 Q2549.87 1199.49 2552.57 1199.49 Q2557.04 1199.49 2559.33 1202.27 Q2561.63 1205.02 2561.63 1210.39 Z" fill="#000000" fill-rule="nonzero" fill-opacity="1" /><path clip-path="url(#clip510)" d="M2592.3 1212.01 L2592.3 1214.09 L2572.71 1214.09 Q2572.99 1218.49 2575.35 1220.81 Q2577.74 1223.1 2581.97 1223.1 Q2584.43 1223.1 2586.72 1222.5 Q2589.03 1221.9 2591.3 1220.69 L2591.3 1224.72 Q2589.01 1225.69 2586.6 1226.2 Q2584.19 1226.71 2581.72 1226.71 Q2575.51 1226.71 2571.88 1223.1 Q2568.27 1219.49 2568.27 1213.33 Q2568.27 1206.96 2571.69 1203.24 Q2575.14 1199.49 2580.98 1199.49 Q2586.21 1199.49 2589.24 1202.87 Q2592.3 1206.22 2592.3 1212.01 M2588.04 1210.76 Q2587.99 1207.27 2586.07 1205.18 Q2584.17 1203.1 2581.02 1203.1 Q2577.46 1203.1 2575.31 1205.11 Q2573.18 1207.13 2572.85 1210.78 L2588.04 1210.76 Z" fill="#000000" fill-rule="nonzero" fill-opacity="1" /><path clip-path="url(#clip510)" d="M2627.48 1190.02 L2627.48 1193.56 L2623.41 1193.56 Q2621.12 1193.56 2620.21 1194.49 Q2619.33 1195.41 2619.33 1197.82 L2619.33 1200.11 L2626.35 1200.11 L2626.35 1203.42 L2619.33 1203.42 L2619.33 1226.04 L2615.05 1226.04 L2615.05 1203.42 L2610.98 1203.42 L2610.98 1200.11 L2615.05 1200.11 L2615.05 1198.31 Q2615.05 1193.98 2617.07 1192.01 Q2619.08 1190.02 2623.45 1190.02 L2627.48 1190.02 Z" fill="#000000" fill-rule="nonzero" fill-opacity="1" /><path clip-path="url(#clip510)" d="M2631.05 1190.02 L2635.31 1190.02 L2635.31 1226.04 L2631.05 1226.04 L2631.05 1190.02 Z" fill="#000000" fill-rule="nonzero" fill-opacity="1" /><path clip-path="url(#clip510)" d="M2654.26 1203.1 Q2650.84 1203.1 2648.85 1205.78 Q2646.86 1208.45 2646.86 1213.1 Q2646.86 1217.75 2648.82 1220.44 Q2650.81 1223.1 2654.26 1223.1 Q2657.67 1223.1 2659.66 1220.41 Q2661.65 1217.73 2661.65 1213.1 Q2661.65 1208.49 2659.66 1205.81 Q2657.67 1203.1 2654.26 1203.1 M2654.26 1199.49 Q2659.82 1199.49 2662.99 1203.1 Q2666.16 1206.71 2666.16 1213.1 Q2666.16 1219.46 2662.99 1223.1 Q2659.82 1226.71 2654.26 1226.71 Q2648.69 1226.71 2645.51 1223.1 Q2642.37 1219.46 2642.37 1213.1 Q2642.37 1206.71 2645.51 1203.1 Q2648.69 1199.49 2654.26 1199.49 Z" fill="#000000" fill-rule="nonzero" fill-opacity="1" /><path clip-path="url(#clip510)" d="M2683.27 1203.1 Q2679.84 1203.1 2677.85 1205.78 Q2675.86 1208.45 2675.86 1213.1 Q2675.86 1217.75 2677.83 1220.44 Q2679.82 1223.1 2683.27 1223.1 Q2686.67 1223.1 2688.66 1220.41 Q2690.65 1217.73 2690.65 1213.1 Q2690.65 1208.49 2688.66 1205.81 Q2686.67 1203.1 2683.27 1203.1 M2683.27 1199.49 Q2688.82 1199.49 2692 1203.1 Q2695.17 1206.71 2695.17 1213.1 Q2695.17 1219.46 2692 1223.1 Q2688.82 1226.71 2683.27 1226.71 Q2677.69 1226.71 2674.52 1223.1 Q2671.37 1219.46 2671.37 1213.1 Q2671.37 1206.71 2674.52 1203.1 Q2677.69 1199.49 2683.27 1199.49 Z" fill="#000000" fill-rule="nonzero" fill-opacity="1" /><path clip-path="url(#clip510)" d="M2717.25 1204.09 Q2716.53 1203.68 2715.68 1203.49 Q2714.84 1203.28 2713.82 1203.28 Q2710.21 1203.28 2708.27 1205.65 Q2706.35 1207.98 2706.35 1212.38 L2706.35 1226.04 L2702.06 1226.04 L2702.06 1200.11 L2706.35 1200.11 L2706.35 1204.14 Q2707.69 1201.78 2709.84 1200.65 Q2712 1199.49 2715.07 1199.49 Q2715.51 1199.49 2716.05 1199.56 Q2716.58 1199.6 2717.23 1199.72 L2717.25 1204.09 Z" fill="#000000" fill-rule="nonzero" fill-opacity="1" /><path clip-path="url(#clip510)" d="M2722.81 1220.16 L2727.69 1220.16 L2727.69 1224.14 L2723.89 1231.55 L2720.91 1231.55 L2722.81 1224.14 L2722.81 1220.16 Z" fill="#000000" fill-rule="nonzero" fill-opacity="1" /><path clip-path="url(#clip510)" d="M2772.76 1192.61 L2772.76 1197.17 Q2770.1 1195.9 2767.74 1195.27 Q2765.37 1194.65 2763.18 1194.65 Q2759.36 1194.65 2757.27 1196.13 Q2755.21 1197.61 2755.21 1200.34 Q2755.21 1202.64 2756.58 1203.82 Q2757.97 1204.97 2761.81 1205.69 L2764.63 1206.27 Q2769.87 1207.27 2772.34 1209.79 Q2774.84 1212.29 2774.84 1216.5 Q2774.84 1221.52 2771.46 1224.12 Q2768.11 1226.71 2761.6 1226.71 Q2759.15 1226.71 2756.37 1226.15 Q2753.62 1225.6 2750.65 1224.51 L2750.65 1219.7 Q2753.5 1221.29 2756.23 1222.1 Q2758.96 1222.91 2761.6 1222.91 Q2765.61 1222.91 2767.78 1221.34 Q2769.96 1219.77 2769.96 1216.85 Q2769.96 1214.3 2768.38 1212.87 Q2766.83 1211.43 2763.27 1210.71 L2760.42 1210.16 Q2755.19 1209.12 2752.85 1206.9 Q2750.51 1204.67 2750.51 1200.71 Q2750.51 1196.13 2753.73 1193.49 Q2756.97 1190.85 2762.64 1190.85 Q2765.07 1190.85 2767.6 1191.29 Q2770.12 1191.73 2772.76 1192.61 Z" fill="#000000" fill-rule="nonzero" fill-opacity="1" /><path clip-path="url(#clip510)" d="M2786.16 1192.75 L2786.16 1200.11 L2794.93 1200.11 L2794.93 1203.42 L2786.16 1203.42 L2786.16 1217.5 Q2786.16 1220.67 2787.02 1221.57 Q2787.9 1222.47 2790.56 1222.47 L2794.93 1222.47 L2794.93 1226.04 L2790.56 1226.04 Q2785.63 1226.04 2783.75 1224.21 Q2781.88 1222.36 2781.88 1217.5 L2781.88 1203.42 L2778.75 1203.42 L2778.75 1200.11 L2781.88 1200.11 L2781.88 1192.75 L2786.16 1192.75 Z" fill="#000000" fill-rule="nonzero" fill-opacity="1" /><path clip-path="url(#clip510)" d="M2815.56 1204.09 Q2814.84 1203.68 2813.99 1203.49 Q2813.15 1203.28 2812.13 1203.28 Q2808.52 1203.28 2806.58 1205.65 Q2804.66 1207.98 2804.66 1212.38 L2804.66 1226.04 L2800.37 1226.04 L2800.37 1200.11 L2804.66 1200.11 L2804.66 1204.14 Q2806 1201.78 2808.15 1200.65 Q2810.3 1199.49 2813.38 1199.49 Q2813.82 1199.49 2814.36 1199.56 Q2814.89 1199.6 2815.54 1199.72 L2815.56 1204.09 Z" fill="#000000" fill-rule="nonzero" fill-opacity="1" /><path clip-path="url(#clip510)" d="M2819.59 1215.81 L2819.59 1200.11 L2823.85 1200.11 L2823.85 1215.65 Q2823.85 1219.33 2825.28 1221.18 Q2826.72 1223.01 2829.59 1223.01 Q2833.04 1223.01 2835.03 1220.81 Q2837.04 1218.61 2837.04 1214.81 L2837.04 1200.11 L2841.3 1200.11 L2841.3 1226.04 L2837.04 1226.04 L2837.04 1222.06 Q2835.49 1224.42 2833.43 1225.58 Q2831.39 1226.71 2828.68 1226.71 Q2824.22 1226.71 2821.9 1223.93 Q2819.59 1221.15 2819.59 1215.81 M2830.3 1199.49 L2830.3 1199.49 Z" fill="#000000" fill-rule="nonzero" fill-opacity="1" /><path clip-path="url(#clip510)" d="M2868.73 1201.11 L2868.73 1205.09 Q2866.92 1204.09 2865.1 1203.61 Q2863.29 1203.1 2861.44 1203.1 Q2857.3 1203.1 2855 1205.74 Q2852.71 1208.35 2852.71 1213.1 Q2852.71 1217.84 2855 1220.48 Q2857.3 1223.1 2861.44 1223.1 Q2863.29 1223.1 2865.1 1222.61 Q2866.92 1222.1 2868.73 1221.11 L2868.73 1225.04 Q2866.95 1225.88 2865.03 1226.29 Q2863.13 1226.71 2860.98 1226.71 Q2855.12 1226.71 2851.67 1223.03 Q2848.22 1219.35 2848.22 1213.1 Q2848.22 1206.76 2851.69 1203.12 Q2855.19 1199.49 2861.25 1199.49 Q2863.22 1199.49 2865.1 1199.9 Q2866.97 1200.3 2868.73 1201.11 Z" fill="#000000" fill-rule="nonzero" fill-opacity="1" /><path clip-path="url(#clip510)" d="M2880.35 1192.75 L2880.35 1200.11 L2889.12 1200.11 L2889.12 1203.42 L2880.35 1203.42 L2880.35 1217.5 Q2880.35 1220.67 2881.21 1221.57 Q2882.09 1222.47 2884.75 1222.47 L2889.12 1222.47 L2889.12 1226.04 L2884.75 1226.04 Q2879.82 1226.04 2877.94 1224.21 Q2876.07 1222.36 2876.07 1217.5 L2876.07 1203.42 L2872.94 1203.42 L2872.94 1200.11 L2876.07 1200.11 L2876.07 1192.75 L2880.35 1192.75 Z" fill="#000000" fill-rule="nonzero" fill-opacity="1" /><path clip-path="url(#clip510)" d="M2894.29 1215.81 L2894.29 1200.11 L2898.55 1200.11 L2898.55 1215.65 Q2898.55 1219.33 2899.98 1221.18 Q2901.42 1223.01 2904.29 1223.01 Q2907.73 1223.01 2909.73 1220.81 Q2911.74 1218.61 2911.74 1214.81 L2911.74 1200.11 L2916 1200.11 L2916 1226.04 L2911.74 1226.04 L2911.74 1222.06 Q2910.19 1224.42 2908.13 1225.58 Q2906.09 1226.71 2903.38 1226.71 Q2898.92 1226.71 2896.6 1223.93 Q2894.29 1221.15 2894.29 1215.81 M2905 1199.49 L2905 1199.49 Z" fill="#000000" fill-rule="nonzero" fill-opacity="1" /><path clip-path="url(#clip510)" d="M2939.79 1204.09 Q2939.08 1203.68 2938.22 1203.49 Q2937.39 1203.28 2936.37 1203.28 Q2932.76 1203.28 2930.81 1205.65 Q2928.89 1207.98 2928.89 1212.38 L2928.89 1226.04 L2924.61 1226.04 L2924.61 1200.11 L2928.89 1200.11 L2928.89 1204.14 Q2930.23 1201.78 2932.39 1200.65 Q2934.54 1199.49 2937.62 1199.49 Q2938.06 1199.49 2938.59 1199.56 Q2939.12 1199.6 2939.77 1199.72 L2939.79 1204.09 Z" fill="#000000" fill-rule="nonzero" fill-opacity="1" /><path clip-path="url(#clip510)" d="M2965.4 1212.01 L2965.4 1214.09 L2945.81 1214.09 Q2946.09 1218.49 2948.45 1220.81 Q2950.84 1223.1 2955.07 1223.1 Q2957.53 1223.1 2959.82 1222.5 Q2962.13 1221.9 2964.4 1220.69 L2964.4 1224.72 Q2962.11 1225.69 2959.7 1226.2 Q2957.29 1226.71 2954.82 1226.71 Q2948.61 1226.71 2944.98 1223.1 Q2941.37 1219.49 2941.37 1213.33 Q2941.37 1206.96 2944.79 1203.24 Q2948.24 1199.49 2954.08 1199.49 Q2959.31 1199.49 2962.34 1202.87 Q2965.4 1206.22 2965.4 1212.01 M2961.14 1210.76 Q2961.09 1207.27 2959.17 1205.18 Q2957.27 1203.1 2954.12 1203.1 Q2950.56 1203.1 2948.41 1205.11 Q2946.28 1207.13 2945.95 1210.78 L2961.14 1210.76 Z" fill="#000000" fill-rule="nonzero" fill-opacity="1" /><path clip-path="url(#clip510)" d="M1896.14 1241.91 Q1893.04 1247.23 1891.54 1252.44 Q1890.03 1257.65 1890.03 1262.99 Q1890.03 1268.34 1891.54 1273.6 Q1893.06 1278.83 1896.14 1284.13 L1892.44 1284.13 Q1888.97 1278.69 1887.23 1273.43 Q1885.52 1268.18 1885.52 1262.99 Q1885.52 1257.83 1887.23 1252.6 Q1888.94 1247.37 1892.44 1241.91 L1896.14 1241.91 Z" fill="#000000" fill-rule="nonzero" fill-opacity="1" /><path clip-path="url(#clip510)" d="M1904.06 1243.32 L1908.76 1243.32 L1908.76 1264.31 Q1908.76 1269.87 1910.77 1272.32 Q1912.79 1274.75 1917.3 1274.75 Q1921.79 1274.75 1923.8 1272.32 Q1925.82 1269.87 1925.82 1264.31 L1925.82 1243.32 L1930.52 1243.32 L1930.52 1264.89 Q1930.52 1271.65 1927.16 1275.1 Q1923.83 1278.55 1917.3 1278.55 Q1910.75 1278.55 1907.39 1275.1 Q1904.06 1271.65 1904.06 1264.89 L1904.06 1243.32 Z" fill="#000000" fill-rule="nonzero" fill-opacity="1" /><path clip-path="url(#clip510)" d="M1960.01 1244.45 L1960.01 1249.01 Q1957.35 1247.74 1954.99 1247.11 Q1952.62 1246.49 1950.43 1246.49 Q1946.61 1246.49 1944.52 1247.97 Q1942.46 1249.45 1942.46 1252.18 Q1942.46 1254.48 1943.83 1255.66 Q1945.22 1256.81 1949.06 1257.53 L1951.88 1258.11 Q1957.11 1259.11 1959.59 1261.63 Q1962.09 1264.13 1962.09 1268.34 Q1962.09 1273.36 1958.71 1275.96 Q1955.36 1278.55 1948.85 1278.55 Q1946.4 1278.55 1943.62 1277.99 Q1940.87 1277.44 1937.9 1276.35 L1937.9 1271.54 Q1940.75 1273.13 1943.48 1273.94 Q1946.21 1274.75 1948.85 1274.75 Q1952.86 1274.75 1955.03 1273.18 Q1957.21 1271.61 1957.21 1268.69 Q1957.21 1266.14 1955.63 1264.71 Q1954.08 1263.27 1950.52 1262.55 L1947.67 1262 Q1942.44 1260.96 1940.1 1258.74 Q1937.76 1256.51 1937.76 1252.55 Q1937.76 1247.97 1940.98 1245.33 Q1944.22 1242.69 1949.89 1242.69 Q1952.32 1242.69 1954.85 1243.13 Q1957.37 1243.57 1960.01 1244.45 Z" fill="#000000" fill-rule="nonzero" fill-opacity="1" /><path clip-path="url(#clip510)" d="M1981.81 1247.93 L1975.47 1265.12 L1988.18 1265.12 L1981.81 1247.93 M1979.17 1243.32 L1984.48 1243.32 L1997.65 1277.88 L1992.79 1277.88 L1989.64 1269.01 L1974.06 1269.01 L1970.91 1277.88 L1965.98 1277.88 L1979.17 1243.32 Z" fill="#000000" fill-rule="nonzero" fill-opacity="1" /><path clip-path="url(#clip510)" d="M2027.74 1245.98 L2027.74 1250.91 Q2025.38 1248.71 2022.69 1247.62 Q2020.03 1246.54 2017.02 1246.54 Q2011.1 1246.54 2007.95 1250.17 Q2004.8 1253.78 2004.8 1260.63 Q2004.8 1267.46 2007.95 1271.1 Q2011.1 1274.71 2017.02 1274.71 Q2020.03 1274.71 2022.69 1273.62 Q2025.38 1272.53 2027.74 1270.33 L2027.74 1275.22 Q2025.29 1276.88 2022.53 1277.72 Q2019.8 1278.55 2016.74 1278.55 Q2008.9 1278.55 2004.38 1273.76 Q1999.87 1268.94 1999.87 1260.63 Q1999.87 1252.3 2004.38 1247.51 Q2008.9 1242.69 2016.74 1242.69 Q2019.85 1242.69 2022.58 1243.53 Q2025.33 1244.34 2027.74 1245.98 Z" fill="#000000" fill-rule="nonzero" fill-opacity="1" /><path clip-path="url(#clip510)" d="M2034.96 1243.32 L2056.81 1243.32 L2056.81 1247.25 L2039.64 1247.25 L2039.64 1257.49 L2056.1 1257.49 L2056.1 1261.42 L2039.64 1261.42 L2039.64 1273.94 L2057.23 1273.94 L2057.23 1277.88 L2034.96 1277.88 L2034.96 1243.32 Z" fill="#000000" fill-rule="nonzero" fill-opacity="1" /><path clip-path="url(#clip510)" d="M2077.65 1262.99 L2090.12 1262.99 L2090.12 1266.79 L2077.65 1266.79 L2077.65 1262.99 Z" fill="#000000" fill-rule="nonzero" fill-opacity="1" /><path clip-path="url(#clip510)" d="M2135.73 1272.95 L2135.73 1263.67 L2128.09 1263.67 L2128.09 1259.82 L2140.35 1259.82 L2140.35 1274.66 Q2137.65 1276.58 2134.38 1277.58 Q2131.12 1278.55 2127.41 1278.55 Q2119.31 1278.55 2114.73 1273.83 Q2110.17 1269.08 2110.17 1260.63 Q2110.17 1252.16 2114.73 1247.44 Q2119.31 1242.69 2127.41 1242.69 Q2130.79 1242.69 2133.83 1243.53 Q2136.88 1244.36 2139.45 1245.98 L2139.45 1250.96 Q2136.86 1248.76 2133.94 1247.65 Q2131.03 1246.54 2127.81 1246.54 Q2121.47 1246.54 2118.27 1250.08 Q2115.1 1253.62 2115.1 1260.63 Q2115.1 1267.62 2118.27 1271.17 Q2121.47 1274.71 2127.81 1274.71 Q2130.29 1274.71 2132.23 1274.29 Q2134.17 1273.85 2135.73 1272.95 Z" fill="#000000" fill-rule="nonzero" fill-opacity="1" /><path clip-path="url(#clip510)" d="M2160.49 1264.85 Q2155.33 1264.85 2153.34 1266.03 Q2151.35 1267.21 2151.35 1270.05 Q2151.35 1272.32 2152.83 1273.67 Q2154.34 1274.99 2156.91 1274.99 Q2160.45 1274.99 2162.58 1272.49 Q2164.73 1269.96 2164.73 1265.8 L2164.73 1264.85 L2160.49 1264.85 M2168.99 1263.09 L2168.99 1277.88 L2164.73 1277.88 L2164.73 1273.94 Q2163.27 1276.3 2161.1 1277.44 Q2158.92 1278.55 2155.77 1278.55 Q2151.79 1278.55 2149.43 1276.33 Q2147.09 1274.08 2147.09 1270.33 Q2147.09 1265.96 2150.01 1263.74 Q2152.95 1261.51 2158.76 1261.51 L2164.73 1261.51 L2164.73 1261.1 Q2164.73 1258.16 2162.79 1256.56 Q2160.86 1254.94 2157.37 1254.94 Q2155.15 1254.94 2153.04 1255.47 Q2150.93 1256 2148.99 1257.07 L2148.99 1253.13 Q2151.33 1252.23 2153.53 1251.79 Q2155.72 1251.33 2157.81 1251.33 Q2163.43 1251.33 2166.21 1254.24 Q2168.99 1257.16 2168.99 1263.09 Z" fill="#000000" fill-rule="nonzero" fill-opacity="1" /><path clip-path="url(#clip510)" d="M2177.76 1241.86 L2182.02 1241.86 L2182.02 1277.88 L2177.76 1277.88 L2177.76 1241.86 Z" fill="#000000" fill-rule="nonzero" fill-opacity="1" /><path clip-path="url(#clip510)" d="M2187.88 1251.95 L2192.39 1251.95 L2200.49 1273.71 L2208.6 1251.95 L2213.11 1251.95 L2203.39 1277.88 L2197.6 1277.88 L2187.88 1251.95 Z" fill="#000000" fill-rule="nonzero" fill-opacity="1" /><path clip-path="url(#clip510)" d="M2241.16 1263.85 L2241.16 1265.93 L2221.58 1265.93 Q2221.86 1270.33 2224.22 1272.65 Q2226.6 1274.94 2230.84 1274.94 Q2233.29 1274.94 2235.59 1274.34 Q2237.9 1273.74 2240.17 1272.53 L2240.17 1276.56 Q2237.88 1277.53 2235.47 1278.04 Q2233.06 1278.55 2230.59 1278.55 Q2224.38 1278.55 2220.75 1274.94 Q2217.14 1271.33 2217.14 1265.17 Q2217.14 1258.8 2220.56 1255.08 Q2224.01 1251.33 2229.84 1251.33 Q2235.08 1251.33 2238.11 1254.71 Q2241.16 1258.06 2241.16 1263.85 M2236.91 1262.6 Q2236.86 1259.11 2234.94 1257.02 Q2233.04 1254.94 2229.89 1254.94 Q2226.33 1254.94 2224.17 1256.95 Q2222.04 1258.97 2221.72 1262.62 L2236.91 1262.6 Z" fill="#000000" fill-rule="nonzero" fill-opacity="1" /><path clip-path="url(#clip510)" d="M2264.68 1252.72 L2264.68 1256.74 Q2262.88 1255.82 2260.93 1255.36 Q2258.99 1254.89 2256.9 1254.89 Q2253.73 1254.89 2252.14 1255.86 Q2250.56 1256.84 2250.56 1258.78 Q2250.56 1260.26 2251.7 1261.12 Q2252.83 1261.95 2256.26 1262.72 L2257.72 1263.04 Q2262.25 1264.01 2264.15 1265.8 Q2266.07 1267.55 2266.07 1270.73 Q2266.07 1274.34 2263.2 1276.44 Q2260.35 1278.55 2255.35 1278.55 Q2253.27 1278.55 2251 1278.13 Q2248.76 1277.74 2246.26 1276.93 L2246.26 1272.53 Q2248.62 1273.76 2250.91 1274.38 Q2253.2 1274.99 2255.45 1274.99 Q2258.46 1274.99 2260.08 1273.97 Q2261.7 1272.92 2261.7 1271.05 Q2261.7 1269.31 2260.52 1268.39 Q2259.36 1267.46 2255.4 1266.61 L2253.92 1266.26 Q2249.96 1265.43 2248.2 1263.71 Q2246.44 1261.98 2246.44 1258.97 Q2246.44 1255.31 2249.03 1253.32 Q2251.63 1251.33 2256.4 1251.33 Q2258.76 1251.33 2260.84 1251.68 Q2262.92 1252.02 2264.68 1252.72 Z" fill="#000000" fill-rule="nonzero" fill-opacity="1" /><path clip-path="url(#clip510)" d="M2277.07 1244.59 L2277.07 1251.95 L2285.84 1251.95 L2285.84 1255.26 L2277.07 1255.26 L2277.07 1269.34 Q2277.07 1272.51 2277.92 1273.41 Q2278.8 1274.31 2281.47 1274.31 L2285.84 1274.31 L2285.84 1277.88 L2281.47 1277.88 Q2276.53 1277.88 2274.66 1276.05 Q2272.78 1274.2 2272.78 1269.34 L2272.78 1255.26 L2269.66 1255.26 L2269.66 1251.95 L2272.78 1251.95 L2272.78 1244.59 L2277.07 1244.59 Z" fill="#000000" fill-rule="nonzero" fill-opacity="1" /><path clip-path="url(#clip510)" d="M2301.49 1254.94 Q2298.06 1254.94 2296.07 1257.62 Q2294.08 1260.29 2294.08 1264.94 Q2294.08 1269.59 2296.05 1272.28 Q2298.04 1274.94 2301.49 1274.94 Q2304.89 1274.94 2306.88 1272.25 Q2308.87 1269.57 2308.87 1264.94 Q2308.87 1260.33 2306.88 1257.65 Q2304.89 1254.94 2301.49 1254.94 M2301.49 1251.33 Q2307.04 1251.33 2310.21 1254.94 Q2313.39 1258.55 2313.39 1264.94 Q2313.39 1271.3 2310.21 1274.94 Q2307.04 1278.55 2301.49 1278.55 Q2295.91 1278.55 2292.74 1274.94 Q2289.59 1271.3 2289.59 1264.94 Q2289.59 1258.55 2292.74 1254.94 Q2295.91 1251.33 2301.49 1251.33 Z" fill="#000000" fill-rule="nonzero" fill-opacity="1" /><path clip-path="url(#clip510)" d="M2342 1262.23 L2342 1277.88 L2337.74 1277.88 L2337.74 1262.37 Q2337.74 1258.69 2336.3 1256.86 Q2334.87 1255.03 2332 1255.03 Q2328.55 1255.03 2326.56 1257.23 Q2324.57 1259.43 2324.57 1263.23 L2324.57 1277.88 L2320.28 1277.88 L2320.28 1251.95 L2324.57 1251.95 L2324.57 1255.98 Q2326.09 1253.64 2328.15 1252.49 Q2330.24 1251.33 2332.95 1251.33 Q2337.41 1251.33 2339.71 1254.11 Q2342 1256.86 2342 1262.23 Z" fill="#000000" fill-rule="nonzero" fill-opacity="1" /><path clip-path="url(#clip510)" d="M2349.82 1241.91 L2353.52 1241.91 Q2357 1247.37 2358.71 1252.6 Q2360.45 1257.83 2360.45 1262.99 Q2360.45 1268.18 2358.71 1273.43 Q2357 1278.69 2353.52 1284.13 L2349.82 1284.13 Q2352.9 1278.83 2354.4 1273.6 Q2355.93 1268.34 2355.93 1262.99 Q2355.93 1257.65 2354.4 1252.44 Q2352.9 1247.23 2349.82 1241.91 Z" fill="#000000" fill-rule="nonzero" fill-opacity="1" /></svg>
