<?xml version="1.0" encoding="utf-8"?>
<svg xmlns="http://www.w3.org/2000/svg" xmlns:xlink="http://www.w3.org/1999/xlink" width="800" height="400" viewBox="0 0 3200 1600">
<defs>
  <clipPath id="clip400">
    <rect x="0" y="0" width="3200" height="1600"/>
  </clipPath>
</defs>
<path clip-path="url(#clip400)" d="M0 1600 L3200 1600 L3200 0 L0 0  Z" fill="#ffffff" fill-rule="evenodd" fill-opacity="1"/>
<defs>
  <clipPath id="clip401">
    <rect x="640" y="0" width="2241" height="1600"/>
  </clipPath>
</defs>
<path clip-path="url(#clip400)" d="M421.894 1380.71 L3089.76 1380.71 L3089.76 110.236 L421.894 110.236  Z" fill="#ffffff" fill-rule="evenodd" fill-opacity="1"/>
<defs>
  <clipPath id="clip402">
    <rect x="421" y="110" width="2669" height="1271"/>
  </clipPath>
</defs>
<polyline clip-path="url(#clip402)" style="stroke:#000000; stroke-linecap:round; stroke-linejoin:round; stroke-width:2; stroke-opacity:0.1; fill:none" points="436.516,1380.71 436.516,110.236 "/>
<polyline clip-path="url(#clip402)" style="stroke:#000000; stroke-linecap:round; stroke-linejoin:round; stroke-width:2; stroke-opacity:0.1; fill:none" points="873.776,1380.71 873.776,110.236 "/>
<polyline clip-path="url(#clip402)" style="stroke:#000000; stroke-linecap:round; stroke-linejoin:round; stroke-width:2; stroke-opacity:0.1; fill:none" points="1311.04,1380.71 1311.04,110.236 "/>
<polyline clip-path="url(#clip402)" style="stroke:#000000; stroke-linecap:round; stroke-linejoin:round; stroke-width:2; stroke-opacity:0.1; fill:none" points="1748.3,1380.71 1748.3,110.236 "/>
<polyline clip-path="url(#clip402)" style="stroke:#000000; stroke-linecap:round; stroke-linejoin:round; stroke-width:2; stroke-opacity:0.1; fill:none" points="2185.56,1380.71 2185.56,110.236 "/>
<polyline clip-path="url(#clip402)" style="stroke:#000000; stroke-linecap:round; stroke-linejoin:round; stroke-width:2; stroke-opacity:0.1; fill:none" points="2622.82,1380.71 2622.82,110.236 "/>
<polyline clip-path="url(#clip402)" style="stroke:#000000; stroke-linecap:round; stroke-linejoin:round; stroke-width:2; stroke-opacity:0.1; fill:none" points="3060.08,1380.71 3060.08,110.236 "/>
<polyline clip-path="url(#clip400)" style="stroke:#000000; stroke-linecap:round; stroke-linejoin:round; stroke-width:4; stroke-opacity:1; fill:none" points="421.894,1380.71 3089.76,1380.71 "/>
<polyline clip-path="url(#clip400)" style="stroke:#000000; stroke-linecap:round; stroke-linejoin:round; stroke-width:4; stroke-opacity:1; fill:none" points="436.516,1380.71 436.516,1361.81 "/>
<polyline clip-path="url(#clip400)" style="stroke:#000000; stroke-linecap:round; stroke-linejoin:round; stroke-width:4; stroke-opacity:1; fill:none" points="873.776,1380.71 873.776,1361.81 "/>
<polyline clip-path="url(#clip400)" style="stroke:#000000; stroke-linecap:round; stroke-linejoin:round; stroke-width:4; stroke-opacity:1; fill:none" points="1311.04,1380.71 1311.04,1361.81 "/>
<polyline clip-path="url(#clip400)" style="stroke:#000000; stroke-linecap:round; stroke-linejoin:round; stroke-width:4; stroke-opacity:1; fill:none" points="1748.3,1380.71 1748.3,1361.81 "/>
<polyline clip-path="url(#clip400)" style="stroke:#000000; stroke-linecap:round; stroke-linejoin:round; stroke-width:4; stroke-opacity:1; fill:none" points="2185.56,1380.71 2185.56,1361.81 "/>
<polyline clip-path="url(#clip400)" style="stroke:#000000; stroke-linecap:round; stroke-linejoin:round; stroke-width:4; stroke-opacity:1; fill:none" points="2622.82,1380.71 2622.82,1361.81 "/>
<polyline clip-path="url(#clip400)" style="stroke:#000000; stroke-linecap:round; stroke-linejoin:round; stroke-width:4; stroke-opacity:1; fill:none" points="3060.08,1380.71 3060.08,1361.81 "/>
<path clip-path="url(#clip400)" d="M398.866 1418.03 Q395.255 1418.03 393.426 1421.59 Q391.62 1425.13 391.62 1432.26 Q391.62 1439.37 393.426 1442.93 Q395.255 1446.48 398.866 1446.48 Q402.5 1446.48 404.306 1442.93 Q406.134 1439.37 406.134 1432.26 Q406.134 1425.13 404.306 1421.59 Q402.5 1418.03 398.866 1418.03 M398.866 1414.32 Q404.676 1414.32 407.731 1418.93 Q410.81 1423.51 410.81 1432.26 Q410.81 1440.99 407.731 1445.6 Q404.676 1450.18 398.866 1450.18 Q393.056 1450.18 389.977 1445.6 Q386.921 1440.99 386.921 1432.26 Q386.921 1423.51 389.977 1418.93 Q393.056 1414.32 398.866 1414.32 Z" fill="#000000" fill-rule="nonzero" fill-opacity="1" /><path clip-path="url(#clip400)" d="M419.028 1443.63 L423.912 1443.63 L423.912 1449.51 L419.028 1449.51 L419.028 1443.63 Z" fill="#000000" fill-rule="nonzero" fill-opacity="1" /><path clip-path="url(#clip400)" d="M444.097 1418.03 Q440.486 1418.03 438.657 1421.59 Q436.852 1425.13 436.852 1432.26 Q436.852 1439.37 438.657 1442.93 Q440.486 1446.48 444.097 1446.48 Q447.731 1446.48 449.537 1442.93 Q451.365 1439.37 451.365 1432.26 Q451.365 1425.13 449.537 1421.59 Q447.731 1418.03 444.097 1418.03 M444.097 1414.32 Q449.907 1414.32 452.963 1418.93 Q456.041 1423.51 456.041 1432.26 Q456.041 1440.99 452.963 1445.6 Q449.907 1450.18 444.097 1450.18 Q438.287 1450.18 435.208 1445.6 Q432.153 1440.99 432.153 1432.26 Q432.153 1423.51 435.208 1418.93 Q438.287 1414.32 444.097 1414.32 Z" fill="#000000" fill-rule="nonzero" fill-opacity="1" /><path clip-path="url(#clip400)" d="M474.259 1433.1 Q470.926 1433.1 469.004 1434.88 Q467.106 1436.66 467.106 1439.79 Q467.106 1442.91 469.004 1444.69 Q470.926 1446.48 474.259 1446.48 Q477.592 1446.48 479.513 1444.69 Q481.435 1442.89 481.435 1439.79 Q481.435 1436.66 479.513 1434.88 Q477.615 1433.1 474.259 1433.1 M469.583 1431.11 Q466.574 1430.36 464.884 1428.3 Q463.217 1426.24 463.217 1423.28 Q463.217 1419.14 466.157 1416.73 Q469.12 1414.32 474.259 1414.32 Q479.421 1414.32 482.361 1416.73 Q485.3 1419.14 485.3 1423.28 Q485.3 1426.24 483.611 1428.3 Q481.944 1430.36 478.958 1431.11 Q482.338 1431.89 484.213 1434.18 Q486.111 1436.48 486.111 1439.79 Q486.111 1444.81 483.032 1447.49 Q479.976 1450.18 474.259 1450.18 Q468.541 1450.18 465.463 1447.49 Q462.407 1444.81 462.407 1439.79 Q462.407 1436.48 464.305 1434.18 Q466.203 1431.89 469.583 1431.11 M467.87 1423.72 Q467.87 1426.41 469.537 1427.91 Q471.226 1429.42 474.259 1429.42 Q477.268 1429.42 478.958 1427.91 Q480.671 1426.41 480.671 1423.72 Q480.671 1421.04 478.958 1419.53 Q477.268 1418.03 474.259 1418.03 Q471.226 1418.03 469.537 1419.53 Q467.87 1421.04 467.87 1423.72 Z" fill="#000000" fill-rule="nonzero" fill-opacity="1" /><path clip-path="url(#clip400)" d="M836.172 1418.03 Q832.561 1418.03 830.733 1421.59 Q828.927 1425.13 828.927 1432.26 Q828.927 1439.37 830.733 1442.93 Q832.561 1446.48 836.172 1446.48 Q839.807 1446.48 841.612 1442.93 Q843.441 1439.37 843.441 1432.26 Q843.441 1425.13 841.612 1421.59 Q839.807 1418.03 836.172 1418.03 M836.172 1414.32 Q841.983 1414.32 845.038 1418.93 Q848.117 1423.51 848.117 1432.26 Q848.117 1440.99 845.038 1445.6 Q841.983 1450.18 836.172 1450.18 Q830.362 1450.18 827.284 1445.6 Q824.228 1440.99 824.228 1432.26 Q824.228 1423.51 827.284 1418.93 Q830.362 1414.32 836.172 1414.32 Z" fill="#000000" fill-rule="nonzero" fill-opacity="1" /><path clip-path="url(#clip400)" d="M856.334 1443.63 L861.219 1443.63 L861.219 1449.51 L856.334 1449.51 L856.334 1443.63 Z" fill="#000000" fill-rule="nonzero" fill-opacity="1" /><path clip-path="url(#clip400)" d="M881.404 1418.03 Q877.793 1418.03 875.964 1421.59 Q874.158 1425.13 874.158 1432.26 Q874.158 1439.37 875.964 1442.93 Q877.793 1446.48 881.404 1446.48 Q885.038 1446.48 886.843 1442.93 Q888.672 1439.37 888.672 1432.26 Q888.672 1425.13 886.843 1421.59 Q885.038 1418.03 881.404 1418.03 M881.404 1414.32 Q887.214 1414.32 890.269 1418.93 Q893.348 1423.51 893.348 1432.26 Q893.348 1440.99 890.269 1445.6 Q887.214 1450.18 881.404 1450.18 Q875.593 1450.18 872.515 1445.6 Q869.459 1440.99 869.459 1432.26 Q869.459 1423.51 872.515 1418.93 Q875.593 1414.32 881.404 1414.32 Z" fill="#000000" fill-rule="nonzero" fill-opacity="1" /><path clip-path="url(#clip400)" d="M901.704 1448.79 L901.704 1444.53 Q903.464 1445.36 905.269 1445.8 Q907.075 1446.24 908.811 1446.24 Q913.44 1446.24 915.871 1443.14 Q918.325 1440.02 918.672 1433.67 Q917.329 1435.67 915.269 1436.73 Q913.209 1437.79 910.709 1437.79 Q905.524 1437.79 902.491 1434.67 Q899.482 1431.52 899.482 1426.08 Q899.482 1420.76 902.63 1417.54 Q905.778 1414.32 911.01 1414.32 Q917.005 1414.32 920.153 1418.93 Q923.325 1423.51 923.325 1432.26 Q923.325 1440.43 919.436 1445.32 Q915.57 1450.18 909.019 1450.18 Q907.26 1450.18 905.454 1449.83 Q903.649 1449.48 901.704 1448.79 M911.01 1434.14 Q914.158 1434.14 915.987 1431.98 Q917.839 1429.83 917.839 1426.08 Q917.839 1422.36 915.987 1420.2 Q914.158 1418.03 911.01 1418.03 Q907.862 1418.03 906.01 1420.2 Q904.181 1422.36 904.181 1426.08 Q904.181 1429.83 906.01 1431.98 Q907.862 1434.14 911.01 1434.14 Z" fill="#000000" fill-rule="nonzero" fill-opacity="1" /><path clip-path="url(#clip400)" d="M1273.34 1418.03 Q1269.73 1418.03 1267.9 1421.59 Q1266.09 1425.13 1266.09 1432.26 Q1266.09 1439.37 1267.9 1442.93 Q1269.73 1446.48 1273.34 1446.48 Q1276.97 1446.48 1278.78 1442.93 Q1280.61 1439.37 1280.61 1432.26 Q1280.61 1425.13 1278.78 1421.59 Q1276.97 1418.03 1273.34 1418.03 M1273.34 1414.32 Q1279.15 1414.32 1282.21 1418.93 Q1285.28 1423.51 1285.28 1432.26 Q1285.28 1440.99 1282.21 1445.6 Q1279.15 1450.18 1273.34 1450.18 Q1267.53 1450.18 1264.45 1445.6 Q1261.4 1440.99 1261.4 1432.26 Q1261.4 1423.51 1264.45 1418.93 Q1267.53 1414.32 1273.34 1414.32 Z" fill="#000000" fill-rule="nonzero" fill-opacity="1" /><path clip-path="url(#clip400)" d="M1293.5 1443.63 L1298.39 1443.63 L1298.39 1449.51 L1293.5 1449.51 L1293.5 1443.63 Z" fill="#000000" fill-rule="nonzero" fill-opacity="1" /><path clip-path="url(#clip400)" d="M1309.38 1445.57 L1317.02 1445.57 L1317.02 1419.21 L1308.71 1420.87 L1308.71 1416.61 L1316.97 1414.95 L1321.65 1414.95 L1321.65 1445.57 L1329.29 1445.57 L1329.29 1449.51 L1309.38 1449.51 L1309.38 1445.57 Z" fill="#000000" fill-rule="nonzero" fill-opacity="1" /><path clip-path="url(#clip400)" d="M1348.73 1418.03 Q1345.12 1418.03 1343.29 1421.59 Q1341.49 1425.13 1341.49 1432.26 Q1341.49 1439.37 1343.29 1442.93 Q1345.12 1446.48 1348.73 1446.48 Q1352.37 1446.48 1354.17 1442.93 Q1356 1439.37 1356 1432.26 Q1356 1425.13 1354.17 1421.59 Q1352.37 1418.03 1348.73 1418.03 M1348.73 1414.32 Q1354.54 1414.32 1357.6 1418.93 Q1360.68 1423.51 1360.68 1432.26 Q1360.68 1440.99 1357.6 1445.6 Q1354.54 1450.18 1348.73 1450.18 Q1342.92 1450.18 1339.84 1445.6 Q1336.79 1440.99 1336.79 1432.26 Q1336.79 1423.51 1339.84 1418.93 Q1342.92 1414.32 1348.73 1414.32 Z" fill="#000000" fill-rule="nonzero" fill-opacity="1" /><path clip-path="url(#clip400)" d="M1711.21 1418.03 Q1707.6 1418.03 1705.77 1421.59 Q1703.97 1425.13 1703.97 1432.26 Q1703.97 1439.37 1705.77 1442.93 Q1707.6 1446.48 1711.21 1446.48 Q1714.85 1446.48 1716.65 1442.93 Q1718.48 1439.37 1718.48 1432.26 Q1718.48 1425.13 1716.65 1421.59 Q1714.85 1418.03 1711.21 1418.03 M1711.21 1414.32 Q1717.02 1414.32 1720.08 1418.93 Q1723.16 1423.51 1723.16 1432.26 Q1723.16 1440.99 1720.08 1445.6 Q1717.02 1450.18 1711.21 1450.18 Q1705.4 1450.18 1702.32 1445.6 Q1699.27 1440.99 1699.27 1432.26 Q1699.27 1423.51 1702.32 1418.93 Q1705.4 1414.32 1711.21 1414.32 Z" fill="#000000" fill-rule="nonzero" fill-opacity="1" /><path clip-path="url(#clip400)" d="M1731.38 1443.63 L1736.26 1443.63 L1736.26 1449.51 L1731.38 1449.51 L1731.38 1443.63 Z" fill="#000000" fill-rule="nonzero" fill-opacity="1" /><path clip-path="url(#clip400)" d="M1747.26 1445.57 L1754.89 1445.57 L1754.89 1419.21 L1746.58 1420.87 L1746.58 1416.61 L1754.85 1414.95 L1759.52 1414.95 L1759.52 1445.57 L1767.16 1445.57 L1767.16 1449.51 L1747.26 1449.51 L1747.26 1445.57 Z" fill="#000000" fill-rule="nonzero" fill-opacity="1" /><path clip-path="url(#clip400)" d="M1777.42 1445.57 L1785.06 1445.57 L1785.06 1419.21 L1776.75 1420.87 L1776.75 1416.61 L1785.01 1414.95 L1789.69 1414.95 L1789.69 1445.57 L1797.32 1445.57 L1797.32 1449.51 L1777.42 1449.51 L1777.42 1445.57 Z" fill="#000000" fill-rule="nonzero" fill-opacity="1" /><path clip-path="url(#clip400)" d="M2148.66 1418.03 Q2145.05 1418.03 2143.22 1421.59 Q2141.41 1425.13 2141.41 1432.26 Q2141.41 1439.37 2143.22 1442.93 Q2145.05 1446.48 2148.66 1446.48 Q2152.29 1446.48 2154.1 1442.93 Q2155.93 1439.37 2155.93 1432.26 Q2155.93 1425.13 2154.1 1421.59 Q2152.29 1418.03 2148.66 1418.03 M2148.66 1414.32 Q2154.47 1414.32 2157.53 1418.93 Q2160.6 1423.51 2160.6 1432.26 Q2160.6 1440.99 2157.53 1445.6 Q2154.47 1450.18 2148.66 1450.18 Q2142.85 1450.18 2139.77 1445.6 Q2136.71 1440.99 2136.71 1432.26 Q2136.71 1423.51 2139.77 1418.93 Q2142.85 1414.32 2148.66 1414.32 Z" fill="#000000" fill-rule="nonzero" fill-opacity="1" /><path clip-path="url(#clip400)" d="M2168.82 1443.63 L2173.71 1443.63 L2173.71 1449.51 L2168.82 1449.51 L2168.82 1443.63 Z" fill="#000000" fill-rule="nonzero" fill-opacity="1" /><path clip-path="url(#clip400)" d="M2184.7 1445.57 L2192.34 1445.57 L2192.34 1419.21 L2184.03 1420.87 L2184.03 1416.61 L2192.29 1414.95 L2196.97 1414.95 L2196.97 1445.57 L2204.61 1445.57 L2204.61 1449.51 L2184.7 1449.51 L2184.7 1445.57 Z" fill="#000000" fill-rule="nonzero" fill-opacity="1" /><path clip-path="url(#clip400)" d="M2218.08 1445.57 L2234.4 1445.57 L2234.4 1449.51 L2212.46 1449.51 L2212.46 1445.57 Q2215.12 1442.82 2219.7 1438.19 Q2224.31 1433.54 2225.49 1432.19 Q2227.73 1429.67 2228.61 1427.93 Q2229.52 1426.17 2229.52 1424.48 Q2229.52 1421.73 2227.57 1419.99 Q2225.65 1418.26 2222.55 1418.26 Q2220.35 1418.26 2217.9 1419.02 Q2215.46 1419.79 2212.69 1421.34 L2212.69 1416.61 Q2215.51 1415.48 2217.96 1414.9 Q2220.42 1414.32 2222.46 1414.32 Q2227.83 1414.32 2231.02 1417.01 Q2234.21 1419.69 2234.21 1424.18 Q2234.21 1426.31 2233.4 1428.23 Q2232.62 1430.13 2230.51 1432.73 Q2229.93 1433.4 2226.83 1436.61 Q2223.73 1439.81 2218.08 1445.57 Z" fill="#000000" fill-rule="nonzero" fill-opacity="1" /><path clip-path="url(#clip400)" d="M2585.45 1418.03 Q2581.83 1418.03 2580.01 1421.59 Q2578.2 1425.13 2578.2 1432.26 Q2578.2 1439.37 2580.01 1442.93 Q2581.83 1446.48 2585.45 1446.48 Q2589.08 1446.48 2590.88 1442.93 Q2592.71 1439.37 2592.71 1432.26 Q2592.71 1425.13 2590.88 1421.59 Q2589.08 1418.03 2585.45 1418.03 M2585.45 1414.32 Q2591.26 1414.32 2594.31 1418.93 Q2597.39 1423.51 2597.39 1432.26 Q2597.39 1440.99 2594.31 1445.6 Q2591.26 1450.18 2585.45 1450.18 Q2579.63 1450.18 2576.56 1445.6 Q2573.5 1440.99 2573.5 1432.26 Q2573.5 1423.51 2576.56 1418.93 Q2579.63 1414.32 2585.45 1414.32 Z" fill="#000000" fill-rule="nonzero" fill-opacity="1" /><path clip-path="url(#clip400)" d="M2605.61 1443.63 L2610.49 1443.63 L2610.49 1449.51 L2605.61 1449.51 L2605.61 1443.63 Z" fill="#000000" fill-rule="nonzero" fill-opacity="1" /><path clip-path="url(#clip400)" d="M2621.49 1445.57 L2629.13 1445.57 L2629.13 1419.21 L2620.82 1420.87 L2620.82 1416.61 L2629.08 1414.95 L2633.76 1414.95 L2633.76 1445.57 L2641.39 1445.57 L2641.39 1449.51 L2621.49 1449.51 L2621.49 1445.57 Z" fill="#000000" fill-rule="nonzero" fill-opacity="1" /><path clip-path="url(#clip400)" d="M2665 1430.87 Q2668.36 1431.59 2670.24 1433.86 Q2672.13 1436.13 2672.13 1439.46 Q2672.13 1444.58 2668.62 1447.38 Q2665.1 1450.18 2658.62 1450.18 Q2656.44 1450.18 2654.13 1449.74 Q2651.83 1449.32 2649.38 1448.47 L2649.38 1443.95 Q2651.32 1445.09 2653.64 1445.67 Q2655.95 1446.24 2658.48 1446.24 Q2662.88 1446.24 2665.17 1444.51 Q2667.48 1442.77 2667.48 1439.46 Q2667.48 1436.41 2665.33 1434.69 Q2663.2 1432.96 2659.38 1432.96 L2655.35 1432.96 L2655.35 1429.11 L2659.57 1429.11 Q2663.01 1429.11 2664.84 1427.75 Q2666.67 1426.36 2666.67 1423.77 Q2666.67 1421.11 2664.77 1419.69 Q2662.9 1418.26 2659.38 1418.26 Q2657.46 1418.26 2655.26 1418.67 Q2653.06 1419.09 2650.42 1419.97 L2650.42 1415.8 Q2653.08 1415.06 2655.4 1414.69 Q2657.74 1414.32 2659.8 1414.32 Q2665.12 1414.32 2668.22 1416.75 Q2671.32 1419.16 2671.32 1423.28 Q2671.32 1426.15 2669.68 1428.14 Q2668.04 1430.11 2665 1430.87 Z" fill="#000000" fill-rule="nonzero" fill-opacity="1" /><path clip-path="url(#clip400)" d="M3022.14 1418.03 Q3018.53 1418.03 3016.7 1421.59 Q3014.89 1425.13 3014.89 1432.26 Q3014.89 1439.37 3016.7 1442.93 Q3018.53 1446.48 3022.14 1446.48 Q3025.77 1446.48 3027.58 1442.93 Q3029.41 1439.37 3029.41 1432.26 Q3029.41 1425.13 3027.58 1421.59 Q3025.77 1418.03 3022.14 1418.03 M3022.14 1414.32 Q3027.95 1414.32 3031 1418.93 Q3034.08 1423.51 3034.08 1432.26 Q3034.08 1440.99 3031 1445.6 Q3027.95 1450.18 3022.14 1450.18 Q3016.33 1450.18 3013.25 1445.6 Q3010.19 1440.99 3010.19 1432.26 Q3010.19 1423.51 3013.25 1418.93 Q3016.33 1414.32 3022.14 1414.32 Z" fill="#000000" fill-rule="nonzero" fill-opacity="1" /><path clip-path="url(#clip400)" d="M3042.3 1443.63 L3047.18 1443.63 L3047.18 1449.51 L3042.3 1449.51 L3042.3 1443.63 Z" fill="#000000" fill-rule="nonzero" fill-opacity="1" /><path clip-path="url(#clip400)" d="M3058.18 1445.57 L3065.82 1445.57 L3065.82 1419.21 L3057.51 1420.87 L3057.51 1416.61 L3065.77 1414.95 L3070.45 1414.95 L3070.45 1445.57 L3078.09 1445.57 L3078.09 1449.51 L3058.18 1449.51 L3058.18 1445.57 Z" fill="#000000" fill-rule="nonzero" fill-opacity="1" /><path clip-path="url(#clip400)" d="M3100.38 1419.02 L3088.57 1437.47 L3100.38 1437.47 L3100.38 1419.02 M3099.15 1414.95 L3105.03 1414.95 L3105.03 1437.47 L3109.96 1437.47 L3109.96 1441.36 L3105.03 1441.36 L3105.03 1449.51 L3100.38 1449.51 L3100.38 1441.36 L3084.78 1441.36 L3084.78 1436.85 L3099.15 1414.95 Z" fill="#000000" fill-rule="nonzero" fill-opacity="1" /><path clip-path="url(#clip400)" d="M1539.01 1495.34 L1539.01 1532.29 L1546.78 1532.29 Q1556.61 1532.29 1561.17 1527.83 Q1565.75 1523.38 1565.75 1513.76 Q1565.75 1504.22 1561.17 1499.79 Q1556.61 1495.34 1546.78 1495.34 L1539.01 1495.34 M1532.58 1490.05 L1545.79 1490.05 Q1559.61 1490.05 1566.07 1495.81 Q1572.53 1501.54 1572.53 1513.76 Q1572.53 1526.05 1566.04 1531.81 Q1559.54 1537.57 1545.79 1537.57 L1532.58 1537.57 L1532.58 1490.05 Z" fill="#000000" fill-rule="nonzero" fill-opacity="1" /><path clip-path="url(#clip400)" d="M1582.52 1501.92 L1588.38 1501.92 L1588.38 1537.57 L1582.52 1537.57 L1582.52 1501.92 M1582.52 1488.05 L1588.38 1488.05 L1588.38 1495.46 L1582.52 1495.46 L1582.52 1488.05 Z" fill="#000000" fill-rule="nonzero" fill-opacity="1" /><path clip-path="url(#clip400)" d="M1623.36 1502.97 L1623.36 1508.51 Q1620.88 1507.24 1618.2 1506.6 Q1615.53 1505.97 1612.66 1505.97 Q1608.3 1505.97 1606.11 1507.3 Q1603.94 1508.64 1603.94 1511.31 Q1603.94 1513.35 1605.5 1514.53 Q1607.06 1515.67 1611.77 1516.72 L1613.78 1517.17 Q1620.02 1518.51 1622.63 1520.96 Q1625.27 1523.38 1625.27 1527.74 Q1625.27 1532.7 1621.32 1535.6 Q1617.41 1538.49 1610.53 1538.49 Q1607.67 1538.49 1604.55 1537.92 Q1601.46 1537.38 1598.02 1536.27 L1598.02 1530.22 Q1601.27 1531.91 1604.42 1532.77 Q1607.57 1533.59 1610.66 1533.59 Q1614.8 1533.59 1617.02 1532.19 Q1619.25 1530.76 1619.25 1528.18 Q1619.25 1525.8 1617.63 1524.52 Q1616.04 1523.25 1610.6 1522.07 L1608.56 1521.59 Q1603.12 1520.45 1600.7 1518.09 Q1598.28 1515.71 1598.28 1511.57 Q1598.28 1506.54 1601.84 1503.8 Q1605.41 1501.06 1611.96 1501.06 Q1615.21 1501.06 1618.08 1501.54 Q1620.94 1502.02 1623.36 1502.97 Z" fill="#000000" fill-rule="nonzero" fill-opacity="1" /><path clip-path="url(#clip400)" d="M1660.25 1503.29 L1660.25 1508.77 Q1657.77 1507.4 1655.25 1506.73 Q1652.77 1506.03 1650.22 1506.03 Q1644.52 1506.03 1641.37 1509.66 Q1638.22 1513.25 1638.22 1519.78 Q1638.22 1526.3 1641.37 1529.93 Q1644.52 1533.53 1650.22 1533.53 Q1652.77 1533.53 1655.25 1532.86 Q1657.77 1532.16 1660.25 1530.79 L1660.25 1536.2 Q1657.8 1537.35 1655.16 1537.92 Q1652.55 1538.49 1649.59 1538.49 Q1641.53 1538.49 1636.79 1533.43 Q1632.05 1528.37 1632.05 1519.78 Q1632.05 1511.06 1636.82 1506.06 Q1641.63 1501.06 1649.97 1501.06 Q1652.67 1501.06 1655.25 1501.64 Q1657.83 1502.18 1660.25 1503.29 Z" fill="#000000" fill-rule="nonzero" fill-opacity="1" /><path clip-path="url(#clip400)" d="M1684.25 1506.03 Q1679.54 1506.03 1676.8 1509.72 Q1674.06 1513.38 1674.06 1519.78 Q1674.06 1526.18 1676.77 1529.87 Q1679.5 1533.53 1684.25 1533.53 Q1688.93 1533.53 1691.66 1529.84 Q1694.4 1526.15 1694.4 1519.78 Q1694.4 1513.45 1691.66 1509.75 Q1688.93 1506.03 1684.25 1506.03 M1684.25 1501.06 Q1691.89 1501.06 1696.25 1506.03 Q1700.61 1510.99 1700.61 1519.78 Q1700.61 1528.53 1696.25 1533.53 Q1691.89 1538.49 1684.25 1538.49 Q1676.58 1538.49 1672.22 1533.53 Q1667.89 1528.53 1667.89 1519.78 Q1667.89 1510.99 1672.22 1506.03 Q1676.58 1501.06 1684.25 1501.06 Z" fill="#000000" fill-rule="nonzero" fill-opacity="1" /><path clip-path="url(#clip400)" d="M1709.71 1523.5 L1709.71 1501.92 L1715.57 1501.92 L1715.57 1523.28 Q1715.57 1528.34 1717.54 1530.89 Q1719.51 1533.4 1723.46 1533.4 Q1728.2 1533.4 1730.94 1530.38 Q1733.71 1527.35 1733.71 1522.13 L1733.71 1501.92 L1739.56 1501.92 L1739.56 1537.57 L1733.71 1537.57 L1733.71 1532.1 Q1731.58 1535.34 1728.74 1536.94 Q1725.94 1538.49 1722.22 1538.49 Q1716.08 1538.49 1712.89 1534.68 Q1709.71 1530.86 1709.71 1523.5 M1724.45 1501.06 L1724.45 1501.06 Z" fill="#000000" fill-rule="nonzero" fill-opacity="1" /><path clip-path="url(#clip400)" d="M1781.26 1516.06 L1781.26 1537.57 L1775.4 1537.57 L1775.4 1516.25 Q1775.4 1511.19 1773.43 1508.67 Q1771.46 1506.16 1767.51 1506.16 Q1762.77 1506.16 1760.03 1509.18 Q1757.29 1512.2 1757.29 1517.42 L1757.29 1537.57 L1751.4 1537.57 L1751.4 1501.92 L1757.29 1501.92 L1757.29 1507.46 Q1759.39 1504.25 1762.23 1502.66 Q1765.09 1501.06 1768.82 1501.06 Q1774.96 1501.06 1778.11 1504.88 Q1781.26 1508.67 1781.26 1516.06 Z" fill="#000000" fill-rule="nonzero" fill-opacity="1" /><path clip-path="url(#clip400)" d="M1798.73 1491.8 L1798.73 1501.92 L1810.8 1501.92 L1810.8 1506.48 L1798.73 1506.48 L1798.73 1525.83 Q1798.73 1530.19 1799.91 1531.43 Q1801.12 1532.67 1804.78 1532.67 L1810.8 1532.67 L1810.8 1537.57 L1804.78 1537.57 Q1798 1537.57 1795.42 1535.06 Q1792.85 1532.51 1792.85 1525.83 L1792.85 1506.48 L1788.55 1506.48 L1788.55 1501.92 L1792.85 1501.92 L1792.85 1491.8 L1798.73 1491.8 Z" fill="#000000" fill-rule="nonzero" fill-opacity="1" /><path clip-path="url(#clip400)" d="M1862.01 1515.29 Q1864.08 1515.99 1866.02 1518.28 Q1867.99 1520.58 1869.97 1524.59 L1876.49 1537.57 L1869.58 1537.57 L1863.5 1525.38 Q1861.15 1520.61 1858.92 1519.05 Q1856.73 1517.49 1852.91 1517.49 L1845.9 1517.49 L1845.9 1537.57 L1839.47 1537.57 L1839.47 1490.05 L1853.99 1490.05 Q1862.14 1490.05 1866.15 1493.46 Q1870.16 1496.86 1870.16 1503.74 Q1870.16 1508.23 1868.06 1511.19 Q1865.99 1514.15 1862.01 1515.29 M1845.9 1495.34 L1845.9 1512.2 L1853.99 1512.2 Q1858.64 1512.2 1860.99 1510.07 Q1863.38 1507.91 1863.38 1503.74 Q1863.38 1499.57 1860.99 1497.47 Q1858.64 1495.34 1853.99 1495.34 L1845.9 1495.34 Z" fill="#000000" fill-rule="nonzero" fill-opacity="1" /><path clip-path="url(#clip400)" d="M1899.28 1519.65 Q1892.18 1519.65 1889.45 1521.28 Q1886.71 1522.9 1886.71 1526.81 Q1886.71 1529.93 1888.74 1531.78 Q1890.81 1533.59 1894.35 1533.59 Q1899.22 1533.59 1902.14 1530.16 Q1905.1 1526.69 1905.1 1520.96 L1905.1 1519.65 L1899.28 1519.65 M1910.96 1517.23 L1910.96 1537.57 L1905.1 1537.57 L1905.1 1532.16 Q1903.1 1535.41 1900.11 1536.97 Q1897.12 1538.49 1892.79 1538.49 Q1887.31 1538.49 1884.07 1535.44 Q1880.85 1532.35 1880.85 1527.2 Q1880.85 1521.18 1884.86 1518.12 Q1888.9 1515.07 1896.89 1515.07 L1905.1 1515.07 L1905.1 1514.5 Q1905.1 1510.45 1902.43 1508.26 Q1899.79 1506.03 1894.98 1506.03 Q1891.93 1506.03 1889.03 1506.76 Q1886.14 1507.49 1883.46 1508.96 L1883.46 1503.55 Q1886.68 1502.31 1889.7 1501.7 Q1892.72 1501.06 1895.59 1501.06 Q1903.32 1501.06 1907.14 1505.07 Q1910.96 1509.09 1910.96 1517.23 Z" fill="#000000" fill-rule="nonzero" fill-opacity="1" /><path clip-path="url(#clip400)" d="M1928.82 1491.8 L1928.82 1501.92 L1940.88 1501.92 L1940.88 1506.48 L1928.82 1506.48 L1928.82 1525.83 Q1928.82 1530.19 1929.99 1531.43 Q1931.2 1532.67 1934.86 1532.67 L1940.88 1532.67 L1940.88 1537.57 L1934.86 1537.57 Q1928.09 1537.57 1925.51 1535.06 Q1922.93 1532.51 1922.93 1525.83 L1922.93 1506.48 L1918.63 1506.48 L1918.63 1501.92 L1922.93 1501.92 L1922.93 1491.8 L1928.82 1491.8 Z" fill="#000000" fill-rule="nonzero" fill-opacity="1" /><path clip-path="url(#clip400)" d="M1979.07 1518.28 L1979.07 1521.15 L1952.15 1521.15 Q1952.53 1527.2 1955.78 1530.38 Q1959.05 1533.53 1964.88 1533.53 Q1968.25 1533.53 1971.4 1532.7 Q1974.59 1531.87 1977.71 1530.22 L1977.71 1535.76 Q1974.55 1537.09 1971.24 1537.79 Q1967.93 1538.49 1964.53 1538.49 Q1956 1538.49 1951 1533.53 Q1946.04 1528.56 1946.04 1520.1 Q1946.04 1511.35 1950.75 1506.22 Q1955.49 1501.06 1963.51 1501.06 Q1970.7 1501.06 1974.87 1505.71 Q1979.07 1510.33 1979.07 1518.28 M1973.22 1516.56 Q1973.15 1511.76 1970.51 1508.89 Q1967.9 1506.03 1963.57 1506.03 Q1958.67 1506.03 1955.71 1508.8 Q1952.78 1511.57 1952.34 1516.6 L1973.22 1516.56 Z" fill="#000000" fill-rule="nonzero" fill-opacity="1" /><polyline clip-path="url(#clip402)" style="stroke:#000000; stroke-linecap:round; stroke-linejoin:round; stroke-width:2; stroke-opacity:0.1; fill:none" points="421.894,1176.9 3089.76,1176.9 "/>
<polyline clip-path="url(#clip402)" style="stroke:#000000; stroke-linecap:round; stroke-linejoin:round; stroke-width:2; stroke-opacity:0.1; fill:none" points="421.894,880.24 3089.76,880.24 "/>
<polyline clip-path="url(#clip402)" style="stroke:#000000; stroke-linecap:round; stroke-linejoin:round; stroke-width:2; stroke-opacity:0.1; fill:none" points="421.894,583.583 3089.76,583.583 "/>
<polyline clip-path="url(#clip402)" style="stroke:#000000; stroke-linecap:round; stroke-linejoin:round; stroke-width:2; stroke-opacity:0.1; fill:none" points="421.894,286.927 3089.76,286.927 "/>
<polyline clip-path="url(#clip400)" style="stroke:#000000; stroke-linecap:round; stroke-linejoin:round; stroke-width:4; stroke-opacity:1; fill:none" points="421.894,1380.71 421.894,110.236 "/>
<polyline clip-path="url(#clip400)" style="stroke:#000000; stroke-linecap:round; stroke-linejoin:round; stroke-width:4; stroke-opacity:1; fill:none" points="421.894,1176.9 440.792,1176.9 "/>
<polyline clip-path="url(#clip400)" style="stroke:#000000; stroke-linecap:round; stroke-linejoin:round; stroke-width:4; stroke-opacity:1; fill:none" points="421.894,880.24 440.792,880.24 "/>
<polyline clip-path="url(#clip400)" style="stroke:#000000; stroke-linecap:round; stroke-linejoin:round; stroke-width:4; stroke-opacity:1; fill:none" points="421.894,583.583 440.792,583.583 "/>
<polyline clip-path="url(#clip400)" style="stroke:#000000; stroke-linecap:round; stroke-linejoin:round; stroke-width:4; stroke-opacity:1; fill:none" points="421.894,286.927 440.792,286.927 "/>
<path clip-path="url(#clip400)" d="M161.372 1177.35 L191.048 1177.35 L191.048 1181.28 L161.372 1181.28 L161.372 1177.35 Z" fill="#000000" fill-rule="nonzero" fill-opacity="1" /><path clip-path="url(#clip400)" d="M211.141 1177.77 Q207.807 1177.77 205.886 1179.55 Q203.988 1181.33 203.988 1184.45 Q203.988 1187.58 205.886 1189.36 Q207.807 1191.14 211.141 1191.14 Q214.474 1191.14 216.395 1189.36 Q218.316 1187.56 218.316 1184.45 Q218.316 1181.33 216.395 1179.55 Q214.497 1177.77 211.141 1177.77 M206.465 1175.77 Q203.455 1175.03 201.766 1172.97 Q200.099 1170.91 200.099 1167.95 Q200.099 1163.81 203.039 1161.4 Q206.002 1158.99 211.141 1158.99 Q216.303 1158.99 219.242 1161.4 Q222.182 1163.81 222.182 1167.95 Q222.182 1170.91 220.492 1172.97 Q218.826 1175.03 215.84 1175.77 Q219.219 1176.56 221.094 1178.85 Q222.992 1181.14 222.992 1184.45 Q222.992 1189.48 219.914 1192.16 Q216.858 1194.85 211.141 1194.85 Q205.423 1194.85 202.344 1192.16 Q199.289 1189.48 199.289 1184.45 Q199.289 1181.14 201.187 1178.85 Q203.085 1176.56 206.465 1175.77 M204.752 1168.39 Q204.752 1171.08 206.418 1172.58 Q208.108 1174.08 211.141 1174.08 Q214.15 1174.08 215.84 1172.58 Q217.553 1171.08 217.553 1168.39 Q217.553 1165.7 215.84 1164.2 Q214.15 1162.7 211.141 1162.7 Q208.108 1162.7 206.418 1164.2 Q204.752 1165.7 204.752 1168.39 Z" fill="#000000" fill-rule="nonzero" fill-opacity="1" /><path clip-path="url(#clip400)" d="M241.302 1162.7 Q237.691 1162.7 235.863 1166.26 Q234.057 1169.8 234.057 1176.93 Q234.057 1184.04 235.863 1187.6 Q237.691 1191.14 241.302 1191.14 Q244.937 1191.14 246.742 1187.6 Q248.571 1184.04 248.571 1176.93 Q248.571 1169.8 246.742 1166.26 Q244.937 1162.7 241.302 1162.7 M241.302 1158.99 Q247.113 1158.99 250.168 1163.6 Q253.247 1168.18 253.247 1176.93 Q253.247 1185.66 250.168 1190.26 Q247.113 1194.85 241.302 1194.85 Q235.492 1194.85 232.414 1190.26 Q229.358 1185.66 229.358 1176.93 Q229.358 1168.18 232.414 1163.6 Q235.492 1158.99 241.302 1158.99 Z" fill="#000000" fill-rule="nonzero" fill-opacity="1" /><path clip-path="url(#clip400)" d="M271.464 1162.7 Q267.853 1162.7 266.025 1166.26 Q264.219 1169.8 264.219 1176.93 Q264.219 1184.04 266.025 1187.6 Q267.853 1191.14 271.464 1191.14 Q275.099 1191.14 276.904 1187.6 Q278.733 1184.04 278.733 1176.93 Q278.733 1169.8 276.904 1166.26 Q275.099 1162.7 271.464 1162.7 M271.464 1158.99 Q277.274 1158.99 280.33 1163.6 Q283.409 1168.18 283.409 1176.93 Q283.409 1185.66 280.33 1190.26 Q277.274 1194.85 271.464 1194.85 Q265.654 1194.85 262.575 1190.26 Q259.52 1185.66 259.52 1176.93 Q259.52 1168.18 262.575 1163.6 Q265.654 1158.99 271.464 1158.99 Z" fill="#000000" fill-rule="nonzero" fill-opacity="1" /><path clip-path="url(#clip400)" d="M301.626 1162.7 Q298.015 1162.7 296.186 1166.26 Q294.381 1169.8 294.381 1176.93 Q294.381 1184.04 296.186 1187.6 Q298.015 1191.14 301.626 1191.14 Q305.26 1191.14 307.066 1187.6 Q308.895 1184.04 308.895 1176.93 Q308.895 1169.8 307.066 1166.26 Q305.26 1162.7 301.626 1162.7 M301.626 1158.99 Q307.436 1158.99 310.492 1163.6 Q313.571 1168.18 313.571 1176.93 Q313.571 1185.66 310.492 1190.26 Q307.436 1194.85 301.626 1194.85 Q295.816 1194.85 292.737 1190.26 Q289.682 1185.66 289.682 1176.93 Q289.682 1168.18 292.737 1163.6 Q295.816 1158.99 301.626 1158.99 Z" fill="#000000" fill-rule="nonzero" fill-opacity="1" /><path clip-path="url(#clip400)" d="M331.788 1162.7 Q328.177 1162.7 326.348 1166.26 Q324.543 1169.8 324.543 1176.93 Q324.543 1184.04 326.348 1187.6 Q328.177 1191.14 331.788 1191.14 Q335.422 1191.14 337.228 1187.6 Q339.057 1184.04 339.057 1176.93 Q339.057 1169.8 337.228 1166.26 Q335.422 1162.7 331.788 1162.7 M331.788 1158.99 Q337.598 1158.99 340.654 1163.6 Q343.732 1168.18 343.732 1176.93 Q343.732 1185.66 340.654 1190.26 Q337.598 1194.85 331.788 1194.85 Q325.978 1194.85 322.899 1190.26 Q319.844 1185.66 319.844 1176.93 Q319.844 1168.18 322.899 1163.6 Q325.978 1158.99 331.788 1158.99 Z" fill="#000000" fill-rule="nonzero" fill-opacity="1" /><path clip-path="url(#clip400)" d="M361.95 1162.7 Q358.339 1162.7 356.51 1166.26 Q354.705 1169.8 354.705 1176.93 Q354.705 1184.04 356.51 1187.6 Q358.339 1191.14 361.95 1191.14 Q365.584 1191.14 367.39 1187.6 Q369.218 1184.04 369.218 1176.93 Q369.218 1169.8 367.39 1166.26 Q365.584 1162.7 361.95 1162.7 M361.95 1158.99 Q367.76 1158.99 370.816 1163.6 Q373.894 1168.18 373.894 1176.93 Q373.894 1185.66 370.816 1190.26 Q367.76 1194.85 361.95 1194.85 Q356.14 1194.85 353.061 1190.26 Q350.006 1185.66 350.006 1176.93 Q350.006 1168.18 353.061 1163.6 Q356.14 1158.99 361.95 1158.99 Z" fill="#000000" fill-rule="nonzero" fill-opacity="1" /><path clip-path="url(#clip400)" d="M161.372 880.692 L191.048 880.692 L191.048 884.627 L161.372 884.627 L161.372 880.692 Z" fill="#000000" fill-rule="nonzero" fill-opacity="1" /><path clip-path="url(#clip400)" d="M211.719 878.377 Q208.571 878.377 206.719 880.53 Q204.891 882.682 204.891 886.432 Q204.891 890.159 206.719 892.335 Q208.571 894.488 211.719 894.488 Q214.867 894.488 216.696 892.335 Q218.548 890.159 218.548 886.432 Q218.548 882.682 216.696 880.53 Q214.867 878.377 211.719 878.377 M221.002 863.724 L221.002 867.983 Q219.242 867.15 217.437 866.71 Q215.654 866.27 213.895 866.27 Q209.266 866.27 206.812 869.395 Q204.381 872.52 204.034 878.84 Q205.4 876.826 207.46 875.761 Q209.52 874.673 211.997 874.673 Q217.205 874.673 220.215 877.844 Q223.247 880.992 223.247 886.432 Q223.247 891.756 220.099 894.974 Q216.951 898.191 211.719 898.191 Q205.724 898.191 202.553 893.608 Q199.381 889.002 199.381 880.275 Q199.381 872.08 203.27 867.219 Q207.159 862.335 213.71 862.335 Q215.469 862.335 217.252 862.682 Q219.057 863.03 221.002 863.724 Z" fill="#000000" fill-rule="nonzero" fill-opacity="1" /><path clip-path="url(#clip400)" d="M241.302 866.039 Q237.691 866.039 235.863 869.604 Q234.057 873.145 234.057 880.275 Q234.057 887.381 235.863 890.946 Q237.691 894.488 241.302 894.488 Q244.937 894.488 246.742 890.946 Q248.571 887.381 248.571 880.275 Q248.571 873.145 246.742 869.604 Q244.937 866.039 241.302 866.039 M241.302 862.335 Q247.113 862.335 250.168 866.942 Q253.247 871.525 253.247 880.275 Q253.247 889.002 250.168 893.608 Q247.113 898.191 241.302 898.191 Q235.492 898.191 232.414 893.608 Q229.358 889.002 229.358 880.275 Q229.358 871.525 232.414 866.942 Q235.492 862.335 241.302 862.335 Z" fill="#000000" fill-rule="nonzero" fill-opacity="1" /><path clip-path="url(#clip400)" d="M271.464 866.039 Q267.853 866.039 266.025 869.604 Q264.219 873.145 264.219 880.275 Q264.219 887.381 266.025 890.946 Q267.853 894.488 271.464 894.488 Q275.099 894.488 276.904 890.946 Q278.733 887.381 278.733 880.275 Q278.733 873.145 276.904 869.604 Q275.099 866.039 271.464 866.039 M271.464 862.335 Q277.274 862.335 280.33 866.942 Q283.409 871.525 283.409 880.275 Q283.409 889.002 280.33 893.608 Q277.274 898.191 271.464 898.191 Q265.654 898.191 262.575 893.608 Q259.52 889.002 259.52 880.275 Q259.52 871.525 262.575 866.942 Q265.654 862.335 271.464 862.335 Z" fill="#000000" fill-rule="nonzero" fill-opacity="1" /><path clip-path="url(#clip400)" d="M301.626 866.039 Q298.015 866.039 296.186 869.604 Q294.381 873.145 294.381 880.275 Q294.381 887.381 296.186 890.946 Q298.015 894.488 301.626 894.488 Q305.26 894.488 307.066 890.946 Q308.895 887.381 308.895 880.275 Q308.895 873.145 307.066 869.604 Q305.26 866.039 301.626 866.039 M301.626 862.335 Q307.436 862.335 310.492 866.942 Q313.571 871.525 313.571 880.275 Q313.571 889.002 310.492 893.608 Q307.436 898.191 301.626 898.191 Q295.816 898.191 292.737 893.608 Q289.682 889.002 289.682 880.275 Q289.682 871.525 292.737 866.942 Q295.816 862.335 301.626 862.335 Z" fill="#000000" fill-rule="nonzero" fill-opacity="1" /><path clip-path="url(#clip400)" d="M331.788 866.039 Q328.177 866.039 326.348 869.604 Q324.543 873.145 324.543 880.275 Q324.543 887.381 326.348 890.946 Q328.177 894.488 331.788 894.488 Q335.422 894.488 337.228 890.946 Q339.057 887.381 339.057 880.275 Q339.057 873.145 337.228 869.604 Q335.422 866.039 331.788 866.039 M331.788 862.335 Q337.598 862.335 340.654 866.942 Q343.732 871.525 343.732 880.275 Q343.732 889.002 340.654 893.608 Q337.598 898.191 331.788 898.191 Q325.978 898.191 322.899 893.608 Q319.844 889.002 319.844 880.275 Q319.844 871.525 322.899 866.942 Q325.978 862.335 331.788 862.335 Z" fill="#000000" fill-rule="nonzero" fill-opacity="1" /><path clip-path="url(#clip400)" d="M361.95 866.039 Q358.339 866.039 356.51 869.604 Q354.705 873.145 354.705 880.275 Q354.705 887.381 356.51 890.946 Q358.339 894.488 361.95 894.488 Q365.584 894.488 367.39 890.946 Q369.218 887.381 369.218 880.275 Q369.218 873.145 367.39 869.604 Q365.584 866.039 361.95 866.039 M361.95 862.335 Q367.76 862.335 370.816 866.942 Q373.894 871.525 373.894 880.275 Q373.894 889.002 370.816 893.608 Q367.76 898.191 361.95 898.191 Q356.14 898.191 353.061 893.608 Q350.006 889.002 350.006 880.275 Q350.006 871.525 353.061 866.942 Q356.14 862.335 361.95 862.335 Z" fill="#000000" fill-rule="nonzero" fill-opacity="1" /><path clip-path="url(#clip400)" d="M161.372 584.035 L191.048 584.035 L191.048 587.97 L161.372 587.97 L161.372 584.035 Z" fill="#000000" fill-rule="nonzero" fill-opacity="1" /><path clip-path="url(#clip400)" d="M213.988 570.377 L202.182 588.826 L213.988 588.826 L213.988 570.377 M212.761 566.303 L218.64 566.303 L218.64 588.826 L223.571 588.826 L223.571 592.715 L218.64 592.715 L218.64 600.863 L213.988 600.863 L213.988 592.715 L198.386 592.715 L198.386 588.201 L212.761 566.303 Z" fill="#000000" fill-rule="nonzero" fill-opacity="1" /><path clip-path="url(#clip400)" d="M241.302 569.382 Q237.691 569.382 235.863 572.947 Q234.057 576.488 234.057 583.618 Q234.057 590.725 235.863 594.289 Q237.691 597.831 241.302 597.831 Q244.937 597.831 246.742 594.289 Q248.571 590.725 248.571 583.618 Q248.571 576.488 246.742 572.947 Q244.937 569.382 241.302 569.382 M241.302 565.678 Q247.113 565.678 250.168 570.285 Q253.247 574.868 253.247 583.618 Q253.247 592.345 250.168 596.951 Q247.113 601.535 241.302 601.535 Q235.492 601.535 232.414 596.951 Q229.358 592.345 229.358 583.618 Q229.358 574.868 232.414 570.285 Q235.492 565.678 241.302 565.678 Z" fill="#000000" fill-rule="nonzero" fill-opacity="1" /><path clip-path="url(#clip400)" d="M271.464 569.382 Q267.853 569.382 266.025 572.947 Q264.219 576.488 264.219 583.618 Q264.219 590.725 266.025 594.289 Q267.853 597.831 271.464 597.831 Q275.099 597.831 276.904 594.289 Q278.733 590.725 278.733 583.618 Q278.733 576.488 276.904 572.947 Q275.099 569.382 271.464 569.382 M271.464 565.678 Q277.274 565.678 280.33 570.285 Q283.409 574.868 283.409 583.618 Q283.409 592.345 280.33 596.951 Q277.274 601.535 271.464 601.535 Q265.654 601.535 262.575 596.951 Q259.52 592.345 259.52 583.618 Q259.52 574.868 262.575 570.285 Q265.654 565.678 271.464 565.678 Z" fill="#000000" fill-rule="nonzero" fill-opacity="1" /><path clip-path="url(#clip400)" d="M301.626 569.382 Q298.015 569.382 296.186 572.947 Q294.381 576.488 294.381 583.618 Q294.381 590.725 296.186 594.289 Q298.015 597.831 301.626 597.831 Q305.26 597.831 307.066 594.289 Q308.895 590.725 308.895 583.618 Q308.895 576.488 307.066 572.947 Q305.26 569.382 301.626 569.382 M301.626 565.678 Q307.436 565.678 310.492 570.285 Q313.571 574.868 313.571 583.618 Q313.571 592.345 310.492 596.951 Q307.436 601.535 301.626 601.535 Q295.816 601.535 292.737 596.951 Q289.682 592.345 289.682 583.618 Q289.682 574.868 292.737 570.285 Q295.816 565.678 301.626 565.678 Z" fill="#000000" fill-rule="nonzero" fill-opacity="1" /><path clip-path="url(#clip400)" d="M331.788 569.382 Q328.177 569.382 326.348 572.947 Q324.543 576.488 324.543 583.618 Q324.543 590.725 326.348 594.289 Q328.177 597.831 331.788 597.831 Q335.422 597.831 337.228 594.289 Q339.057 590.725 339.057 583.618 Q339.057 576.488 337.228 572.947 Q335.422 569.382 331.788 569.382 M331.788 565.678 Q337.598 565.678 340.654 570.285 Q343.732 574.868 343.732 583.618 Q343.732 592.345 340.654 596.951 Q337.598 601.535 331.788 601.535 Q325.978 601.535 322.899 596.951 Q319.844 592.345 319.844 583.618 Q319.844 574.868 322.899 570.285 Q325.978 565.678 331.788 565.678 Z" fill="#000000" fill-rule="nonzero" fill-opacity="1" /><path clip-path="url(#clip400)" d="M361.95 569.382 Q358.339 569.382 356.51 572.947 Q354.705 576.488 354.705 583.618 Q354.705 590.725 356.51 594.289 Q358.339 597.831 361.95 597.831 Q365.584 597.831 367.39 594.289 Q369.218 590.725 369.218 583.618 Q369.218 576.488 367.39 572.947 Q365.584 569.382 361.95 569.382 M361.95 565.678 Q367.76 565.678 370.816 570.285 Q373.894 574.868 373.894 583.618 Q373.894 592.345 370.816 596.951 Q367.76 601.535 361.95 601.535 Q356.14 601.535 353.061 596.951 Q350.006 592.345 350.006 583.618 Q350.006 574.868 353.061 570.285 Q356.14 565.678 361.95 565.678 Z" fill="#000000" fill-rule="nonzero" fill-opacity="1" /><path clip-path="url(#clip400)" d="M161.372 287.378 L191.048 287.378 L191.048 291.313 L161.372 291.313 L161.372 287.378 Z" fill="#000000" fill-rule="nonzero" fill-opacity="1" /><path clip-path="url(#clip400)" d="M205.168 300.271 L221.488 300.271 L221.488 304.207 L199.543 304.207 L199.543 300.271 Q202.205 297.517 206.789 292.887 Q211.395 288.234 212.576 286.892 Q214.821 284.369 215.701 282.633 Q216.603 280.873 216.603 279.184 Q216.603 276.429 214.659 274.693 Q212.738 272.957 209.636 272.957 Q207.437 272.957 204.983 273.721 Q202.553 274.484 199.775 276.035 L199.775 271.313 Q202.599 270.179 205.053 269.6 Q207.506 269.022 209.543 269.022 Q214.914 269.022 218.108 271.707 Q221.303 274.392 221.303 278.883 Q221.303 281.012 220.492 282.933 Q219.705 284.832 217.599 287.424 Q217.02 288.096 213.918 291.313 Q210.816 294.508 205.168 300.271 Z" fill="#000000" fill-rule="nonzero" fill-opacity="1" /><path clip-path="url(#clip400)" d="M241.302 272.725 Q237.691 272.725 235.863 276.29 Q234.057 279.832 234.057 286.961 Q234.057 294.068 235.863 297.632 Q237.691 301.174 241.302 301.174 Q244.937 301.174 246.742 297.632 Q248.571 294.068 248.571 286.961 Q248.571 279.832 246.742 276.29 Q244.937 272.725 241.302 272.725 M241.302 269.022 Q247.113 269.022 250.168 273.628 Q253.247 278.211 253.247 286.961 Q253.247 295.688 250.168 300.295 Q247.113 304.878 241.302 304.878 Q235.492 304.878 232.414 300.295 Q229.358 295.688 229.358 286.961 Q229.358 278.211 232.414 273.628 Q235.492 269.022 241.302 269.022 Z" fill="#000000" fill-rule="nonzero" fill-opacity="1" /><path clip-path="url(#clip400)" d="M271.464 272.725 Q267.853 272.725 266.025 276.29 Q264.219 279.832 264.219 286.961 Q264.219 294.068 266.025 297.632 Q267.853 301.174 271.464 301.174 Q275.099 301.174 276.904 297.632 Q278.733 294.068 278.733 286.961 Q278.733 279.832 276.904 276.29 Q275.099 272.725 271.464 272.725 M271.464 269.022 Q277.274 269.022 280.33 273.628 Q283.409 278.211 283.409 286.961 Q283.409 295.688 280.33 300.295 Q277.274 304.878 271.464 304.878 Q265.654 304.878 262.575 300.295 Q259.52 295.688 259.52 286.961 Q259.52 278.211 262.575 273.628 Q265.654 269.022 271.464 269.022 Z" fill="#000000" fill-rule="nonzero" fill-opacity="1" /><path clip-path="url(#clip400)" d="M301.626 272.725 Q298.015 272.725 296.186 276.29 Q294.381 279.832 294.381 286.961 Q294.381 294.068 296.186 297.632 Q298.015 301.174 301.626 301.174 Q305.26 301.174 307.066 297.632 Q308.895 294.068 308.895 286.961 Q308.895 279.832 307.066 276.29 Q305.26 272.725 301.626 272.725 M301.626 269.022 Q307.436 269.022 310.492 273.628 Q313.571 278.211 313.571 286.961 Q313.571 295.688 310.492 300.295 Q307.436 304.878 301.626 304.878 Q295.816 304.878 292.737 300.295 Q289.682 295.688 289.682 286.961 Q289.682 278.211 292.737 273.628 Q295.816 269.022 301.626 269.022 Z" fill="#000000" fill-rule="nonzero" fill-opacity="1" /><path clip-path="url(#clip400)" d="M331.788 272.725 Q328.177 272.725 326.348 276.29 Q324.543 279.832 324.543 286.961 Q324.543 294.068 326.348 297.632 Q328.177 301.174 331.788 301.174 Q335.422 301.174 337.228 297.632 Q339.057 294.068 339.057 286.961 Q339.057 279.832 337.228 276.29 Q335.422 272.725 331.788 272.725 M331.788 269.022 Q337.598 269.022 340.654 273.628 Q343.732 278.211 343.732 286.961 Q343.732 295.688 340.654 300.295 Q337.598 304.878 331.788 304.878 Q325.978 304.878 322.899 300.295 Q319.844 295.688 319.844 286.961 Q319.844 278.211 322.899 273.628 Q325.978 269.022 331.788 269.022 Z" fill="#000000" fill-rule="nonzero" fill-opacity="1" /><path clip-path="url(#clip400)" d="M361.95 272.725 Q358.339 272.725 356.51 276.29 Q354.705 279.832 354.705 286.961 Q354.705 294.068 356.51 297.632 Q358.339 301.174 361.95 301.174 Q365.584 301.174 367.39 297.632 Q369.218 294.068 369.218 286.961 Q369.218 279.832 367.39 276.29 Q365.584 272.725 361.95 272.725 M361.95 269.022 Q367.76 269.022 370.816 273.628 Q373.894 278.211 373.894 286.961 Q373.894 295.688 370.816 300.295 Q367.76 304.878 361.95 304.878 Q356.14 304.878 353.061 300.295 Q350.006 295.688 350.006 286.961 Q350.006 278.211 353.061 273.628 Q356.14 269.022 361.95 269.022 Z" fill="#000000" fill-rule="nonzero" fill-opacity="1" /><path clip-path="url(#clip400)" d="M51.5963 808.333 L51.5963 799.676 L91.3501 778.605 L51.5963 778.605 L51.5963 772.367 L99.1163 772.367 L99.1163 781.024 L59.3624 802.095 L99.1163 802.095 L99.1163 808.333 L51.5963 808.333 Z" fill="#000000" fill-rule="nonzero" fill-opacity="1" /><path clip-path="url(#clip400)" d="M56.8798 753.143 L74.7356 753.143 L74.7356 745.058 Q74.7356 740.57 72.4121 738.12 Q70.0887 735.669 65.7918 735.669 Q61.5268 735.669 59.2033 738.12 Q56.8798 740.57 56.8798 745.058 L56.8798 753.143 M51.5963 759.572 L51.5963 745.058 Q51.5963 737.069 55.2247 732.995 Q58.8214 728.889 65.7918 728.889 Q72.8259 728.889 76.4225 732.995 Q80.0192 737.069 80.0192 745.058 L80.0192 753.143 L99.1163 753.143 L99.1163 759.572 L51.5963 759.572 Z" fill="#000000" fill-rule="nonzero" fill-opacity="1" /><path clip-path="url(#clip400)" d="M99.1163 708.01 L51.5963 726.152 L51.5963 719.436 L91.6047 704.381 L51.5963 689.295 L51.5963 682.611 L99.1163 700.721 L99.1163 708.01 Z" fill="#000000" fill-rule="nonzero" fill-opacity="1" /><circle clip-path="url(#clip402)" cx="778.871" cy="1002.51" r="14.4" fill="#009af9" fill-rule="evenodd" fill-opacity="1" stroke="#000000" stroke-opacity="1" stroke-width="3.2"/>
<circle clip-path="url(#clip402)" cx="956.426" cy="979.725" r="14.4" fill="#009af9" fill-rule="evenodd" fill-opacity="1" stroke="#000000" stroke-opacity="1" stroke-width="3.2"/>
<circle clip-path="url(#clip402)" cx="1020.13" cy="1106.8" r="14.4" fill="#009af9" fill-rule="evenodd" fill-opacity="1" stroke="#000000" stroke-opacity="1" stroke-width="3.2"/>
<circle clip-path="url(#clip402)" cx="3014.26" cy="672.143" r="14.4" fill="#009af9" fill-rule="evenodd" fill-opacity="1" stroke="#000000" stroke-opacity="1" stroke-width="3.2"/>
<circle clip-path="url(#clip402)" cx="497.4" cy="1278.53" r="14.4" fill="#009af9" fill-rule="evenodd" fill-opacity="1" stroke="#000000" stroke-opacity="1" stroke-width="3.2"/>
<circle clip-path="url(#clip402)" cx="904.569" cy="1089.89" r="14.4" fill="#009af9" fill-rule="evenodd" fill-opacity="1" stroke="#000000" stroke-opacity="1" stroke-width="3.2"/>
<circle clip-path="url(#clip402)" cx="1091.26" cy="1029.46" r="14.4" fill="#009af9" fill-rule="evenodd" fill-opacity="1" stroke="#000000" stroke-opacity="1" stroke-width="3.2"/>
<circle clip-path="url(#clip402)" cx="1852.19" cy="1245.88" r="14.4" fill="#009af9" fill-rule="evenodd" fill-opacity="1" stroke="#000000" stroke-opacity="1" stroke-width="3.2"/>
<circle clip-path="url(#clip402)" cx="913.497" cy="1082.67" r="14.4" fill="#009af9" fill-rule="evenodd" fill-opacity="1" stroke="#000000" stroke-opacity="1" stroke-width="3.2"/>
<circle clip-path="url(#clip402)" cx="1571.46" cy="1344.75" r="14.4" fill="#009af9" fill-rule="evenodd" fill-opacity="1" stroke="#000000" stroke-opacity="1" stroke-width="3.2"/>
<circle clip-path="url(#clip402)" cx="778.871" cy="603.585" r="14.4" fill="#009af9" fill-rule="evenodd" fill-opacity="1" stroke="#000000" stroke-opacity="1" stroke-width="3.2"/>
<circle clip-path="url(#clip402)" cx="956.426" cy="915.061" r="14.4" fill="#009af9" fill-rule="evenodd" fill-opacity="1" stroke="#000000" stroke-opacity="1" stroke-width="3.2"/>
<circle clip-path="url(#clip402)" cx="1020.13" cy="792.425" r="14.4" fill="#009af9" fill-rule="evenodd" fill-opacity="1" stroke="#000000" stroke-opacity="1" stroke-width="3.2"/>
<circle clip-path="url(#clip402)" cx="3014.26" cy="667.083" r="14.4" fill="#009af9" fill-rule="evenodd" fill-opacity="1" stroke="#000000" stroke-opacity="1" stroke-width="3.2"/>
<circle clip-path="url(#clip402)" cx="497.4" cy="1046.09" r="14.4" fill="#009af9" fill-rule="evenodd" fill-opacity="1" stroke="#000000" stroke-opacity="1" stroke-width="3.2"/>
<circle clip-path="url(#clip402)" cx="904.569" cy="825.577" r="14.4" fill="#009af9" fill-rule="evenodd" fill-opacity="1" stroke="#000000" stroke-opacity="1" stroke-width="3.2"/>
<circle clip-path="url(#clip402)" cx="1091.26" cy="674.093" r="14.4" fill="#009af9" fill-rule="evenodd" fill-opacity="1" stroke="#000000" stroke-opacity="1" stroke-width="3.2"/>
<circle clip-path="url(#clip402)" cx="1852.19" cy="1224.08" r="14.4" fill="#009af9" fill-rule="evenodd" fill-opacity="1" stroke="#000000" stroke-opacity="1" stroke-width="3.2"/>
<circle clip-path="url(#clip402)" cx="913.497" cy="710.003" r="14.4" fill="#009af9" fill-rule="evenodd" fill-opacity="1" stroke="#000000" stroke-opacity="1" stroke-width="3.2"/>
<circle clip-path="url(#clip402)" cx="1571.46" cy="1284.47" r="14.4" fill="#009af9" fill-rule="evenodd" fill-opacity="1" stroke="#000000" stroke-opacity="1" stroke-width="3.2"/>
<circle clip-path="url(#clip402)" cx="778.871" cy="270.467" r="14.4" fill="#009af9" fill-rule="evenodd" fill-opacity="1" stroke="#000000" stroke-opacity="1" stroke-width="3.2"/>
<circle clip-path="url(#clip402)" cx="956.426" cy="723.005" r="14.4" fill="#009af9" fill-rule="evenodd" fill-opacity="1" stroke="#000000" stroke-opacity="1" stroke-width="3.2"/>
<circle clip-path="url(#clip402)" cx="1020.13" cy="379.549" r="14.4" fill="#009af9" fill-rule="evenodd" fill-opacity="1" stroke="#000000" stroke-opacity="1" stroke-width="3.2"/>
<circle clip-path="url(#clip402)" cx="3014.26" cy="540.639" r="14.4" fill="#009af9" fill-rule="evenodd" fill-opacity="1" stroke="#000000" stroke-opacity="1" stroke-width="3.2"/>
<circle clip-path="url(#clip402)" cx="497.4" cy="717.042" r="14.4" fill="#009af9" fill-rule="evenodd" fill-opacity="1" stroke="#000000" stroke-opacity="1" stroke-width="3.2"/>
<circle clip-path="url(#clip402)" cx="904.569" cy="491.363" r="14.4" fill="#009af9" fill-rule="evenodd" fill-opacity="1" stroke="#000000" stroke-opacity="1" stroke-width="3.2"/>
<circle clip-path="url(#clip402)" cx="1091.26" cy="254.35" r="14.4" fill="#009af9" fill-rule="evenodd" fill-opacity="1" stroke="#000000" stroke-opacity="1" stroke-width="3.2"/>
<circle clip-path="url(#clip402)" cx="1852.19" cy="1066.63" r="14.4" fill="#009af9" fill-rule="evenodd" fill-opacity="1" stroke="#000000" stroke-opacity="1" stroke-width="3.2"/>
<circle clip-path="url(#clip402)" cx="913.497" cy="268.99" r="14.4" fill="#009af9" fill-rule="evenodd" fill-opacity="1" stroke="#000000" stroke-opacity="1" stroke-width="3.2"/>
<circle clip-path="url(#clip402)" cx="1571.46" cy="986.681" r="14.4" fill="#009af9" fill-rule="evenodd" fill-opacity="1" stroke="#000000" stroke-opacity="1" stroke-width="3.2"/>
<circle clip-path="url(#clip402)" cx="778.871" cy="178.131" r="14.4" fill="#009af9" fill-rule="evenodd" fill-opacity="1" stroke="#000000" stroke-opacity="1" stroke-width="3.2"/>
<circle clip-path="url(#clip402)" cx="956.426" cy="577.835" r="14.4" fill="#009af9" fill-rule="evenodd" fill-opacity="1" stroke="#000000" stroke-opacity="1" stroke-width="3.2"/>
<circle clip-path="url(#clip402)" cx="1020.13" cy="206.496" r="14.4" fill="#009af9" fill-rule="evenodd" fill-opacity="1" stroke="#000000" stroke-opacity="1" stroke-width="3.2"/>
<circle clip-path="url(#clip402)" cx="3014.26" cy="442.521" r="14.4" fill="#009af9" fill-rule="evenodd" fill-opacity="1" stroke="#000000" stroke-opacity="1" stroke-width="3.2"/>
<circle clip-path="url(#clip402)" cx="497.4" cy="485.778" r="14.4" fill="#009af9" fill-rule="evenodd" fill-opacity="1" stroke="#000000" stroke-opacity="1" stroke-width="3.2"/>
<circle clip-path="url(#clip402)" cx="904.569" cy="304.38" r="14.4" fill="#009af9" fill-rule="evenodd" fill-opacity="1" stroke="#000000" stroke-opacity="1" stroke-width="3.2"/>
<circle clip-path="url(#clip402)" cx="1091.26" cy="146.193" r="14.4" fill="#009af9" fill-rule="evenodd" fill-opacity="1" stroke="#000000" stroke-opacity="1" stroke-width="3.2"/>
<circle clip-path="url(#clip402)" cx="1852.19" cy="917.396" r="14.4" fill="#009af9" fill-rule="evenodd" fill-opacity="1" stroke="#000000" stroke-opacity="1" stroke-width="3.2"/>
<circle clip-path="url(#clip402)" cx="913.497" cy="148.807" r="14.4" fill="#009af9" fill-rule="evenodd" fill-opacity="1" stroke="#000000" stroke-opacity="1" stroke-width="3.2"/>
<circle clip-path="url(#clip402)" cx="1571.46" cy="463.971" r="14.4" fill="#009af9" fill-rule="evenodd" fill-opacity="1" stroke="#000000" stroke-opacity="1" stroke-width="3.2"/>
<circle clip-path="url(#clip402)" cx="778.871" cy="155.63" r="14.4" fill="#009af9" fill-rule="evenodd" fill-opacity="1" stroke="#000000" stroke-opacity="1" stroke-width="3.2"/>
<circle clip-path="url(#clip402)" cx="956.426" cy="463.808" r="14.4" fill="#009af9" fill-rule="evenodd" fill-opacity="1" stroke="#000000" stroke-opacity="1" stroke-width="3.2"/>
<circle clip-path="url(#clip402)" cx="1020.13" cy="163.7" r="14.4" fill="#009af9" fill-rule="evenodd" fill-opacity="1" stroke="#000000" stroke-opacity="1" stroke-width="3.2"/>
<circle clip-path="url(#clip402)" cx="3014.26" cy="365.46" r="14.4" fill="#009af9" fill-rule="evenodd" fill-opacity="1" stroke="#000000" stroke-opacity="1" stroke-width="3.2"/>
<circle clip-path="url(#clip402)" cx="497.4" cy="345.058" r="14.4" fill="#009af9" fill-rule="evenodd" fill-opacity="1" stroke="#000000" stroke-opacity="1" stroke-width="3.2"/>
<circle clip-path="url(#clip402)" cx="904.569" cy="220.277" r="14.4" fill="#009af9" fill-rule="evenodd" fill-opacity="1" stroke="#000000" stroke-opacity="1" stroke-width="3.2"/>
<circle clip-path="url(#clip402)" cx="1091.26" cy="146.794" r="14.4" fill="#009af9" fill-rule="evenodd" fill-opacity="1" stroke="#000000" stroke-opacity="1" stroke-width="3.2"/>
<circle clip-path="url(#clip402)" cx="1852.19" cy="785.993" r="14.4" fill="#009af9" fill-rule="evenodd" fill-opacity="1" stroke="#000000" stroke-opacity="1" stroke-width="3.2"/>
<circle clip-path="url(#clip402)" cx="913.497" cy="146.86" r="14.4" fill="#009af9" fill-rule="evenodd" fill-opacity="1" stroke="#000000" stroke-opacity="1" stroke-width="3.2"/>
<circle clip-path="url(#clip402)" cx="1571.46" cy="188.555" r="14.4" fill="#009af9" fill-rule="evenodd" fill-opacity="1" stroke="#000000" stroke-opacity="1" stroke-width="3.2"/>
<circle clip-path="url(#clip402)" cx="778.871" cy="149.706" r="14.4" fill="#009af9" fill-rule="evenodd" fill-opacity="1" stroke="#000000" stroke-opacity="1" stroke-width="3.2"/>
<circle clip-path="url(#clip402)" cx="956.426" cy="380.9" r="14.4" fill="#009af9" fill-rule="evenodd" fill-opacity="1" stroke="#000000" stroke-opacity="1" stroke-width="3.2"/>
<circle clip-path="url(#clip402)" cx="1020.13" cy="152.148" r="14.4" fill="#009af9" fill-rule="evenodd" fill-opacity="1" stroke="#000000" stroke-opacity="1" stroke-width="3.2"/>
<circle clip-path="url(#clip402)" cx="3014.26" cy="312.42" r="14.4" fill="#009af9" fill-rule="evenodd" fill-opacity="1" stroke="#000000" stroke-opacity="1" stroke-width="3.2"/>
<circle clip-path="url(#clip402)" cx="497.4" cy="261.464" r="14.4" fill="#009af9" fill-rule="evenodd" fill-opacity="1" stroke="#000000" stroke-opacity="1" stroke-width="3.2"/>
<circle clip-path="url(#clip402)" cx="904.569" cy="181.564" r="14.4" fill="#009af9" fill-rule="evenodd" fill-opacity="1" stroke="#000000" stroke-opacity="1" stroke-width="3.2"/>
<circle clip-path="url(#clip402)" cx="1091.26" cy="147.45" r="14.4" fill="#009af9" fill-rule="evenodd" fill-opacity="1" stroke="#000000" stroke-opacity="1" stroke-width="3.2"/>
<circle clip-path="url(#clip402)" cx="1852.19" cy="676.445" r="14.4" fill="#009af9" fill-rule="evenodd" fill-opacity="1" stroke="#000000" stroke-opacity="1" stroke-width="3.2"/>
<circle clip-path="url(#clip402)" cx="913.497" cy="147.452" r="14.4" fill="#009af9" fill-rule="evenodd" fill-opacity="1" stroke="#000000" stroke-opacity="1" stroke-width="3.2"/>
<circle clip-path="url(#clip402)" cx="1571.46" cy="148.961" r="14.4" fill="#009af9" fill-rule="evenodd" fill-opacity="1" stroke="#000000" stroke-opacity="1" stroke-width="3.2"/>
<circle clip-path="url(#clip402)" cx="778.871" cy="149.607" r="14.4" fill="#009af9" fill-rule="evenodd" fill-opacity="1" stroke="#000000" stroke-opacity="1" stroke-width="3.2"/>
<circle clip-path="url(#clip402)" cx="956.426" cy="319.719" r="14.4" fill="#009af9" fill-rule="evenodd" fill-opacity="1" stroke="#000000" stroke-opacity="1" stroke-width="3.2"/>
<circle clip-path="url(#clip402)" cx="1020.13" cy="150.383" r="14.4" fill="#009af9" fill-rule="evenodd" fill-opacity="1" stroke="#000000" stroke-opacity="1" stroke-width="3.2"/>
<circle clip-path="url(#clip402)" cx="3014.26" cy="270.618" r="14.4" fill="#009af9" fill-rule="evenodd" fill-opacity="1" stroke="#000000" stroke-opacity="1" stroke-width="3.2"/>
<circle clip-path="url(#clip402)" cx="497.4" cy="215.11" r="14.4" fill="#009af9" fill-rule="evenodd" fill-opacity="1" stroke="#000000" stroke-opacity="1" stroke-width="3.2"/>
<circle clip-path="url(#clip402)" cx="904.569" cy="165.719" r="14.4" fill="#009af9" fill-rule="evenodd" fill-opacity="1" stroke="#000000" stroke-opacity="1" stroke-width="3.2"/>
<circle clip-path="url(#clip402)" cx="1091.26" cy="149.091" r="14.4" fill="#009af9" fill-rule="evenodd" fill-opacity="1" stroke="#000000" stroke-opacity="1" stroke-width="3.2"/>
<circle clip-path="url(#clip402)" cx="1852.19" cy="584.269" r="14.4" fill="#009af9" fill-rule="evenodd" fill-opacity="1" stroke="#000000" stroke-opacity="1" stroke-width="3.2"/>
<circle clip-path="url(#clip402)" cx="913.497" cy="149.091" r="14.4" fill="#009af9" fill-rule="evenodd" fill-opacity="1" stroke="#000000" stroke-opacity="1" stroke-width="3.2"/>
<circle clip-path="url(#clip402)" cx="1571.46" cy="149.141" r="14.4" fill="#009af9" fill-rule="evenodd" fill-opacity="1" stroke="#000000" stroke-opacity="1" stroke-width="3.2"/>
<circle clip-path="url(#clip402)" cx="778.871" cy="150.902" r="14.4" fill="#009af9" fill-rule="evenodd" fill-opacity="1" stroke="#000000" stroke-opacity="1" stroke-width="3.2"/>
<circle clip-path="url(#clip402)" cx="956.426" cy="275.811" r="14.4" fill="#009af9" fill-rule="evenodd" fill-opacity="1" stroke="#000000" stroke-opacity="1" stroke-width="3.2"/>
<circle clip-path="url(#clip402)" cx="1020.13" cy="151.129" r="14.4" fill="#009af9" fill-rule="evenodd" fill-opacity="1" stroke="#000000" stroke-opacity="1" stroke-width="3.2"/>
<circle clip-path="url(#clip402)" cx="3014.26" cy="240.036" r="14.4" fill="#009af9" fill-rule="evenodd" fill-opacity="1" stroke="#000000" stroke-opacity="1" stroke-width="3.2"/>
<circle clip-path="url(#clip402)" cx="497.4" cy="189.234" r="14.4" fill="#009af9" fill-rule="evenodd" fill-opacity="1" stroke="#000000" stroke-opacity="1" stroke-width="3.2"/>
<circle clip-path="url(#clip402)" cx="904.569" cy="159.398" r="14.4" fill="#009af9" fill-rule="evenodd" fill-opacity="1" stroke="#000000" stroke-opacity="1" stroke-width="3.2"/>
<circle clip-path="url(#clip402)" cx="1091.26" cy="150.733" r="14.4" fill="#009af9" fill-rule="evenodd" fill-opacity="1" stroke="#000000" stroke-opacity="1" stroke-width="3.2"/>
<circle clip-path="url(#clip402)" cx="1852.19" cy="509.07" r="14.4" fill="#009af9" fill-rule="evenodd" fill-opacity="1" stroke="#000000" stroke-opacity="1" stroke-width="3.2"/>
<circle clip-path="url(#clip402)" cx="913.497" cy="150.733" r="14.4" fill="#009af9" fill-rule="evenodd" fill-opacity="1" stroke="#000000" stroke-opacity="1" stroke-width="3.2"/>
<circle clip-path="url(#clip402)" cx="1571.46" cy="150.735" r="14.4" fill="#009af9" fill-rule="evenodd" fill-opacity="1" stroke="#000000" stroke-opacity="1" stroke-width="3.2"/>
<circle clip-path="url(#clip402)" cx="778.871" cy="152.461" r="14.4" fill="#009af9" fill-rule="evenodd" fill-opacity="1" stroke="#000000" stroke-opacity="1" stroke-width="3.2"/>
<circle clip-path="url(#clip402)" cx="956.426" cy="243.71" r="14.4" fill="#009af9" fill-rule="evenodd" fill-opacity="1" stroke="#000000" stroke-opacity="1" stroke-width="3.2"/>
<circle clip-path="url(#clip402)" cx="1020.13" cy="152.496" r="14.4" fill="#009af9" fill-rule="evenodd" fill-opacity="1" stroke="#000000" stroke-opacity="1" stroke-width="3.2"/>
<circle clip-path="url(#clip402)" cx="3014.26" cy="220.467" r="14.4" fill="#009af9" fill-rule="evenodd" fill-opacity="1" stroke="#000000" stroke-opacity="1" stroke-width="3.2"/>
<circle clip-path="url(#clip402)" cx="497.4" cy="175.142" r="14.4" fill="#009af9" fill-rule="evenodd" fill-opacity="1" stroke="#000000" stroke-opacity="1" stroke-width="3.2"/>
<circle clip-path="url(#clip402)" cx="904.569" cy="156.762" r="14.4" fill="#009af9" fill-rule="evenodd" fill-opacity="1" stroke="#000000" stroke-opacity="1" stroke-width="3.2"/>
<circle clip-path="url(#clip402)" cx="1091.26" cy="152.375" r="14.4" fill="#009af9" fill-rule="evenodd" fill-opacity="1" stroke="#000000" stroke-opacity="1" stroke-width="3.2"/>
<circle clip-path="url(#clip402)" cx="1852.19" cy="447.826" r="14.4" fill="#009af9" fill-rule="evenodd" fill-opacity="1" stroke="#000000" stroke-opacity="1" stroke-width="3.2"/>
<circle clip-path="url(#clip402)" cx="913.497" cy="152.375" r="14.4" fill="#009af9" fill-rule="evenodd" fill-opacity="1" stroke="#000000" stroke-opacity="1" stroke-width="3.2"/>
<circle clip-path="url(#clip402)" cx="1571.46" cy="152.375" r="14.4" fill="#009af9" fill-rule="evenodd" fill-opacity="1" stroke="#000000" stroke-opacity="1" stroke-width="3.2"/>
<circle clip-path="url(#clip402)" cx="778.871" cy="157.071" r="14.4" fill="#009af9" fill-rule="evenodd" fill-opacity="1" stroke="#000000" stroke-opacity="1" stroke-width="3.2"/>
<circle clip-path="url(#clip402)" cx="956.426" cy="223.939" r="14.4" fill="#009af9" fill-rule="evenodd" fill-opacity="1" stroke="#000000" stroke-opacity="1" stroke-width="3.2"/>
<circle clip-path="url(#clip402)" cx="1020.13" cy="157.079" r="14.4" fill="#009af9" fill-rule="evenodd" fill-opacity="1" stroke="#000000" stroke-opacity="1" stroke-width="3.2"/>
<circle clip-path="url(#clip402)" cx="3014.26" cy="207.462" r="14.4" fill="#009af9" fill-rule="evenodd" fill-opacity="1" stroke="#000000" stroke-opacity="1" stroke-width="3.2"/>
<circle clip-path="url(#clip402)" cx="497.4" cy="171.154" r="14.4" fill="#009af9" fill-rule="evenodd" fill-opacity="1" stroke="#000000" stroke-opacity="1" stroke-width="3.2"/>
<circle clip-path="url(#clip402)" cx="904.569" cy="159.58" r="14.4" fill="#009af9" fill-rule="evenodd" fill-opacity="1" stroke="#000000" stroke-opacity="1" stroke-width="3.2"/>
<circle clip-path="url(#clip402)" cx="1091.26" cy="157.026" r="14.4" fill="#009af9" fill-rule="evenodd" fill-opacity="1" stroke="#000000" stroke-opacity="1" stroke-width="3.2"/>
<circle clip-path="url(#clip402)" cx="1852.19" cy="404.045" r="14.4" fill="#009af9" fill-rule="evenodd" fill-opacity="1" stroke="#000000" stroke-opacity="1" stroke-width="3.2"/>
<circle clip-path="url(#clip402)" cx="913.497" cy="157.026" r="14.4" fill="#009af9" fill-rule="evenodd" fill-opacity="1" stroke="#000000" stroke-opacity="1" stroke-width="3.2"/>
<circle clip-path="url(#clip402)" cx="1571.46" cy="157.026" r="14.4" fill="#009af9" fill-rule="evenodd" fill-opacity="1" stroke="#000000" stroke-opacity="1" stroke-width="3.2"/>
<circle clip-path="url(#clip402)" cx="778.871" cy="164.694" r="14.4" fill="#009af9" fill-rule="evenodd" fill-opacity="1" stroke="#000000" stroke-opacity="1" stroke-width="3.2"/>
<circle clip-path="url(#clip402)" cx="956.426" cy="213.576" r="14.4" fill="#009af9" fill-rule="evenodd" fill-opacity="1" stroke="#000000" stroke-opacity="1" stroke-width="3.2"/>
<circle clip-path="url(#clip402)" cx="1020.13" cy="164.721" r="14.4" fill="#009af9" fill-rule="evenodd" fill-opacity="1" stroke="#000000" stroke-opacity="1" stroke-width="3.2"/>
<circle clip-path="url(#clip402)" cx="3014.26" cy="203.855" r="14.4" fill="#009af9" fill-rule="evenodd" fill-opacity="1" stroke="#000000" stroke-opacity="1" stroke-width="3.2"/>
<circle clip-path="url(#clip402)" cx="497.4" cy="173.297" r="14.4" fill="#009af9" fill-rule="evenodd" fill-opacity="1" stroke="#000000" stroke-opacity="1" stroke-width="3.2"/>
<circle clip-path="url(#clip402)" cx="904.569" cy="165.977" r="14.4" fill="#009af9" fill-rule="evenodd" fill-opacity="1" stroke="#000000" stroke-opacity="1" stroke-width="3.2"/>
<circle clip-path="url(#clip402)" cx="1091.26" cy="164.687" r="14.4" fill="#009af9" fill-rule="evenodd" fill-opacity="1" stroke="#000000" stroke-opacity="1" stroke-width="3.2"/>
<circle clip-path="url(#clip402)" cx="1852.19" cy="367.837" r="14.4" fill="#009af9" fill-rule="evenodd" fill-opacity="1" stroke="#000000" stroke-opacity="1" stroke-width="3.2"/>
<circle clip-path="url(#clip402)" cx="913.497" cy="164.687" r="14.4" fill="#009af9" fill-rule="evenodd" fill-opacity="1" stroke="#000000" stroke-opacity="1" stroke-width="3.2"/>
<circle clip-path="url(#clip402)" cx="1571.46" cy="164.688" r="14.4" fill="#009af9" fill-rule="evenodd" fill-opacity="1" stroke="#000000" stroke-opacity="1" stroke-width="3.2"/>
<path clip-path="url(#clip400)" d="M1090.79 1338.36 L3000.83 1338.36 L3000.83 1234.68 L1090.79 1234.68  Z" fill="#ffffff" fill-rule="evenodd" fill-opacity="1"/>
<polyline clip-path="url(#clip400)" style="stroke:#000000; stroke-linecap:round; stroke-linejoin:round; stroke-width:4; stroke-opacity:1; fill:none" points="1090.79,1338.36 3000.83,1338.36 3000.83,1234.68 1090.79,1234.68 1090.79,1338.36 "/>
<circle clip-path="url(#clip400)" cx="1209.36" cy="1286.52" r="20.48" fill="#009af9" fill-rule="evenodd" fill-opacity="1" stroke="#000000" stroke-opacity="1" stroke-width="4.55111"/>
<path clip-path="url(#clip400)" d="M1327.94 1269.24 L1357.17 1269.24 L1357.17 1273.17 L1344.9 1273.17 L1344.9 1303.8 L1340.21 1303.8 L1340.21 1273.17 L1327.94 1273.17 L1327.94 1269.24 Z" fill="#000000" fill-rule="nonzero" fill-opacity="1" /><path clip-path="url(#clip400)" d="M1383.05 1288.15 L1383.05 1303.8 L1378.79 1303.8 L1378.79 1288.29 Q1378.79 1284.61 1377.36 1282.78 Q1375.92 1280.95 1373.05 1280.95 Q1369.6 1280.95 1367.61 1283.15 Q1365.62 1285.35 1365.62 1289.15 L1365.62 1303.8 L1361.34 1303.8 L1361.34 1267.78 L1365.62 1267.78 L1365.62 1281.9 Q1367.15 1279.56 1369.21 1278.41 Q1371.29 1277.25 1374 1277.25 Q1378.47 1277.25 1380.76 1280.03 Q1383.05 1282.78 1383.05 1288.15 Z" fill="#000000" fill-rule="nonzero" fill-opacity="1" /><path clip-path="url(#clip400)" d="M1413.72 1289.77 L1413.72 1291.85 L1394.14 1291.85 Q1394.42 1296.25 1396.78 1298.57 Q1399.16 1300.86 1403.4 1300.86 Q1405.85 1300.86 1408.14 1300.26 Q1410.46 1299.66 1412.73 1298.45 L1412.73 1302.48 Q1410.44 1303.45 1408.03 1303.96 Q1405.62 1304.47 1403.14 1304.47 Q1396.94 1304.47 1393.31 1300.86 Q1389.7 1297.25 1389.7 1291.09 Q1389.7 1284.72 1393.12 1281 Q1396.57 1277.25 1402.4 1277.25 Q1407.64 1277.25 1410.67 1280.63 Q1413.72 1283.98 1413.72 1289.77 M1409.46 1288.52 Q1409.42 1285.03 1407.5 1282.94 Q1405.6 1280.86 1402.45 1280.86 Q1398.89 1280.86 1396.73 1282.87 Q1394.6 1284.89 1394.28 1288.54 L1409.46 1288.52 Z" fill="#000000" fill-rule="nonzero" fill-opacity="1" /><path clip-path="url(#clip400)" d="M1435.97 1269.24 L1442.26 1269.24 L1457.59 1298.15 L1457.59 1269.24 L1462.13 1269.24 L1462.13 1303.8 L1455.83 1303.8 L1440.51 1274.89 L1440.51 1303.8 L1435.97 1303.8 L1435.97 1269.24 Z" fill="#000000" fill-rule="nonzero" fill-opacity="1" /><path clip-path="url(#clip400)" d="M1476.11 1273.08 L1476.11 1286.07 L1481.99 1286.07 Q1485.25 1286.07 1487.03 1284.38 Q1488.82 1282.69 1488.82 1279.56 Q1488.82 1276.46 1487.03 1274.77 Q1485.25 1273.08 1481.99 1273.08 L1476.11 1273.08 M1471.43 1269.24 L1481.99 1269.24 Q1487.8 1269.24 1490.76 1271.88 Q1493.75 1274.49 1493.75 1279.56 Q1493.75 1284.68 1490.76 1287.29 Q1487.8 1289.91 1481.99 1289.91 L1476.11 1289.91 L1476.11 1303.8 L1471.43 1303.8 L1471.43 1269.24 Z" fill="#000000" fill-rule="nonzero" fill-opacity="1" /><path clip-path="url(#clip400)" d="M1508.93 1303.8 L1495.74 1269.24 L1500.62 1269.24 L1511.57 1298.34 L1522.54 1269.24 L1527.4 1269.24 L1514.23 1303.8 L1508.93 1303.8 Z" fill="#000000" fill-rule="nonzero" fill-opacity="1" /><path clip-path="url(#clip400)" d="M1546.89 1293.57 L1546.89 1277.87 L1551.15 1277.87 L1551.15 1293.41 Q1551.15 1297.09 1552.59 1298.94 Q1554.02 1300.77 1556.89 1300.77 Q1560.34 1300.77 1562.33 1298.57 Q1564.35 1296.37 1564.35 1292.57 L1564.35 1277.87 L1568.61 1277.87 L1568.61 1303.8 L1564.35 1303.8 L1564.35 1299.82 Q1562.8 1302.18 1560.74 1303.34 Q1558.7 1304.47 1555.99 1304.47 Q1551.52 1304.47 1549.21 1301.69 Q1546.89 1298.91 1546.89 1293.57 M1557.61 1277.25 L1557.61 1277.25 Z" fill="#000000" fill-rule="nonzero" fill-opacity="1" /><path clip-path="url(#clip400)" d="M1598.93 1288.15 L1598.93 1303.8 L1594.67 1303.8 L1594.67 1288.29 Q1594.67 1284.61 1593.24 1282.78 Q1591.8 1280.95 1588.93 1280.95 Q1585.48 1280.95 1583.49 1283.15 Q1581.5 1285.35 1581.5 1289.15 L1581.5 1303.8 L1577.22 1303.8 L1577.22 1277.87 L1581.5 1277.87 L1581.5 1281.9 Q1583.03 1279.56 1585.09 1278.41 Q1587.17 1277.25 1589.88 1277.25 Q1594.35 1277.25 1596.64 1280.03 Q1598.93 1282.78 1598.93 1288.15 Z" fill="#000000" fill-rule="nonzero" fill-opacity="1" /><path clip-path="url(#clip400)" d="M1624.49 1281.81 L1624.49 1267.78 L1628.75 1267.78 L1628.75 1303.8 L1624.49 1303.8 L1624.49 1299.91 Q1623.14 1302.22 1621.08 1303.36 Q1619.05 1304.47 1616.18 1304.47 Q1611.48 1304.47 1608.51 1300.72 Q1605.57 1296.97 1605.57 1290.86 Q1605.57 1284.75 1608.51 1281 Q1611.48 1277.25 1616.18 1277.25 Q1619.05 1277.25 1621.08 1278.38 Q1623.14 1279.49 1624.49 1281.81 M1609.97 1290.86 Q1609.97 1295.56 1611.89 1298.24 Q1613.84 1300.91 1617.22 1300.91 Q1620.6 1300.91 1622.54 1298.24 Q1624.49 1295.56 1624.49 1290.86 Q1624.49 1286.16 1622.54 1283.5 Q1620.6 1280.81 1617.22 1280.81 Q1613.84 1280.81 1611.89 1283.5 Q1609.97 1286.16 1609.97 1290.86 Z" fill="#000000" fill-rule="nonzero" fill-opacity="1" /><path clip-path="url(#clip400)" d="M1659.69 1289.77 L1659.69 1291.85 L1640.11 1291.85 Q1640.39 1296.25 1642.75 1298.57 Q1645.13 1300.86 1649.37 1300.86 Q1651.82 1300.86 1654.12 1300.26 Q1656.43 1299.66 1658.7 1298.45 L1658.7 1302.48 Q1656.41 1303.45 1654 1303.96 Q1651.59 1304.47 1649.12 1304.47 Q1642.91 1304.47 1639.28 1300.86 Q1635.67 1297.25 1635.67 1291.09 Q1635.67 1284.72 1639.09 1281 Q1642.54 1277.25 1648.37 1277.25 Q1653.61 1277.25 1656.64 1280.63 Q1659.69 1283.98 1659.69 1289.77 M1655.43 1288.52 Q1655.39 1285.03 1653.47 1282.94 Q1651.57 1280.86 1648.42 1280.86 Q1644.86 1280.86 1642.7 1282.87 Q1640.57 1284.89 1640.25 1288.54 L1655.43 1288.52 Z" fill="#000000" fill-rule="nonzero" fill-opacity="1" /><path clip-path="url(#clip400)" d="M1681.71 1281.85 Q1680.99 1281.44 1680.13 1281.25 Q1679.3 1281.04 1678.28 1281.04 Q1674.67 1281.04 1672.73 1283.41 Q1670.81 1285.74 1670.81 1290.14 L1670.81 1303.8 L1666.52 1303.8 L1666.52 1277.87 L1670.81 1277.87 L1670.81 1281.9 Q1672.15 1279.54 1674.3 1278.41 Q1676.45 1277.25 1679.53 1277.25 Q1679.97 1277.25 1680.5 1277.32 Q1681.04 1277.36 1681.68 1277.48 L1681.71 1281.85 Z" fill="#000000" fill-rule="nonzero" fill-opacity="1" /><path clip-path="url(#clip400)" d="M1702.66 1299.86 L1710.3 1299.86 L1710.3 1273.5 L1701.99 1275.16 L1701.99 1270.91 L1710.25 1269.24 L1714.93 1269.24 L1714.93 1299.86 L1722.56 1299.86 L1722.56 1303.8 L1702.66 1303.8 L1702.66 1299.86 Z" fill="#000000" fill-rule="nonzero" fill-opacity="1" /><path clip-path="url(#clip400)" d="M1742.01 1272.32 Q1738.4 1272.32 1736.57 1275.88 Q1734.76 1279.42 1734.76 1286.55 Q1734.76 1293.66 1736.57 1297.22 Q1738.4 1300.77 1742.01 1300.77 Q1745.64 1300.77 1747.45 1297.22 Q1749.28 1293.66 1749.28 1286.55 Q1749.28 1279.42 1747.45 1275.88 Q1745.64 1272.32 1742.01 1272.32 M1742.01 1268.61 Q1747.82 1268.61 1750.87 1273.22 Q1753.95 1277.8 1753.95 1286.55 Q1753.95 1295.28 1750.87 1299.89 Q1747.82 1304.47 1742.01 1304.47 Q1736.2 1304.47 1733.12 1299.89 Q1730.06 1295.28 1730.06 1286.55 Q1730.06 1277.8 1733.12 1273.22 Q1736.2 1268.61 1742.01 1268.61 Z" fill="#000000" fill-rule="nonzero" fill-opacity="1" /><path clip-path="url(#clip400)" d="M1793.7 1281.81 L1793.7 1267.78 L1797.96 1267.78 L1797.96 1303.8 L1793.7 1303.8 L1793.7 1299.91 Q1792.36 1302.22 1790.3 1303.36 Q1788.26 1304.47 1785.39 1304.47 Q1780.69 1304.47 1777.73 1300.72 Q1774.79 1296.97 1774.79 1290.86 Q1774.79 1284.75 1777.73 1281 Q1780.69 1277.25 1785.39 1277.25 Q1788.26 1277.25 1790.3 1278.38 Q1792.36 1279.49 1793.7 1281.81 M1779.18 1290.86 Q1779.18 1295.56 1781.11 1298.24 Q1783.05 1300.91 1786.43 1300.91 Q1789.81 1300.91 1791.75 1298.24 Q1793.7 1295.56 1793.7 1290.86 Q1793.7 1286.16 1791.75 1283.5 Q1789.81 1280.81 1786.43 1280.81 Q1783.05 1280.81 1781.11 1283.5 Q1779.18 1286.16 1779.18 1290.86 Z" fill="#000000" fill-rule="nonzero" fill-opacity="1" /><path clip-path="url(#clip400)" d="M1806.73 1277.87 L1810.99 1277.87 L1810.99 1303.8 L1806.73 1303.8 L1806.73 1277.87 M1806.73 1267.78 L1810.99 1267.78 L1810.99 1273.17 L1806.73 1273.17 L1806.73 1267.78 Z" fill="#000000" fill-rule="nonzero" fill-opacity="1" /><path clip-path="url(#clip400)" d="M1833.03 1267.78 L1833.03 1271.32 L1828.95 1271.32 Q1826.66 1271.32 1825.76 1272.25 Q1824.88 1273.17 1824.88 1275.58 L1824.88 1277.87 L1831.89 1277.87 L1831.89 1281.18 L1824.88 1281.18 L1824.88 1303.8 L1820.6 1303.8 L1820.6 1281.18 L1816.52 1281.18 L1816.52 1277.87 L1820.6 1277.87 L1820.6 1276.07 Q1820.6 1271.74 1822.61 1269.77 Q1824.62 1267.78 1829 1267.78 L1833.03 1267.78 Z" fill="#000000" fill-rule="nonzero" fill-opacity="1" /><path clip-path="url(#clip400)" d="M1849.72 1267.78 L1849.72 1271.32 L1845.64 1271.32 Q1843.35 1271.32 1842.45 1272.25 Q1841.57 1273.17 1841.57 1275.58 L1841.57 1277.87 L1848.58 1277.87 L1848.58 1281.18 L1841.57 1281.18 L1841.57 1303.8 L1837.29 1303.8 L1837.29 1281.18 L1833.21 1281.18 L1833.21 1277.87 L1837.29 1277.87 L1837.29 1276.07 Q1837.29 1271.74 1839.3 1269.77 Q1841.31 1267.78 1845.69 1267.78 L1849.72 1267.78 Z" fill="#000000" fill-rule="nonzero" fill-opacity="1" /><path clip-path="url(#clip400)" d="M1875.46 1289.77 L1875.46 1291.85 L1855.87 1291.85 Q1856.15 1296.25 1858.51 1298.57 Q1860.9 1300.86 1865.13 1300.86 Q1867.59 1300.86 1869.88 1300.26 Q1872.19 1299.66 1874.46 1298.45 L1874.46 1302.48 Q1872.17 1303.45 1869.76 1303.96 Q1867.36 1304.47 1864.88 1304.47 Q1858.67 1304.47 1855.04 1300.86 Q1851.43 1297.25 1851.43 1291.09 Q1851.43 1284.72 1854.86 1281 Q1858.3 1277.25 1864.14 1277.25 Q1869.37 1277.25 1872.4 1280.63 Q1875.46 1283.98 1875.46 1289.77 M1871.2 1288.52 Q1871.15 1285.03 1869.23 1282.94 Q1867.33 1280.86 1864.18 1280.86 Q1860.62 1280.86 1858.47 1282.87 Q1856.34 1284.89 1856.01 1288.54 L1871.2 1288.52 Z" fill="#000000" fill-rule="nonzero" fill-opacity="1" /><path clip-path="url(#clip400)" d="M1897.47 1281.85 Q1896.75 1281.44 1895.9 1281.25 Q1895.06 1281.04 1894.04 1281.04 Q1890.43 1281.04 1888.49 1283.41 Q1886.57 1285.74 1886.57 1290.14 L1886.57 1303.8 L1882.29 1303.8 L1882.29 1277.87 L1886.57 1277.87 L1886.57 1281.9 Q1887.91 1279.54 1890.06 1278.41 Q1892.22 1277.25 1895.29 1277.25 Q1895.73 1277.25 1896.27 1277.32 Q1896.8 1277.36 1897.45 1277.48 L1897.47 1281.85 Z" fill="#000000" fill-rule="nonzero" fill-opacity="1" /><path clip-path="url(#clip400)" d="M1923.07 1289.77 L1923.07 1291.85 L1903.49 1291.85 Q1903.77 1296.25 1906.13 1298.57 Q1908.51 1300.86 1912.75 1300.86 Q1915.2 1300.86 1917.49 1300.26 Q1919.81 1299.66 1922.08 1298.45 L1922.08 1302.48 Q1919.79 1303.45 1917.38 1303.96 Q1914.97 1304.47 1912.49 1304.47 Q1906.29 1304.47 1902.66 1300.86 Q1899.04 1297.25 1899.04 1291.09 Q1899.04 1284.72 1902.47 1281 Q1905.92 1277.25 1911.75 1277.25 Q1916.98 1277.25 1920.02 1280.63 Q1923.07 1283.98 1923.07 1289.77 M1918.81 1288.52 Q1918.77 1285.03 1916.85 1282.94 Q1914.95 1280.86 1911.8 1280.86 Q1908.23 1280.86 1906.08 1282.87 Q1903.95 1284.89 1903.63 1288.54 L1918.81 1288.52 Z" fill="#000000" fill-rule="nonzero" fill-opacity="1" /><path clip-path="url(#clip400)" d="M1951.61 1288.15 L1951.61 1303.8 L1947.35 1303.8 L1947.35 1288.29 Q1947.35 1284.61 1945.92 1282.78 Q1944.48 1280.95 1941.61 1280.95 Q1938.16 1280.95 1936.17 1283.15 Q1934.18 1285.35 1934.18 1289.15 L1934.18 1303.8 L1929.9 1303.8 L1929.9 1277.87 L1934.18 1277.87 L1934.18 1281.9 Q1935.71 1279.56 1937.77 1278.41 Q1939.85 1277.25 1942.56 1277.25 Q1947.03 1277.25 1949.32 1280.03 Q1951.61 1282.78 1951.61 1288.15 Z" fill="#000000" fill-rule="nonzero" fill-opacity="1" /><path clip-path="url(#clip400)" d="M1964.32 1270.51 L1964.32 1277.87 L1973.1 1277.87 L1973.1 1281.18 L1964.32 1281.18 L1964.32 1295.26 Q1964.32 1298.43 1965.18 1299.33 Q1966.06 1300.23 1968.72 1300.23 L1973.1 1300.23 L1973.1 1303.8 L1968.72 1303.8 Q1963.79 1303.8 1961.91 1301.97 Q1960.04 1300.12 1960.04 1295.26 L1960.04 1281.18 L1956.91 1281.18 L1956.91 1277.87 L1960.04 1277.87 L1960.04 1270.51 L1964.32 1270.51 Z" fill="#000000" fill-rule="nonzero" fill-opacity="1" /><path clip-path="url(#clip400)" d="M2014.67 1270.37 L2014.67 1274.93 Q2012.01 1273.66 2009.65 1273.03 Q2007.28 1272.41 2005.09 1272.41 Q2001.27 1272.41 1999.18 1273.89 Q1997.12 1275.37 1997.12 1278.1 Q1997.12 1280.4 1998.49 1281.58 Q1999.88 1282.73 2003.72 1283.45 L2006.54 1284.03 Q2011.78 1285.03 2014.25 1287.55 Q2016.75 1290.05 2016.75 1294.26 Q2016.75 1299.28 2013.37 1301.88 Q2010.02 1304.47 2003.51 1304.47 Q2001.06 1304.47 1998.28 1303.91 Q1995.53 1303.36 1992.56 1302.27 L1992.56 1297.46 Q1995.41 1299.05 1998.14 1299.86 Q2000.87 1300.67 2003.51 1300.67 Q2007.52 1300.67 2009.69 1299.1 Q2011.87 1297.53 2011.87 1294.61 Q2011.87 1292.06 2010.29 1290.63 Q2008.74 1289.19 2005.18 1288.47 L2002.33 1287.92 Q1997.1 1286.88 1994.76 1284.66 Q1992.42 1282.43 1992.42 1278.47 Q1992.42 1273.89 1995.64 1271.25 Q1998.88 1268.61 2004.55 1268.61 Q2006.98 1268.61 2009.51 1269.05 Q2012.03 1269.49 2014.67 1270.37 Z" fill="#000000" fill-rule="nonzero" fill-opacity="1" /><path clip-path="url(#clip400)" d="M2038.07 1272.41 Q2032.98 1272.41 2029.97 1276.21 Q2026.98 1280 2026.98 1286.55 Q2026.98 1293.08 2029.97 1296.88 Q2032.98 1300.67 2038.07 1300.67 Q2043.16 1300.67 2046.13 1296.88 Q2049.11 1293.08 2049.11 1286.55 Q2049.11 1280 2046.13 1276.21 Q2043.16 1272.41 2038.07 1272.41 M2038.07 1268.61 Q2045.34 1268.61 2049.69 1273.5 Q2054.04 1278.36 2054.04 1286.55 Q2054.04 1294.72 2049.69 1299.61 Q2045.34 1304.47 2038.07 1304.47 Q2030.78 1304.47 2026.41 1299.61 Q2022.05 1294.75 2022.05 1286.55 Q2022.05 1278.36 2026.41 1273.5 Q2030.78 1268.61 2038.07 1268.61 Z" fill="#000000" fill-rule="nonzero" fill-opacity="1" /><path clip-path="url(#clip400)" d="M2058.28 1269.24 L2063 1269.24 L2070.27 1298.45 L2077.52 1269.24 L2082.77 1269.24 L2090.04 1298.45 L2097.28 1269.24 L2102.03 1269.24 L2093.35 1303.8 L2087.47 1303.8 L2080.18 1273.8 L2072.82 1303.8 L2066.94 1303.8 L2058.28 1269.24 Z" fill="#000000" fill-rule="nonzero" fill-opacity="1" /><path clip-path="url(#clip400)" d="M2112.08 1269.24 L2112.08 1282.09 L2108.14 1282.09 L2108.14 1269.24 L2112.08 1269.24 Z" fill="#000000" fill-rule="nonzero" fill-opacity="1" /><path clip-path="url(#clip400)" d="M2137.61 1278.64 L2137.61 1282.66 Q2135.8 1281.74 2133.86 1281.28 Q2131.91 1280.81 2129.83 1280.81 Q2126.66 1280.81 2125.06 1281.78 Q2123.49 1282.76 2123.49 1284.7 Q2123.49 1286.18 2124.62 1287.04 Q2125.76 1287.87 2129.18 1288.64 L2130.64 1288.96 Q2135.18 1289.93 2137.08 1291.72 Q2139 1293.47 2139 1296.65 Q2139 1300.26 2136.13 1302.36 Q2133.28 1304.47 2128.28 1304.47 Q2126.2 1304.47 2123.93 1304.05 Q2121.68 1303.66 2119.18 1302.85 L2119.18 1298.45 Q2121.54 1299.68 2123.84 1300.3 Q2126.13 1300.91 2128.37 1300.91 Q2131.38 1300.91 2133 1299.89 Q2134.62 1298.84 2134.62 1296.97 Q2134.62 1295.23 2133.44 1294.31 Q2132.28 1293.38 2128.33 1292.53 L2126.84 1292.18 Q2122.89 1291.35 2121.13 1289.63 Q2119.37 1287.9 2119.37 1284.89 Q2119.37 1281.23 2121.96 1279.24 Q2124.55 1277.25 2129.32 1277.25 Q2131.68 1277.25 2133.77 1277.6 Q2135.85 1277.94 2137.61 1278.64 Z" fill="#000000" fill-rule="nonzero" fill-opacity="1" /><path clip-path="url(#clip400)" d="M2179.51 1278.87 L2179.51 1282.85 Q2177.7 1281.85 2175.87 1281.37 Q2174.07 1280.86 2172.21 1280.86 Q2168.07 1280.86 2165.78 1283.5 Q2163.49 1286.11 2163.49 1290.86 Q2163.49 1295.6 2165.78 1298.24 Q2168.07 1300.86 2172.21 1300.86 Q2174.07 1300.86 2175.87 1300.37 Q2177.7 1299.86 2179.51 1298.87 L2179.51 1302.8 Q2177.72 1303.64 2175.8 1304.05 Q2173.9 1304.47 2171.75 1304.47 Q2165.9 1304.47 2162.45 1300.79 Q2159 1297.11 2159 1290.86 Q2159 1284.52 2162.47 1280.88 Q2165.96 1277.25 2172.03 1277.25 Q2174 1277.25 2175.87 1277.66 Q2177.75 1278.06 2179.51 1278.87 Z" fill="#000000" fill-rule="nonzero" fill-opacity="1" /><path clip-path="url(#clip400)" d="M2196.96 1280.86 Q2193.53 1280.86 2191.54 1283.54 Q2189.55 1286.21 2189.55 1290.86 Q2189.55 1295.51 2191.52 1298.2 Q2193.51 1300.86 2196.96 1300.86 Q2200.36 1300.86 2202.35 1298.17 Q2204.34 1295.49 2204.34 1290.86 Q2204.34 1286.25 2202.35 1283.57 Q2200.36 1280.86 2196.96 1280.86 M2196.96 1277.25 Q2202.52 1277.25 2205.69 1280.86 Q2208.86 1284.47 2208.86 1290.86 Q2208.86 1297.22 2205.69 1300.86 Q2202.52 1304.47 2196.96 1304.47 Q2191.38 1304.47 2188.21 1300.86 Q2185.06 1297.22 2185.06 1290.86 Q2185.06 1284.47 2188.21 1280.86 Q2191.38 1277.25 2196.96 1277.25 Z" fill="#000000" fill-rule="nonzero" fill-opacity="1" /><path clip-path="url(#clip400)" d="M2236.1 1282.85 Q2237.7 1279.98 2239.92 1278.61 Q2242.14 1277.25 2245.15 1277.25 Q2249.2 1277.25 2251.4 1280.1 Q2253.6 1282.92 2253.6 1288.15 L2253.6 1303.8 L2249.32 1303.8 L2249.32 1288.29 Q2249.32 1284.56 2248 1282.76 Q2246.68 1280.95 2243.97 1280.95 Q2240.66 1280.95 2238.74 1283.15 Q2236.82 1285.35 2236.82 1289.15 L2236.82 1303.8 L2232.54 1303.8 L2232.54 1288.29 Q2232.54 1284.54 2231.22 1282.76 Q2229.9 1280.95 2227.14 1280.95 Q2223.88 1280.95 2221.96 1283.17 Q2220.04 1285.37 2220.04 1289.15 L2220.04 1303.8 L2215.76 1303.8 L2215.76 1277.87 L2220.04 1277.87 L2220.04 1281.9 Q2221.5 1279.52 2223.53 1278.38 Q2225.57 1277.25 2228.37 1277.25 Q2231.2 1277.25 2233.16 1278.68 Q2235.15 1280.12 2236.1 1282.85 Z" fill="#000000" fill-rule="nonzero" fill-opacity="1" /><path clip-path="url(#clip400)" d="M2266.22 1299.91 L2266.22 1313.66 L2261.94 1313.66 L2261.94 1277.87 L2266.22 1277.87 L2266.22 1281.81 Q2267.56 1279.49 2269.6 1278.38 Q2271.66 1277.25 2274.51 1277.25 Q2279.23 1277.25 2282.17 1281 Q2285.13 1284.75 2285.13 1290.86 Q2285.13 1296.97 2282.17 1300.72 Q2279.23 1304.47 2274.51 1304.47 Q2271.66 1304.47 2269.6 1303.36 Q2267.56 1302.22 2266.22 1299.91 M2280.71 1290.86 Q2280.71 1286.16 2278.76 1283.5 Q2276.84 1280.81 2273.46 1280.81 Q2270.08 1280.81 2268.14 1283.5 Q2266.22 1286.16 2266.22 1290.86 Q2266.22 1295.56 2268.14 1298.24 Q2270.08 1300.91 2273.46 1300.91 Q2276.84 1300.91 2278.76 1298.24 Q2280.71 1295.56 2280.71 1290.86 Z" fill="#000000" fill-rule="nonzero" fill-opacity="1" /><path clip-path="url(#clip400)" d="M2303.97 1290.77 Q2298.81 1290.77 2296.82 1291.95 Q2294.83 1293.13 2294.83 1295.97 Q2294.83 1298.24 2296.31 1299.59 Q2297.82 1300.91 2300.39 1300.91 Q2303.93 1300.91 2306.06 1298.41 Q2308.21 1295.88 2308.21 1291.72 L2308.21 1290.77 L2303.97 1290.77 M2312.47 1289.01 L2312.47 1303.8 L2308.21 1303.8 L2308.21 1299.86 Q2306.75 1302.22 2304.58 1303.36 Q2302.4 1304.47 2299.25 1304.47 Q2295.27 1304.47 2292.91 1302.25 Q2290.57 1300 2290.57 1296.25 Q2290.57 1291.88 2293.49 1289.66 Q2296.43 1287.43 2302.24 1287.43 L2308.21 1287.43 L2308.21 1287.02 Q2308.21 1284.08 2306.26 1282.48 Q2304.34 1280.86 2300.85 1280.86 Q2298.63 1280.86 2296.52 1281.39 Q2294.41 1281.92 2292.47 1282.99 L2292.47 1279.05 Q2294.81 1278.15 2297.01 1277.71 Q2299.2 1277.25 2301.29 1277.25 Q2306.91 1277.25 2309.69 1280.16 Q2312.47 1283.08 2312.47 1289.01 Z" fill="#000000" fill-rule="nonzero" fill-opacity="1" /><path clip-path="url(#clip400)" d="M2336.26 1281.85 Q2335.55 1281.44 2334.69 1281.25 Q2333.86 1281.04 2332.84 1281.04 Q2329.23 1281.04 2327.28 1283.41 Q2325.36 1285.74 2325.36 1290.14 L2325.36 1303.8 L2321.08 1303.8 L2321.08 1277.87 L2325.36 1277.87 L2325.36 1281.9 Q2326.7 1279.54 2328.86 1278.41 Q2331.01 1277.25 2334.09 1277.25 Q2334.53 1277.25 2335.06 1277.32 Q2335.59 1277.36 2336.24 1277.48 L2336.26 1281.85 Z" fill="#000000" fill-rule="nonzero" fill-opacity="1" /><path clip-path="url(#clip400)" d="M2361.87 1289.77 L2361.87 1291.85 L2342.28 1291.85 Q2342.56 1296.25 2344.92 1298.57 Q2347.31 1300.86 2351.54 1300.86 Q2354 1300.86 2356.29 1300.26 Q2358.6 1299.66 2360.87 1298.45 L2360.87 1302.48 Q2358.58 1303.45 2356.17 1303.96 Q2353.76 1304.47 2351.29 1304.47 Q2345.08 1304.47 2341.45 1300.86 Q2337.84 1297.25 2337.84 1291.09 Q2337.84 1284.72 2341.26 1281 Q2344.71 1277.25 2350.55 1277.25 Q2355.78 1277.25 2358.81 1280.63 Q2361.87 1283.98 2361.87 1289.77 M2357.61 1288.52 Q2357.56 1285.03 2355.64 1282.94 Q2353.74 1280.86 2350.59 1280.86 Q2347.03 1280.86 2344.88 1282.87 Q2342.75 1284.89 2342.42 1288.54 L2357.61 1288.52 Z" fill="#000000" fill-rule="nonzero" fill-opacity="1" /><path clip-path="url(#clip400)" d="M2385.92 1281.81 L2385.92 1267.78 L2390.18 1267.78 L2390.18 1303.8 L2385.92 1303.8 L2385.92 1299.91 Q2384.57 1302.22 2382.51 1303.36 Q2380.48 1304.47 2377.61 1304.47 Q2372.91 1304.47 2369.95 1300.72 Q2367.01 1296.97 2367.01 1290.86 Q2367.01 1284.75 2369.95 1281 Q2372.91 1277.25 2377.61 1277.25 Q2380.48 1277.25 2382.51 1278.38 Q2384.57 1279.49 2385.92 1281.81 M2371.4 1290.86 Q2371.4 1295.56 2373.32 1298.24 Q2375.27 1300.91 2378.65 1300.91 Q2382.03 1300.91 2383.97 1298.24 Q2385.92 1295.56 2385.92 1290.86 Q2385.92 1286.16 2383.97 1283.5 Q2382.03 1280.81 2378.65 1280.81 Q2375.27 1280.81 2373.32 1283.5 Q2371.4 1286.16 2371.4 1290.86 Z" fill="#000000" fill-rule="nonzero" fill-opacity="1" /><path clip-path="url(#clip400)" d="M2418.23 1270.51 L2418.23 1277.87 L2427 1277.87 L2427 1281.18 L2418.23 1281.18 L2418.23 1295.26 Q2418.23 1298.43 2419.09 1299.33 Q2419.97 1300.23 2422.63 1300.23 L2427 1300.23 L2427 1303.8 L2422.63 1303.8 Q2417.7 1303.8 2415.82 1301.97 Q2413.95 1300.12 2413.95 1295.26 L2413.95 1281.18 L2410.82 1281.18 L2410.82 1277.87 L2413.95 1277.87 L2413.95 1270.51 L2418.23 1270.51 Z" fill="#000000" fill-rule="nonzero" fill-opacity="1" /><path clip-path="url(#clip400)" d="M2442.65 1280.86 Q2439.23 1280.86 2437.24 1283.54 Q2435.25 1286.21 2435.25 1290.86 Q2435.25 1295.51 2437.21 1298.2 Q2439.2 1300.86 2442.65 1300.86 Q2446.06 1300.86 2448.05 1298.17 Q2450.04 1295.49 2450.04 1290.86 Q2450.04 1286.25 2448.05 1283.57 Q2446.06 1280.86 2442.65 1280.86 M2442.65 1277.25 Q2448.21 1277.25 2451.38 1280.86 Q2454.55 1284.47 2454.55 1290.86 Q2454.55 1297.22 2451.38 1300.86 Q2448.21 1304.47 2442.65 1304.47 Q2437.07 1304.47 2433.9 1300.86 Q2430.75 1297.22 2430.75 1290.86 Q2430.75 1284.47 2433.9 1280.86 Q2437.07 1277.25 2442.65 1277.25 Z" fill="#000000" fill-rule="nonzero" fill-opacity="1" /><path clip-path="url(#clip400)" d="M2480.89 1270.51 L2480.89 1277.87 L2489.67 1277.87 L2489.67 1281.18 L2480.89 1281.18 L2480.89 1295.26 Q2480.89 1298.43 2481.75 1299.33 Q2482.63 1300.23 2485.29 1300.23 L2489.67 1300.23 L2489.67 1303.8 L2485.29 1303.8 Q2480.36 1303.8 2478.49 1301.97 Q2476.61 1300.12 2476.61 1295.26 L2476.61 1281.18 L2473.49 1281.18 L2473.49 1277.87 L2476.61 1277.87 L2476.61 1270.51 L2480.89 1270.51 Z" fill="#000000" fill-rule="nonzero" fill-opacity="1" /><path clip-path="url(#clip400)" d="M2516.82 1288.15 L2516.82 1303.8 L2512.56 1303.8 L2512.56 1288.29 Q2512.56 1284.61 2511.12 1282.78 Q2509.69 1280.95 2506.82 1280.95 Q2503.37 1280.95 2501.38 1283.15 Q2499.39 1285.35 2499.39 1289.15 L2499.39 1303.8 L2495.11 1303.8 L2495.11 1267.78 L2499.39 1267.78 L2499.39 1281.9 Q2500.92 1279.56 2502.98 1278.41 Q2505.06 1277.25 2507.77 1277.25 Q2512.24 1277.25 2514.53 1280.03 Q2516.82 1282.78 2516.82 1288.15 Z" fill="#000000" fill-rule="nonzero" fill-opacity="1" /><path clip-path="url(#clip400)" d="M2547.49 1289.77 L2547.49 1291.85 L2527.91 1291.85 Q2528.18 1296.25 2530.55 1298.57 Q2532.93 1300.86 2537.17 1300.86 Q2539.62 1300.86 2541.91 1300.26 Q2544.23 1299.66 2546.5 1298.45 L2546.5 1302.48 Q2544.2 1303.45 2541.8 1303.96 Q2539.39 1304.47 2536.91 1304.47 Q2530.71 1304.47 2527.07 1300.86 Q2523.46 1297.25 2523.46 1291.09 Q2523.46 1284.72 2526.89 1281 Q2530.34 1277.25 2536.17 1277.25 Q2541.4 1277.25 2544.43 1280.63 Q2547.49 1283.98 2547.49 1289.77 M2543.23 1288.52 Q2543.18 1285.03 2541.26 1282.94 Q2539.37 1280.86 2536.22 1280.86 Q2532.65 1280.86 2530.5 1282.87 Q2528.37 1284.89 2528.05 1288.54 L2543.23 1288.52 Z" fill="#000000" fill-rule="nonzero" fill-opacity="1" /><path clip-path="url(#clip400)" d="M2586.61 1281.81 L2586.61 1267.78 L2590.87 1267.78 L2590.87 1303.8 L2586.61 1303.8 L2586.61 1299.91 Q2585.27 1302.22 2583.21 1303.36 Q2581.17 1304.47 2578.3 1304.47 Q2573.6 1304.47 2570.64 1300.72 Q2567.7 1296.97 2567.7 1290.86 Q2567.7 1284.75 2570.64 1281 Q2573.6 1277.25 2578.3 1277.25 Q2581.17 1277.25 2583.21 1278.38 Q2585.27 1279.49 2586.61 1281.81 M2572.1 1290.86 Q2572.1 1295.56 2574.02 1298.24 Q2575.96 1300.91 2579.34 1300.91 Q2582.72 1300.91 2584.67 1298.24 Q2586.61 1295.56 2586.61 1290.86 Q2586.61 1286.16 2584.67 1283.5 Q2582.72 1280.81 2579.34 1280.81 Q2575.96 1280.81 2574.02 1283.5 Q2572.1 1286.16 2572.1 1290.86 Z" fill="#000000" fill-rule="nonzero" fill-opacity="1" /><path clip-path="url(#clip400)" d="M2599.64 1277.87 L2603.9 1277.87 L2603.9 1303.8 L2599.64 1303.8 L2599.64 1277.87 M2599.64 1267.78 L2603.9 1267.78 L2603.9 1273.17 L2599.64 1273.17 L2599.64 1267.78 Z" fill="#000000" fill-rule="nonzero" fill-opacity="1" /><path clip-path="url(#clip400)" d="M2629.34 1278.64 L2629.34 1282.66 Q2627.54 1281.74 2625.59 1281.28 Q2623.65 1280.81 2621.56 1280.81 Q2618.39 1280.81 2616.8 1281.78 Q2615.22 1282.76 2615.22 1284.7 Q2615.22 1286.18 2616.36 1287.04 Q2617.49 1287.87 2620.92 1288.64 L2622.37 1288.96 Q2626.91 1289.93 2628.81 1291.72 Q2630.73 1293.47 2630.73 1296.65 Q2630.73 1300.26 2627.86 1302.36 Q2625.01 1304.47 2620.01 1304.47 Q2617.93 1304.47 2615.66 1304.05 Q2613.42 1303.66 2610.92 1302.85 L2610.92 1298.45 Q2613.28 1299.68 2615.57 1300.3 Q2617.86 1300.91 2620.11 1300.91 Q2623.11 1300.91 2624.74 1299.89 Q2626.36 1298.84 2626.36 1296.97 Q2626.36 1295.23 2625.18 1294.31 Q2624.02 1293.38 2620.06 1292.53 L2618.58 1292.18 Q2614.62 1291.35 2612.86 1289.63 Q2611.1 1287.9 2611.1 1284.89 Q2611.1 1281.23 2613.69 1279.24 Q2616.29 1277.25 2621.05 1277.25 Q2623.42 1277.25 2625.5 1277.6 Q2627.58 1277.94 2629.34 1278.64 Z" fill="#000000" fill-rule="nonzero" fill-opacity="1" /><path clip-path="url(#clip400)" d="M2656.17 1278.87 L2656.17 1282.85 Q2654.36 1281.85 2652.54 1281.37 Q2650.73 1280.86 2648.88 1280.86 Q2644.74 1280.86 2642.44 1283.5 Q2640.15 1286.11 2640.15 1290.86 Q2640.15 1295.6 2642.44 1298.24 Q2644.74 1300.86 2648.88 1300.86 Q2650.73 1300.86 2652.54 1300.37 Q2654.36 1299.86 2656.17 1298.87 L2656.17 1302.8 Q2654.39 1303.64 2652.47 1304.05 Q2650.57 1304.47 2648.42 1304.47 Q2642.56 1304.47 2639.11 1300.79 Q2635.66 1297.11 2635.66 1290.86 Q2635.66 1284.52 2639.13 1280.88 Q2642.63 1277.25 2648.69 1277.25 Q2650.66 1277.25 2652.54 1277.66 Q2654.41 1278.06 2656.17 1278.87 Z" fill="#000000" fill-rule="nonzero" fill-opacity="1" /><path clip-path="url(#clip400)" d="M2673.62 1280.86 Q2670.2 1280.86 2668.21 1283.54 Q2666.22 1286.21 2666.22 1290.86 Q2666.22 1295.51 2668.18 1298.2 Q2670.17 1300.86 2673.62 1300.86 Q2677.03 1300.86 2679.02 1298.17 Q2681.01 1295.49 2681.01 1290.86 Q2681.01 1286.25 2679.02 1283.57 Q2677.03 1280.86 2673.62 1280.86 M2673.62 1277.25 Q2679.18 1277.25 2682.35 1280.86 Q2685.52 1284.47 2685.52 1290.86 Q2685.52 1297.22 2682.35 1300.86 Q2679.18 1304.47 2673.62 1304.47 Q2668.05 1304.47 2664.87 1300.86 Q2661.73 1297.22 2661.73 1290.86 Q2661.73 1284.47 2664.87 1280.86 Q2668.05 1277.25 2673.62 1277.25 Z" fill="#000000" fill-rule="nonzero" fill-opacity="1" /><path clip-path="url(#clip400)" d="M2692.14 1293.57 L2692.14 1277.87 L2696.4 1277.87 L2696.4 1293.41 Q2696.4 1297.09 2697.84 1298.94 Q2699.27 1300.77 2702.14 1300.77 Q2705.59 1300.77 2707.58 1298.57 Q2709.6 1296.37 2709.6 1292.57 L2709.6 1277.87 L2713.86 1277.87 L2713.86 1303.8 L2709.6 1303.8 L2709.6 1299.82 Q2708.05 1302.18 2705.98 1303.34 Q2703.95 1304.47 2701.24 1304.47 Q2696.77 1304.47 2694.46 1301.69 Q2692.14 1298.91 2692.14 1293.57 M2702.86 1277.25 L2702.86 1277.25 Z" fill="#000000" fill-rule="nonzero" fill-opacity="1" /><path clip-path="url(#clip400)" d="M2744.18 1288.15 L2744.18 1303.8 L2739.92 1303.8 L2739.92 1288.29 Q2739.92 1284.61 2738.48 1282.78 Q2737.05 1280.95 2734.18 1280.95 Q2730.73 1280.95 2728.74 1283.15 Q2726.75 1285.35 2726.75 1289.15 L2726.75 1303.8 L2722.47 1303.8 L2722.47 1277.87 L2726.75 1277.87 L2726.75 1281.9 Q2728.28 1279.56 2730.34 1278.41 Q2732.42 1277.25 2735.13 1277.25 Q2739.6 1277.25 2741.89 1280.03 Q2744.18 1282.78 2744.18 1288.15 Z" fill="#000000" fill-rule="nonzero" fill-opacity="1" /><path clip-path="url(#clip400)" d="M2756.89 1270.51 L2756.89 1277.87 L2765.66 1277.87 L2765.66 1281.18 L2756.89 1281.18 L2756.89 1295.26 Q2756.89 1298.43 2757.74 1299.33 Q2758.62 1300.23 2761.29 1300.23 L2765.66 1300.23 L2765.66 1303.8 L2761.29 1303.8 Q2756.35 1303.8 2754.48 1301.97 Q2752.61 1300.12 2752.61 1295.26 L2752.61 1281.18 L2749.48 1281.18 L2749.48 1277.87 L2752.61 1277.87 L2752.61 1270.51 L2756.89 1270.51 Z" fill="#000000" fill-rule="nonzero" fill-opacity="1" /><path clip-path="url(#clip400)" d="M2801.35 1281.85 Q2800.64 1281.44 2799.78 1281.25 Q2798.95 1281.04 2797.93 1281.04 Q2794.32 1281.04 2792.37 1283.41 Q2790.45 1285.74 2790.45 1290.14 L2790.45 1303.8 L2786.17 1303.8 L2786.17 1277.87 L2790.45 1277.87 L2790.45 1281.9 Q2791.79 1279.54 2793.95 1278.41 Q2796.1 1277.25 2799.18 1277.25 Q2799.62 1277.25 2800.15 1277.32 Q2800.68 1277.36 2801.33 1277.48 L2801.35 1281.85 Z" fill="#000000" fill-rule="nonzero" fill-opacity="1" /><path clip-path="url(#clip400)" d="M2817.6 1290.77 Q2812.44 1290.77 2810.45 1291.95 Q2808.46 1293.13 2808.46 1295.97 Q2808.46 1298.24 2809.94 1299.59 Q2811.45 1300.91 2814.02 1300.91 Q2817.56 1300.91 2819.69 1298.41 Q2821.84 1295.88 2821.84 1291.72 L2821.84 1290.77 L2817.6 1290.77 M2826.1 1289.01 L2826.1 1303.8 L2821.84 1303.8 L2821.84 1299.86 Q2820.38 1302.22 2818.21 1303.36 Q2816.03 1304.47 2812.88 1304.47 Q2808.9 1304.47 2806.54 1302.25 Q2804.2 1300 2804.2 1296.25 Q2804.2 1291.88 2807.12 1289.66 Q2810.06 1287.43 2815.87 1287.43 L2821.84 1287.43 L2821.84 1287.02 Q2821.84 1284.08 2819.9 1282.48 Q2817.98 1280.86 2814.48 1280.86 Q2812.26 1280.86 2810.15 1281.39 Q2808.04 1281.92 2806.1 1282.99 L2806.1 1279.05 Q2808.44 1278.15 2810.64 1277.71 Q2812.84 1277.25 2814.92 1277.25 Q2820.54 1277.25 2823.32 1280.16 Q2826.1 1283.08 2826.1 1289.01 Z" fill="#000000" fill-rule="nonzero" fill-opacity="1" /><path clip-path="url(#clip400)" d="M2839.09 1270.51 L2839.09 1277.87 L2847.86 1277.87 L2847.86 1281.18 L2839.09 1281.18 L2839.09 1295.26 Q2839.09 1298.43 2839.94 1299.33 Q2840.82 1300.23 2843.48 1300.23 L2847.86 1300.23 L2847.86 1303.8 L2843.48 1303.8 Q2838.55 1303.8 2836.68 1301.97 Q2834.8 1300.12 2834.8 1295.26 L2834.8 1281.18 L2831.68 1281.18 L2831.68 1277.87 L2834.8 1277.87 L2834.8 1270.51 L2839.09 1270.51 Z" fill="#000000" fill-rule="nonzero" fill-opacity="1" /><path clip-path="url(#clip400)" d="M2875.64 1289.77 L2875.64 1291.85 L2856.05 1291.85 Q2856.33 1296.25 2858.69 1298.57 Q2861.08 1300.86 2865.31 1300.86 Q2867.77 1300.86 2870.06 1300.26 Q2872.37 1299.66 2874.64 1298.45 L2874.64 1302.48 Q2872.35 1303.45 2869.94 1303.96 Q2867.53 1304.47 2865.06 1304.47 Q2858.85 1304.47 2855.22 1300.86 Q2851.61 1297.25 2851.61 1291.09 Q2851.61 1284.72 2855.04 1281 Q2858.48 1277.25 2864.32 1277.25 Q2869.55 1277.25 2872.58 1280.63 Q2875.64 1283.98 2875.64 1289.77 M2871.38 1288.52 Q2871.33 1285.03 2869.41 1282.94 Q2867.51 1280.86 2864.36 1280.86 Q2860.8 1280.86 2858.65 1282.87 Q2856.52 1284.89 2856.19 1288.54 L2871.38 1288.52 Z" fill="#000000" fill-rule="nonzero" fill-opacity="1" /><path clip-path="url(#clip400)" d="M2907.93 1267.83 Q2904.83 1273.15 2903.32 1278.36 Q2901.82 1283.57 2901.82 1288.91 Q2901.82 1294.26 2903.32 1299.52 Q2904.85 1304.75 2907.93 1310.05 L2904.22 1310.05 Q2900.75 1304.61 2899.02 1299.35 Q2897.3 1294.1 2897.3 1288.91 Q2897.3 1283.75 2899.02 1278.52 Q2900.73 1273.29 2904.22 1267.83 L2907.93 1267.83 Z" fill="#000000" fill-rule="nonzero" fill-opacity="1" /><path clip-path="url(#clip400)" d="M2946.19 1288.59 Q2944.18 1288.59 2943.02 1290.3 Q2941.89 1292.02 2941.89 1295.07 Q2941.89 1298.08 2943.02 1299.82 Q2944.18 1301.53 2946.19 1301.53 Q2948.16 1301.53 2949.29 1299.82 Q2950.45 1298.08 2950.45 1295.07 Q2950.45 1292.04 2949.29 1290.33 Q2948.16 1288.59 2946.19 1288.59 M2946.19 1285.65 Q2949.85 1285.65 2952 1288.2 Q2954.15 1290.74 2954.15 1295.07 Q2954.15 1299.4 2951.98 1301.95 Q2949.83 1304.47 2946.19 1304.47 Q2942.49 1304.47 2940.34 1301.95 Q2938.18 1299.4 2938.18 1295.07 Q2938.18 1290.72 2940.34 1288.2 Q2942.51 1285.65 2946.19 1285.65 M2922.3 1271.55 Q2920.31 1271.55 2919.16 1273.29 Q2918.02 1275 2918.02 1278.01 Q2918.02 1281.07 2919.16 1282.78 Q2920.29 1284.49 2922.3 1284.49 Q2924.32 1284.49 2925.45 1282.78 Q2926.61 1281.07 2926.61 1278.01 Q2926.61 1275.03 2925.45 1273.29 Q2924.29 1271.55 2922.3 1271.55 M2943.21 1268.61 L2946.91 1268.61 L2925.29 1304.47 L2921.59 1304.47 L2943.21 1268.61 M2922.3 1268.61 Q2925.96 1268.61 2928.14 1271.16 Q2930.31 1273.68 2930.31 1278.01 Q2930.31 1282.39 2928.14 1284.91 Q2925.98 1287.43 2922.3 1287.43 Q2918.62 1287.43 2916.47 1284.91 Q2914.34 1282.36 2914.34 1278.01 Q2914.34 1273.71 2916.49 1271.16 Q2918.65 1268.61 2922.3 1268.61 Z" fill="#000000" fill-rule="nonzero" fill-opacity="1" /><path clip-path="url(#clip400)" d="M2960.57 1267.83 L2964.27 1267.83 Q2967.74 1273.29 2969.46 1278.52 Q2971.19 1283.75 2971.19 1288.91 Q2971.19 1294.1 2969.46 1299.35 Q2967.74 1304.61 2964.27 1310.05 L2960.57 1310.05 Q2963.65 1304.75 2965.15 1299.52 Q2966.68 1294.26 2966.68 1288.91 Q2966.68 1283.57 2965.15 1278.36 Q2963.65 1273.15 2960.57 1267.83 Z" fill="#000000" fill-rule="nonzero" fill-opacity="1" /></svg>
